<svg width="499" height="317" viewBox="0 0 499 317" fill="none" xmlns="http://www.w3.org/2000/svg">
<g clip-path="url(#clip0)">
<path d="M177.552 36.4075H168.272V42.241H179.233V46.78H162.371V22.3028H179.267V26.8587H168.272V32.0197H177.552V36.4075ZM190.732 38.139H187.538V46.78H181.637V22.3028H191.27C194.173 22.3028 196.442 22.9472 198.078 24.2361C199.715 25.525 200.533 27.3462 200.533 29.6998C200.533 31.4033 200.185 32.8155 199.491 33.9362C198.807 35.057 197.731 35.9648 196.263 36.6596L201.373 46.5279V46.78H195.052L190.732 38.139ZM187.538 33.5832H191.27C192.391 33.5832 193.231 33.2918 193.791 32.709C194.363 32.115 194.649 31.2912 194.649 30.2377C194.649 29.1842 194.363 28.3605 193.791 27.7665C193.22 27.1613 192.379 26.8587 191.27 26.8587H187.538V33.5832ZM213.192 38.139H209.998V46.78H204.097V22.3028H213.73C216.632 22.3028 218.902 22.9472 220.538 24.2361C222.175 25.525 222.993 27.3462 222.993 29.6998C222.993 31.4033 222.645 32.8155 221.95 33.9362C221.267 35.057 220.191 35.9648 218.723 36.6596L223.833 46.5279V46.78H217.512L213.192 38.139ZM209.998 33.5832H213.73C214.85 33.5832 215.691 33.2918 216.251 32.709C216.823 32.115 217.109 31.2912 217.109 30.2377C217.109 29.1842 216.823 28.3605 216.251 27.7665C215.68 27.1613 214.839 26.8587 213.73 26.8587H209.998V33.5832ZM247.285 35.0458C247.285 37.433 246.842 39.5456 245.957 41.3836C245.071 43.2216 243.811 44.6394 242.174 45.6369C240.549 46.6231 238.694 47.1163 236.61 47.1163C234.525 47.1163 232.676 46.6399 231.062 45.6873C229.448 44.7234 228.187 43.3505 227.28 41.5685C226.383 39.7865 225.912 37.7412 225.867 35.4324V34.0539C225.867 31.6555 226.305 29.5429 227.179 27.716C228.064 25.878 229.325 24.4603 230.961 23.4628C232.609 22.4653 234.48 21.9666 236.576 21.9666C238.65 21.9666 240.499 22.4597 242.124 23.446C243.749 24.4322 245.01 25.8388 245.906 27.6656C246.814 29.4812 247.274 31.5658 247.285 33.9194V35.0458ZM241.283 34.0203C241.283 31.5882 240.874 29.7446 240.056 28.4894C239.249 27.2229 238.089 26.5897 236.576 26.5897C233.617 26.5897 232.054 28.8088 231.886 33.2469L231.869 35.0458C231.869 37.4442 232.267 39.2878 233.063 40.5767C233.858 41.8655 235.041 42.51 236.61 42.51C238.1 42.51 239.249 41.8767 240.056 40.6103C240.863 39.3438 241.272 37.5226 241.283 35.1466V34.0203ZM259.423 38.139H256.229V46.78H250.328V22.3028H259.961C262.863 22.3028 265.133 22.9472 266.769 24.2361C268.406 25.525 269.224 27.3462 269.224 29.6998C269.224 31.4033 268.876 32.8155 268.181 33.9362C267.498 35.057 266.422 35.9648 264.954 36.6596L270.064 46.5279V46.78H263.743L259.423 38.139ZM256.229 33.5832H259.961C261.081 33.5832 261.922 33.2918 262.482 32.709C263.054 32.115 263.34 31.2912 263.34 30.2377C263.34 29.1842 263.054 28.3605 262.482 27.7665C261.911 27.1613 261.07 26.8587 259.961 26.8587H256.229V33.5832ZM295.97 37.2144H298.459V41.5853H295.97V46.78H290.305V41.5853H280.84L280.504 38.1222L290.305 22.3532V22.3028H295.97V37.2144ZM285.9 37.2144H290.305V29.683L289.952 30.2545L285.9 37.2144ZM317.943 36.7773C317.943 40.0835 317.197 42.6332 315.707 44.4265C314.227 46.2197 312.137 47.1163 309.436 47.1163C306.713 47.1163 304.606 46.214 303.115 44.4096C301.625 42.6052 300.879 40.0611 300.879 36.7773V32.3055C300.879 28.9993 301.619 26.4496 303.098 24.6564C304.589 22.8632 306.69 21.9666 309.403 21.9666C312.115 21.9666 314.216 22.8688 315.707 24.6732C317.197 26.4776 317.943 29.0273 317.943 32.3223V36.7773ZM312.277 31.5826C312.277 29.8231 312.048 28.5118 311.588 27.6488C311.129 26.7746 310.4 26.3375 309.403 26.3375C308.428 26.3375 307.716 26.741 307.268 27.5479C306.831 28.3549 306.595 29.5765 306.562 31.2128V37.4666C306.562 39.2934 306.791 40.6327 307.251 41.4845C307.71 42.325 308.439 42.7453 309.436 42.7453C310.4 42.7453 311.112 42.3362 311.571 41.5181C312.031 40.6887 312.266 39.3943 312.277 37.6347V31.5826ZM335.847 37.2144H338.335V41.5853H335.847V46.78H330.181V41.5853H320.717L320.38 38.1222L330.181 22.3532V22.3028H335.847V37.2144ZM325.777 37.2144H330.181V29.683L329.828 30.2545L325.777 37.2144Z" fill="#E77122"/>
<path d="M143.551 72V59.0458H148.951C149.523 59.0458 150.046 59.1675 150.521 59.4107C151.007 59.6418 151.421 59.9581 151.761 60.3595C152.114 60.7487 152.388 61.1927 152.582 61.6914C152.777 62.1779 152.874 62.6767 152.874 63.1875C152.874 63.7227 152.783 64.2397 152.601 64.7384C152.418 65.2371 152.157 65.681 151.816 66.0703C151.488 66.4595 151.086 66.7697 150.612 67.0008C150.15 67.2319 149.633 67.3474 149.061 67.3474H145.193V72H143.551ZM145.193 65.8878H148.97C149.31 65.8878 149.614 65.8209 149.882 65.6871C150.162 65.5412 150.399 65.3465 150.594 65.1033C150.788 64.8478 150.94 64.5559 151.05 64.2275C151.159 63.8991 151.214 63.5524 151.214 63.1875C151.214 62.8105 151.147 62.4577 151.013 62.1293C150.892 61.8009 150.721 61.515 150.502 61.2718C150.296 61.0285 150.046 60.84 149.754 60.7062C149.474 60.5724 149.176 60.5055 148.86 60.5055H145.193V65.8878ZM157.933 59.0458H159.32L164.611 72H162.859L161.327 68.205H155.89L154.375 72H152.624L157.933 59.0458ZM160.962 66.9278L158.626 60.9433L156.218 66.9278H160.962ZM158.9 57.495L157.842 57.1301L158.9 55.2873H160.506L158.9 57.495ZM174.999 70.2485C173.856 71.477 172.542 72.0912 171.058 72.0912C170.195 72.0912 169.392 71.9027 168.65 71.5256C167.92 71.1486 167.288 70.6559 166.753 70.0478C166.217 69.4274 165.792 68.7219 165.475 67.9313C165.171 67.1407 165.019 66.3257 165.019 65.4864C165.019 64.6107 165.171 63.7835 165.475 63.0051C165.78 62.2144 166.199 61.5211 166.734 60.9251C167.27 60.3169 167.908 59.8365 168.65 59.4837C169.392 59.131 170.195 58.9546 171.058 58.9546C172.311 58.9546 173.339 59.2161 174.142 59.7392C174.957 60.2622 175.577 60.9433 176.003 61.7826L174.744 62.6584C174.355 61.9043 173.838 61.3447 173.193 60.9798C172.549 60.6149 171.825 60.4325 171.022 60.4325C170.365 60.4325 169.769 60.5784 169.234 60.8704C168.699 61.1501 168.243 61.5272 167.866 62.0016C167.488 62.4638 167.197 63.0051 166.99 63.6254C166.783 64.2336 166.68 64.8661 166.68 65.5229C166.68 66.2162 166.795 66.8731 167.026 67.4934C167.257 68.1016 167.574 68.6429 167.975 69.1172C168.376 69.5795 168.851 69.9444 169.398 70.212C169.946 70.4796 170.542 70.6134 171.186 70.6134C172.597 70.6134 173.868 69.9322 174.999 68.5699V66.7818H172.208V65.5412H176.386V72H174.999V70.2485ZM178.883 72V59.0458H180.525V72H178.883ZM185.265 62.111V72H183.623V59.0458H184.9L192.928 69.1355V59.0641H194.57V72H193.183L185.265 62.111ZM201.604 59.0458H202.991L208.282 72H206.53L204.998 68.205H199.561L198.046 72H196.295L201.604 59.0458ZM204.633 66.9278L202.297 60.9433L199.889 66.9278H204.633ZM215.697 62.111V72H214.055V59.0458H215.333L223.361 69.1355V59.0641H225.003V72H223.616L215.697 62.111ZM233.35 72.0912C232.438 72.0912 231.605 71.9088 230.851 71.5439C230.109 71.1668 229.47 70.6742 228.935 70.066C228.4 69.4457 227.986 68.7402 227.694 67.9495C227.402 67.1589 227.256 66.35 227.256 65.5229C227.256 64.6593 227.408 63.8322 227.713 63.0416C228.029 62.2509 228.461 61.5515 229.008 60.9433C229.555 60.3352 230.2 59.8547 230.942 59.502C231.696 59.1371 232.511 58.9546 233.387 58.9546C234.299 58.9546 235.126 59.1492 235.868 59.5385C236.61 59.9155 237.249 60.4142 237.784 61.0346C238.319 61.6549 238.733 62.3604 239.025 63.151C239.317 63.9295 239.463 64.7262 239.463 65.5412C239.463 66.4048 239.304 67.2319 238.988 68.0225C238.684 68.8132 238.258 69.5126 237.711 70.1207C237.176 70.7167 236.531 71.1972 235.777 71.5621C235.035 71.9149 234.226 72.0912 233.35 72.0912ZM228.917 65.5229C228.917 66.1797 229.02 66.8183 229.227 67.4387C229.446 68.0469 229.75 68.5881 230.139 69.0625C230.528 69.5369 230.997 69.914 231.544 70.1937C232.091 70.4735 232.7 70.6134 233.369 70.6134C234.062 70.6134 234.682 70.4674 235.23 70.1755C235.777 69.8714 236.239 69.4821 236.616 69.0078C237.006 68.5212 237.297 67.9739 237.492 67.3657C237.699 66.7575 237.802 66.1433 237.802 65.5229C237.802 64.8661 237.693 64.2336 237.474 63.6254C237.267 63.0051 236.963 62.4638 236.562 62.0016C236.172 61.5272 235.704 61.1501 235.157 60.8704C234.621 60.5906 234.025 60.4507 233.369 60.4507C232.675 60.4507 232.055 60.5967 231.508 60.8886C230.96 61.1805 230.492 61.5637 230.103 62.0381C229.726 62.5124 229.434 63.0537 229.227 63.6619C229.02 64.2701 228.917 64.8904 228.917 65.5229ZM255.153 70.5404V72H246.359V59.0458H254.989V60.5055H248.001V64.7019H254.077V66.0703H248.001V70.5404H255.153ZM259.048 62.111V72H257.406V59.0458H258.683L266.711 69.1355V59.0641H268.353V72H266.966L259.048 62.111ZM270.607 65.4317C270.607 64.6532 270.741 63.8808 271.008 63.1145C271.288 62.3361 271.689 61.6428 272.212 61.0346C272.748 60.4142 273.398 59.9155 274.165 59.5385C274.931 59.1614 275.801 58.9729 276.774 58.9729C277.929 58.9729 278.921 59.2344 279.748 59.7574C280.575 60.2804 281.189 60.9616 281.591 61.8009L280.295 62.6402C280.1 62.2266 279.863 61.8799 279.584 61.6002C279.316 61.3204 279.018 61.0954 278.69 60.9251C278.373 60.7548 278.045 60.6332 277.704 60.5602C277.364 60.4872 277.029 60.4507 276.701 60.4507C275.983 60.4507 275.345 60.6028 274.785 60.9069C274.238 61.1988 273.775 61.588 273.398 62.0746C273.021 62.5489 272.735 63.0902 272.541 63.6984C272.358 64.2944 272.267 64.8965 272.267 65.5047C272.267 66.1858 272.377 66.8366 272.596 67.4569C272.827 68.0651 273.143 68.6064 273.544 69.0808C273.946 69.5551 274.42 69.9322 274.967 70.212C275.515 70.4917 276.111 70.6316 276.756 70.6316C277.096 70.6316 277.443 70.589 277.795 70.5039C278.16 70.4187 278.507 70.2849 278.835 70.1025C279.164 69.9079 279.468 69.6707 279.748 69.3909C280.04 69.099 280.277 68.7523 280.459 68.3509L281.828 69.099C281.621 69.5855 281.329 70.0173 280.952 70.3944C280.587 70.7593 280.167 71.0695 279.693 71.3249C279.231 71.5804 278.738 71.775 278.215 71.9088C277.692 72.0426 277.181 72.1095 276.683 72.1095C275.795 72.1095 274.98 71.9149 274.238 71.5256C273.496 71.1364 272.851 70.6316 272.304 70.0113C271.768 69.3788 271.349 68.6672 271.045 67.8766C270.753 67.0738 270.607 66.2588 270.607 65.4317ZM288.995 72.0912C288.083 72.0912 287.25 71.9088 286.495 71.5439C285.753 71.1668 285.115 70.6742 284.58 70.066C284.044 69.4457 283.631 68.7402 283.339 67.9495C283.047 67.1589 282.901 66.35 282.901 65.5229C282.901 64.6593 283.053 63.8322 283.357 63.0416C283.673 62.2509 284.105 61.5515 284.653 60.9433C285.2 60.3352 285.845 59.8547 286.587 59.502C287.341 59.1371 288.156 58.9546 289.031 58.9546C289.944 58.9546 290.771 59.1492 291.513 59.5385C292.255 59.9155 292.893 60.4142 293.429 61.0346C293.964 61.6549 294.377 62.3604 294.669 63.151C294.961 63.9295 295.107 64.7262 295.107 65.5412C295.107 66.4048 294.949 67.2319 294.633 68.0225C294.329 68.8132 293.903 69.5126 293.356 70.1207C292.82 70.7167 292.176 71.1972 291.422 71.5621C290.68 71.9149 289.871 72.0912 288.995 72.0912ZM284.561 65.5229C284.561 66.1797 284.665 66.8183 284.872 67.4387C285.09 68.0469 285.395 68.5881 285.784 69.0625C286.173 69.5369 286.641 69.914 287.189 70.1937C287.736 70.4735 288.344 70.6134 289.013 70.6134C289.707 70.6134 290.327 70.4674 290.874 70.1755C291.422 69.8714 291.884 69.4821 292.261 69.0078C292.65 68.5212 292.942 67.9739 293.137 67.3657C293.343 66.7575 293.447 66.1433 293.447 65.5229C293.447 64.8661 293.337 64.2336 293.118 63.6254C292.912 63.0051 292.608 62.4638 292.206 62.0016C291.817 61.5272 291.349 61.1501 290.801 60.8704C290.266 60.5906 289.67 60.4507 289.013 60.4507C288.32 60.4507 287.7 60.5967 287.152 60.8886C286.605 61.1805 286.137 61.5637 285.747 62.0381C285.37 62.5124 285.078 63.0537 284.872 63.6619C284.665 64.2701 284.561 64.8904 284.561 65.5229ZM299.031 62.111V72H297.389V59.0458H298.666L306.694 69.1355V59.0641H308.336V72H306.949L299.031 62.111ZM320.771 60.5055H316.3V72H314.658V60.5055H310.188V59.0458H320.771V60.5055ZM322.636 72V59.0458H328.183C328.755 59.0458 329.278 59.1675 329.752 59.4107C330.239 59.6418 330.652 59.9581 330.993 60.3595C331.345 60.7487 331.619 61.1927 331.814 61.6914C332.008 62.1779 332.106 62.6767 332.106 63.1875C332.106 63.6376 332.039 64.0755 331.905 64.5012C331.783 64.9147 331.601 65.2918 331.358 65.6324C331.126 65.973 330.841 66.2649 330.5 66.5082C330.172 66.7514 329.801 66.9278 329.387 67.0373L332.525 72H330.664L327.709 67.3474H324.278V72H322.636ZM324.278 65.8878H328.201C328.542 65.8878 328.846 65.8148 329.113 65.6689C329.393 65.5229 329.63 65.3283 329.825 65.085C330.02 64.8296 330.172 64.5377 330.281 64.2093C330.391 63.8808 330.445 63.5403 330.445 63.1875C330.445 62.8226 330.378 62.482 330.245 62.1658C330.123 61.8374 329.953 61.5515 329.734 61.3083C329.527 61.0528 329.278 60.8582 328.986 60.7244C328.706 60.5784 328.408 60.5055 328.092 60.5055H324.278V65.8878ZM338.569 59.0458H339.955L345.246 72H343.495L341.962 68.205H336.525L335.011 72H333.259L338.569 59.0458ZM341.597 66.9278L339.262 60.9433L336.854 66.9278H341.597ZM346.975 72V59.0458H351.464C352.498 59.0458 353.404 59.2161 354.182 59.5567C354.973 59.8973 355.63 60.3595 356.153 60.9433C356.676 61.5272 357.065 62.2144 357.32 63.0051C357.588 63.7835 357.722 64.6167 357.722 65.5047C357.722 66.4899 357.576 67.3839 357.284 68.1867C356.992 68.9774 356.572 69.6585 356.025 70.2302C355.478 70.7897 354.815 71.2276 354.036 71.5439C353.27 71.848 352.412 72 351.464 72H346.975ZM356.061 65.5047C356.061 64.7749 355.958 64.1059 355.751 63.4977C355.557 62.8773 355.259 62.3482 354.857 61.9103C354.468 61.4725 353.988 61.1319 353.416 60.8886C352.844 60.6332 352.193 60.5055 351.464 60.5055H348.617V70.5404H351.464C352.206 70.5404 352.862 70.4127 353.434 70.1572C354.018 69.9018 354.498 69.549 354.875 69.099C355.265 68.6489 355.557 68.1198 355.751 67.5117C355.958 66.8913 356.061 66.2223 356.061 65.5047ZM363.513 59.0458H364.9L370.191 72H368.44L366.907 68.205H361.47L359.956 72H358.204L363.513 59.0458ZM366.542 66.9278L364.207 60.9433L361.798 66.9278H366.542Z" fill="#277FD9"/>
<path d="M422.5 245.6L455.4 316.6H459.1L430.7 241L422.5 245.6Z" fill="#DCA86E"/>
<path d="M388.5 247.1L355.7 316.6H352L380.4 245.6L388.5 247.1Z" fill="#DCA86E"/>
<path d="M305 301.4L288.3 316L268.6 302.1C268.6 302.1 275.3 299.9 286.8 302.9L298.6 293L305 301.4Z" fill="url(#paint0_linear)"/>
<path d="M401.7 220.8C401.7 220.8 364.8 239.7 351.7 245.4C338.7 251.1 294.3 295.5 294.3 295.5C294.3 295.5 300 307.1 302.8 305C327.9 287.1 350.9 271.1 365.8 265.5C395.2 254.4 403.4 252 410.9 243.3C410.9 243.3 406.5 232.8 401.7 220.8Z" fill="#2167BE"/>
<path d="M344.2 294L339.4 315.7L315.3 316.2C315.3 316.2 319.4 310.4 330.4 306.1L334 291.2L344.2 294Z" fill="url(#paint1_linear)"/>
<path d="M402.6 216C402.6 216 368.3 219.7 355.7 226.4C343.2 233.1 333.2 295 333.2 295C333.2 295 342.9 300.3 344.1 297C353.8 270.6 364.6 249.8 364.6 249.8C376.9 247.5 405.5 261.5 426.2 241.1C426.2 241.2 408.4 227.5 402.6 216Z" fill="#277FD9"/>
<path d="M461.8 174.3C461.8 174.3 459.3 178.4 457.8 183.5L443.7 182.2C443.7 182.2 451 171.2 450.4 164.5L461.8 174.3Z" fill="#FEC4AD"/>
<path d="M458.7 151.4C457.9 151.2 454.9 150.4 454.3 150.6C453.5 150.9 454.4 152.1 453.8 152.7C452.8 153.8 450.9 153.8 449.7 154.5C448.2 155.3 447 156.4 446.4 157.6C445.3 159.6 449.4 164.1 450.1 167.5C451.5 174.6 460.4 175.6 467.7 173.5C470.3 172.7 472.7 170.4 474.1 168.1C475.8 165.4 474.8 161 473.4 158.3C472.6 156.7 470.9 155.3 469.5 154.3C468.2 153.4 467.8 149.6 466.3 149.4C466.2 149.5 460.5 151.9 458.7 151.4Z" fill="#FEC4AD"/>
<path d="M479 170.4C479 170.4 478.8 169.2 480.8 167.3C487.6 160.9 480.3 148.4 472.9 146.3C469.1 145.2 466.7 146.4 465.4 142.6C465.5 142.9 463.9 143.6 463.7 143.7C462.8 144.4 462.4 145 462.4 146.2C462.3 151.7 467.2 156.7 470.8 160.2C472.5 161.7 468.4 160.7 466.7 161C465.6 161.2 462.8 164.1 462.2 164.6C463.7 166.5 465.1 164.8 467.2 165.7C469.1 166.6 467.9 169 466.1 169.3C463.3 169.7 462.2 167.9 462.2 167.9C460.9 168.6 460.7 172.7 459.7 173.8C461.1 174.6 469.2 176 471.1 176C475.2 175.9 477.7 173.7 479 170.4Z" fill="url(#paint2_linear)"/>
<path d="M461.3 176.5C464.3 209.5 426.2 241.2 426.2 241.2C426.2 241.2 401.4 242.1 402.6 216C402.6 216 404.5 211.3 419.9 197.3C430.2 188 437.4 174.1 444.6 174.4C464.4 175.1 461.3 176.5 461.3 176.5Z" fill="#E77122"/>
<path d="M369.1 243C369.1 243 392 251.5 422.5 240C453 228.4 461.4 174.4 461.4 174.4L464.9 176.2C464.9 176.2 461.5 235.9 421.3 248.8C390.6 258.7 369.1 246.9 369.1 246.9V243V243Z" fill="url(#paint3_linear)"/>
<path d="M457.6 209.4C457.6 209.4 461.3 222.1 461.5 228.4C461.7 234.7 459 256.2 459 256.2L464.8 256.9C464.8 256.9 470 231.3 470.1 223C470.2 214.7 465.4 201.1 465.4 201.1L457.6 209.4Z" fill="#F8D2A1"/>
<path d="M457.3 210C461.5 228.5 459.8 253.2 459.8 253.2L466.1 253.6C473 239.1 472.4 207 468.7 193.5C466.5 185.6 465.3 177.6 459.9 176.3C456.5 175.5 449.6 178 448.7 181.3C446.7 188.6 455.2 200.9 457.3 210Z" fill="#E77122"/>
<path d="M456.4 259.4C455 262.1 454.4 264 455.2 264.7C455.8 265.2 456.7 262.6 457.8 261.7C458.1 262.8 458.2 264.8 457.5 266.5C456.7 268.4 456.8 270 458.2 270.2C459.7 270.3 462 270.2 462.5 269C463 267.8 464.2 262.8 464.9 261.1C465.5 259.4 464.7 257.5 464.9 256.5C465.1 255.5 460.6 253.9 460.6 253.9C460.4 254.3 459 256.2 459 256.2C459 256.2 457.8 257.6 457.4 257.9C457 258.1 456.4 259.4 456.4 259.4Z" fill="#F8D2A1"/>
<path d="M421.9 0V44" stroke="#D4DBE2" stroke-width="0.25" stroke-miterlimit="10"/>
<path d="M429.7 60.9001C429.4 65.1001 425.7 68.3001 421.4 68.0001C417.2 67.7001 414 64.0001 414.3 59.7001C414.6 55.5001 418.3 52.3001 422.6 52.6001C426.9 53.0001 430.1 56.7001 429.7 60.9001Z" fill="#FFBA01"/>
<path d="M458.4 63.5999H385.5L417.4 40.3999H426.5L458.4 63.5999Z" fill="#D2DCEB"/>
<path d="M78.8999 0V44" stroke="#D4DBE2" stroke-width="0.25" stroke-miterlimit="10"/>
<path d="M86.6998 60.9001C86.3998 65.1001 82.6998 68.3001 78.3998 68.0001C74.1998 67.7001 70.9998 64.0001 71.2998 59.7001C71.5998 55.5001 75.2998 52.3001 79.5998 52.6001C83.7998 53.0001 86.9998 56.7001 86.6998 60.9001Z" fill="#FFBA01"/>
<path d="M115.3 63.5999H42.3999L74.2999 40.3999H83.3999L115.3 63.5999Z" fill="#D2DCEB"/>
<path d="M0 316.3H498.3" stroke="#A6AEBA" stroke-width="0.5" stroke-miterlimit="10"/>
<path d="M181.101 163.2C181.101 163.2 182.601 159.4 185.401 156.1C188.201 152.7 192.401 147.2 192.401 147.2C192.401 147.2 190.401 151.2 187.601 155.7C184.901 160.1 181.101 163.2 181.101 163.2Z" fill="#50CC85"/>
<path d="M184 156.7C184 156.7 187.1 154.3 188.9 149.1C190.8 144 192.4 140 192.4 140C192.4 140 188.4 145.7 186.7 149.7C185.1 153.7 184 156.7 184 156.7Z" fill="#50CC85"/>
<path d="M181.4 162.5C181.4 162.5 183 156.6 183.3 151.9C183.6 147.2 183.6 144.3 183.6 144.3C183.6 144.3 181.6 152.8 180.9 156.4C180.3 160 181.4 162.5 181.4 162.5Z" fill="#50CC85"/>
<path d="M180 166.4C180 166.4 180.5 160.3 178.8 154.9C177.1 149.5 177 146 177 146C177 146 176.2 151.7 177.2 156.6C178.1 161.5 180 166.4 180 166.4Z" fill="#50CC85"/>
<path d="M180.5 165C180.5 165 184.8 161.3 187 160.5C189.2 159.6 192.2 157.1 192.2 157.1C192.2 157.1 188.5 161.9 186.4 162.8C184.2 163.8 180.5 165 180.5 165Z" fill="#50CC85"/>
<path d="M179 170.2C179 170.2 179.4 166.9 177.5 162.2C175.6 157.5 175.1 155.2 175.1 155.2C175.1 155.2 175 161.6 176.3 164C177.5 166.3 179 170.2 179 170.2Z" fill="#50CC85"/>
<path d="M179.4 167.8C179.4 167.8 181.9 166.1 184.3 165.8C186.7 165.5 187.3 165.1 187.3 165.1C187.3 165.1 186.1 167.3 183.2 167.7C180.2 168.1 179.4 167.8 179.4 167.8Z" fill="#50CC85"/>
<path d="M177.8 173.3C178.3 171.2 179 168 179.7 165.9C181.3 161.2 185 155 185 155C182.7 160 181.1 162.9 179.9 167.2C179.4 168.9 178.7 171.3 178.2 172.9C178.2 173.4 177.8 173.7 177.8 173.3Z" fill="#50CC85"/>
<path d="M178.901 164.9C178.901 164.9 178.701 160.6 177.001 156.2C175.401 151.9 173.101 144.8 173.101 144.8C173.101 144.8 173.801 149.5 175.001 155C176.201 160.5 178.901 164.9 178.901 164.9Z" fill="#77E6A6"/>
<path d="M178.2 157.3C178.2 157.3 175.9 153.8 175.8 148C175.7 142.2 175.4 137.7 175.4 137.7C175.4 137.7 177.4 144.9 177.8 149.4C178.2 154 178.2 157.3 178.2 157.3Z" fill="#77E6A6"/>
<path d="M178.9 164.1C178.9 164.1 179.3 157.6 180.6 152.8C181.9 148 183 145 183 145C183 145 182.1 154.3 181.5 158.1C180.8 162 178.9 164.1 178.9 164.1Z" fill="#77E6A6"/>
<path d="M179 168.5C179 168.5 180.6 162.2 184.2 157.4C187.8 152.5 189.1 149.1 189.1 149.1C189.1 149.1 188 155.1 185.3 159.7C182.5 164.2 179 168.5 179 168.5Z" fill="#77E6A6"/>
<path d="M178.9 167C178.9 167 175.8 161.8 174 160.2C172.1 158.6 169.9 155 169.9 155C169.9 155 172 161.1 173.8 162.8C175.6 164.4 178.9 167 178.9 167Z" fill="#77E6A6"/>
<path d="M178.601 172.7C178.601 172.7 179.301 169.2 182.901 165.2C186.501 161.2 187.701 159 187.701 159C187.701 159 185.601 165.4 183.501 167.4C181.401 169.3 178.601 172.7 178.601 172.7Z" fill="#77E6A6"/>
<path d="M179.101 170.1C179.101 170.1 177.201 167.6 174.901 166.4C172.601 165.2 172.101 164.7 172.101 164.7C172.101 164.7 172.501 167.3 175.401 168.7C178.201 170.1 179.101 170.1 179.101 170.1Z" fill="#77E6A6"/>
<path d="M178.8 176.3C179 174 179.4 170.6 179.4 168.1C179.5 162.8 177.8 155.4 177.8 155.4C178.3 161.3 179 164.7 178.7 169.5C178.6 171.4 178.5 174.1 178.4 175.8C178.3 176.2 178.5 176.6 178.8 176.3Z" fill="#50CC85"/>
<path d="M175.6 165.8C175.6 165.8 174.1 162 171.3 158.7C168.5 155.3 164.3 149.8 164.3 149.8C164.3 149.8 166.3 153.8 169.1 158.3C171.9 162.7 175.6 165.8 175.6 165.8Z" fill="#50CC85"/>
<path d="M172.7 159.2C172.7 159.2 169.6 156.8 167.8 151.6C165.9 146.5 164.3 142.5 164.3 142.5C164.3 142.5 168.3 148.2 170 152.2C171.7 156.3 172.7 159.2 172.7 159.2Z" fill="#50CC85"/>
<path d="M175.4 165.1C175.4 165.1 173.8 159.2 173.5 154.5C173.2 149.8 173.2 146.9 173.2 146.9C173.2 146.9 175.2 155.4 175.9 159C176.4 162.6 175.4 165.1 175.4 165.1Z" fill="#50CC85"/>
<path d="M176.801 169C176.801 169 176.301 162.9 178.001 157.5C179.701 152.1 179.801 148.6 179.801 148.6C179.801 148.6 180.601 154.3 179.601 159.2C178.601 164.1 176.801 169 176.801 169Z" fill="#50CC85"/>
<path d="M176.3 167.6C176.3 167.6 172 163.9 169.8 163.1C167.6 162.2 164.6 159.7 164.6 159.7C164.6 159.7 168.3 164.5 170.4 165.4C172.5 166.4 176.3 167.6 176.3 167.6Z" fill="#50CC85"/>
<path d="M177.8 172.8C177.8 172.8 177.4 169.5 179.3 164.8C181.2 160.1 181.7 157.8 181.7 157.8C181.7 157.8 181.8 164.2 180.5 166.6C179.2 168.9 177.8 172.8 177.8 172.8Z" fill="#50CC85"/>
<path d="M177.4 170.4C177.4 170.4 174.9 168.7 172.5 168.4C170.1 168.1 169.5 167.7 169.5 167.7C169.5 167.7 170.7 169.9 173.6 170.3C176.6 170.7 177.4 170.4 177.4 170.4Z" fill="#50CC85"/>
<path d="M179 175.9C178.5 173.8 177.8 170.6 177.1 168.5C175.5 163.8 171.8 157.6 171.8 157.6C174.1 162.6 175.7 165.5 176.9 169.8C177.4 171.5 178.1 173.9 178.6 175.5C178.6 176 178.9 176.3 179 175.9Z" fill="#50CC85"/>
<path d="M184.4 190.5H172.8L169.2 169.9H188.5L184.4 190.5Z" fill="#D2DCEB"/>
<path d="M317.7 196.1L337 316.4H340.7L325.5 196.1H317.7Z" fill="#DCA86E"/>
<path d="M185.1 196.2L160 316.6H155L174.7 196.2H185.1Z" fill="#DCA86E"/>
<path d="M352.6 189.1H145.6V198.4H352.6V189.1Z" fill="#DCA86E"/>
<path d="M362.6 189.1H135.7V195.3H362.6V189.1Z" fill="#F3BA7A"/>
<path d="M299.201 185.8H291.1L283 134.4H289.201L299.201 185.8Z" fill="#A6AEBA"/>
<path d="M296.8 185.8H265.4L257.4 134.4H288.8L296.8 185.8Z" fill="#D2DCEB"/>
<path d="M299.201 184.7H265V188.5H299.201V184.7Z" fill="#D2DCEB"/>
<path d="M342.3 184.7H299.2V188.5H342.3V184.7Z" fill="#A6AEBA"/>
<path d="M279.6 162.6C280.5 166.5 279.901 170.8 278.201 172.1C276.501 173.4 274.4 171.3 273.5 167.3C272.6 163.4 273.2 159.1 274.9 157.8C276.6 156.6 278.7 158.7 279.6 162.6Z" fill="#A6AEBA"/>
<path d="M230.7 188.3H226.2C224.4 188.3 222.8 187 222.5 185.1L220.7 173.6H236.1L234.3 185.1C234.1 187 232.5 188.3 230.7 188.3Z" fill="#A6AEBA"/>
<path d="M234.8 185.9C234.6 185.9 234.5 185.9 234.3 185.9H234.1L233.9 185.8C233.8 185.7 231.2 183.7 231.2 180.8C231.2 177.8 233.2 175.4 235.6 175.4C237.1 175.4 238.4 176 239.2 176.9C239.8 177.6 240.4 178.9 240 180.9C239.5 184 237.6 185.9 234.8 185.9ZM234.7 184.5C237.5 184.6 238.4 182.4 238.7 180.6C238.9 179.4 238.7 178.4 238.2 177.7C237.7 177 236.7 176.7 235.7 176.7C234 176.7 232.7 178.5 232.7 180.7C232.6 182.5 234.2 184 234.7 184.5Z" fill="#A6AEBA"/>
<path d="M219.2 189.3H238.7L241.9 185.9H216.1L219.2 189.3Z" fill="#D2DCEB"/>
<path d="M115.8 114.3H22.3999V316.3H115.8V114.3Z" fill="#B6BFCC"/>
<path d="M105 123.2H33.1001V144.4H105V123.2Z" fill="#D2DCEB"/>
<path d="M77.6997 136.3H60.4997C60.0997 136.3 59.6997 135.9 59.6997 135.5V132C59.6997 131.6 60.0997 131.2 60.4997 131.2H77.6997C78.0997 131.2 78.4997 131.6 78.4997 132V135.5C78.4997 136 78.0997 136.3 77.6997 136.3Z" fill="white"/>
<path d="M105 150.1H33.1001V171.3H105V150.1Z" fill="#D2DCEB"/>
<path d="M77.6997 163.3H60.4997C60.0997 163.3 59.6997 162.9 59.6997 162.5V159C59.6997 158.6 60.0997 158.2 60.4997 158.2H77.6997C78.0997 158.2 78.4997 158.6 78.4997 159V162.5C78.4997 162.9 78.0997 163.3 77.6997 163.3Z" fill="white"/>
<path d="M105 177.1H33.1001V198.3H105V177.1Z" fill="#D2DCEB"/>
<path d="M77.6997 190.2H60.4997C60.0997 190.2 59.6997 189.8 59.6997 189.4V185.9C59.6997 185.5 60.0997 185.1 60.4997 185.1H77.6997C78.0997 185.1 78.4997 185.5 78.4997 185.9V189.4C78.4997 189.9 78.0997 190.2 77.6997 190.2Z" fill="white"/>
<path d="M105 204.3H33.1001V308.1H105V204.3Z" fill="#D2DCEB"/>
<path d="M77.6997 217.5H60.4997C60.0997 217.5 59.6997 217.1 59.6997 216.7V213.2C59.6997 212.8 60.0997 212.4 60.4997 212.4H77.6997C78.0997 212.4 78.4997 212.8 78.4997 213.2V216.7C78.4997 217.1 78.0997 217.5 77.6997 217.5Z" fill="white"/>
</g>
<defs>
<linearGradient id="paint0_linear" x1="276.035" y1="292.083" x2="299.321" y2="309.179" gradientUnits="userSpaceOnUse">
<stop stop-color="#343A44"/>
<stop offset="0.3009" stop-color="#232D3E"/>
<stop offset="0.6391" stop-color="#182439"/>
<stop offset="1" stop-color="#142138"/>
</linearGradient>
<linearGradient id="paint1_linear" x1="315.303" y1="303.585" x2="344.191" y2="303.585" gradientUnits="userSpaceOnUse">
<stop stop-color="#343A44"/>
<stop offset="0.3009" stop-color="#232D3E"/>
<stop offset="0.6391" stop-color="#182439"/>
<stop offset="1" stop-color="#142138"/>
</linearGradient>
<linearGradient id="paint2_linear" x1="478.432" y1="172.389" x2="457.845" y2="148.794" gradientUnits="userSpaceOnUse">
<stop stop-color="#343A44"/>
<stop offset="0.3009" stop-color="#232D3E"/>
<stop offset="0.6391" stop-color="#182439"/>
<stop offset="1" stop-color="#142138"/>
</linearGradient>
<linearGradient id="paint3_linear" x1="369.07" y1="213.473" x2="464.845" y2="213.473" gradientUnits="userSpaceOnUse">
<stop stop-color="#343A44"/>
<stop offset="0.3009" stop-color="#232D3E"/>
<stop offset="0.6391" stop-color="#182439"/>
<stop offset="1" stop-color="#142138"/>
</linearGradient>
<clipPath id="clip0">
<rect width="498.3" height="316.6" fill="white"/>
</clipPath>
</defs>
</svg>
