<svg width="136" height="136" viewBox="0 0 136 136" fill="none" xmlns="http://www.w3.org/2000/svg">
<path d="M2.125 27.625H116.875V112.625H2.125V27.625Z" fill="#EAEAEA"/>
<path d="M93.7274 112.625L116.875 89.4774V29.75H110.955L28.0797 112.625H93.7274ZM2.73275 112.625H20.4914L103.366 29.75H85.6078L2.73275 112.625ZM2.125 105.642L78.0173 29.75H69.5938L2.12501 97.2188L2.125 105.642Z" fill="#EAEAEA"/>
<path d="M112.625 27.625H6.375C4.02687 27.625 2.125 25.7231 2.125 23.375V19.125C2.125 16.7769 4.02687 14.875 6.375 14.875H112.625C114.973 14.875 116.875 16.7769 116.875 19.125V23.375C116.875 25.7231 114.973 27.625 112.625 27.625Z" fill="#03327A"/>
<path d="M133.875 99.875C133.875 113.964 122.464 125.375 108.375 125.375C94.2862 125.375 82.875 113.964 82.875 99.875C82.875 93.245 85.3825 87.2312 89.505 82.705C94.18 77.5837 100.895 74.375 108.375 74.375C122.464 74.375 133.875 85.7862 133.875 99.875Z" fill="#1387DE"/>
<path d="M108.375 74.375V99.875L89.5054 82.705C94.1804 77.5837 100.895 74.375 108.375 74.375Z" fill="#E87022"/>
<path d="M34 97.75C32.827 97.75 31.875 98.6999 31.875 99.875V104.125C31.875 105.3 32.827 106.25 34 106.25C35.173 106.25 36.125 105.3 36.125 104.125V99.875C36.125 98.6999 35.173 97.75 34 97.75ZM23.375 97.75C22.202 97.75 21.25 98.6999 21.25 99.875V104.125C21.25 105.3 22.202 106.25 23.375 106.25C24.548 106.25 25.5 105.3 25.5 104.125V99.875C25.5 98.6999 24.548 97.75 23.375 97.75ZM12.75 97.75C11.577 97.75 10.625 98.6999 10.625 99.875V104.125C10.625 105.3 11.577 106.25 12.75 106.25C13.923 106.25 14.875 105.3 14.875 104.125V99.875C14.875 98.6999 13.923 97.75 12.75 97.75ZM44.625 97.75C43.452 97.75 42.5 98.6999 42.5 99.875V104.125C42.5 105.3 43.452 106.25 44.625 106.25C45.798 106.25 46.75 105.3 46.75 104.125V99.875C46.75 98.6999 45.798 97.75 44.625 97.75ZM55.25 97.75C54.077 97.75 53.125 98.6999 53.125 99.875V104.125C53.125 105.3 54.077 106.25 55.25 106.25C56.423 106.25 57.375 105.3 57.375 104.125V99.875C57.375 98.6999 56.423 97.75 55.25 97.75ZM65.875 97.75C64.702 97.75 63.75 98.6999 63.75 99.875V104.125C63.75 105.3 64.702 106.25 65.875 106.25C67.048 106.25 68 105.3 68 104.125V99.875C68 98.6999 67.048 97.75 65.875 97.75ZM76.5 97.75C75.327 97.75 74.375 98.6999 74.375 99.875V104.125C74.375 105.3 75.327 106.25 76.5 106.25C77.673 106.25 78.625 105.3 78.625 104.125V99.875C78.625 98.6999 77.673 97.75 76.5 97.75ZM40.375 46.75H48.875C50.048 46.75 51 45.8001 51 44.625C51 43.4499 50.048 42.5 48.875 42.5H40.375C39.202 42.5 38.25 43.4499 38.25 44.625C38.25 45.8001 39.202 46.75 40.375 46.75ZM91.375 42.5H57.375C56.202 42.5 55.25 43.4499 55.25 44.625C55.25 45.8001 56.202 46.75 57.375 46.75H91.375C92.548 46.75 93.5 45.8001 93.5 44.625C93.5 43.4499 92.548 42.5 91.375 42.5ZM91.375 59.5H40.375C39.202 59.5 38.25 60.4499 38.25 61.625C38.25 62.8001 39.202 63.75 40.375 63.75H91.375C92.548 63.75 93.5 62.8001 93.5 61.625C93.5 60.4499 92.548 59.5 91.375 59.5ZM76.5 78.625C76.5 77.4499 75.548 76.5 74.375 76.5H40.375C39.202 76.5 38.25 77.4499 38.25 78.625C38.25 79.8001 39.202 80.75 40.375 80.75H74.375C75.548 80.75 76.5 79.8001 76.5 78.625ZM21.8726 50.3774C22.287 50.7917 22.831 51 23.375 51C23.919 51 24.463 50.7917 24.8774 50.3774L33.3774 41.8774C34.2082 41.0465 34.2082 39.7035 33.3774 38.8726C32.5465 38.0417 31.2035 38.0417 30.3726 38.8726L23.375 45.8702L20.6274 43.1226C19.7965 42.2917 18.4535 42.2917 17.6226 43.1226C16.7917 43.9535 16.7917 45.2965 17.6226 46.1274L21.8726 50.3774ZM21.8726 67.3774C22.287 67.7917 22.831 68 23.375 68C23.919 68 24.463 67.7917 24.8774 67.3774L33.3774 58.8774C34.2082 58.0465 34.2082 56.7035 33.3774 55.8726C32.5465 55.0417 31.2035 55.0417 30.3726 55.8726L23.375 62.8702L20.6274 60.1226C19.7965 59.2917 18.4535 59.2917 17.6226 60.1226C16.7917 60.9535 16.7917 62.2965 17.6226 63.1274L21.8726 67.3774ZM23.375 85C23.919 85 24.463 84.7917 24.8774 84.3774L33.3774 75.8774C34.2082 75.0465 34.2082 73.7035 33.3774 72.8726C32.5465 72.0417 31.2035 72.0417 30.3726 72.8726L23.375 79.8702L20.6274 77.1226C19.7965 76.2917 18.4535 76.2917 17.6226 77.1226C16.7917 77.9535 16.7917 79.2965 17.6226 80.1274L21.8726 84.3774C22.287 84.7917 22.831 85 23.375 85H23.375Z" fill="#333333"/>
<path d="M119 74.375V19.125C119 15.6188 116.131 12.75 112.625 12.75H6.375C2.86875 12.75 0 15.6188 0 19.125V108.375C0 111.881 2.86875 114.75 6.375 114.75H85.1063C90.015 122.421 98.6 127.5 108.375 127.5C123.611 127.5 136 115.111 136 99.875C136 88.4 128.966 78.54 119 74.375H119ZM4.25 19.125C4.25 17.9562 5.20625 17 6.375 17H112.625C113.794 17 114.75 17.9562 114.75 19.125V25.5H4.25V19.125ZM108.375 123.25C101.129 123.25 94.6263 119.935 90.3337 114.75C89.25 113.433 88.315 112.009 87.55 110.5C85.9137 107.312 85 103.7 85 99.875C85 94.3415 86.9083 89.114 90.4124 84.9193L104.282 98.7891C104.191 99.1376 104.125 99.4968 104.125 99.875C104.125 102.219 106.031 104.125 108.375 104.125C110.719 104.125 112.625 102.219 112.625 99.875C112.625 97.5311 110.719 95.625 108.375 95.625C107.997 95.625 107.638 95.6909 107.289 95.7823L92.3631 80.8563C92.2675 80.7606 92.1485 80.716 92.0423 80.6438C91.9721 80.546 91.9318 80.4334 91.8446 80.3441C91.0159 79.5154 89.6771 79.5154 88.8484 80.3441C83.6188 85.5525 80.75 92.5013 80.75 99.875C80.75 103.636 81.515 107.228 82.875 110.5H6.37501C5.20626 110.5 4.25001 109.544 4.25001 108.375V29.75H114.75V72.9938C112.71 72.505 110.564 72.25 108.375 72.25C107.206 72.25 106.25 73.2063 106.25 74.375V82.875C106.25 84.0438 107.206 85 108.375 85C109.544 85 110.5 84.0438 110.5 82.875V76.585C111.966 76.7125 113.369 76.9888 114.75 77.3713C116.238 77.7963 117.661 78.37 119 79.05C126.565 82.9388 131.75 90.8013 131.75 99.875C131.75 112.774 121.274 123.25 108.375 123.25L108.375 123.25Z" fill="#333333"/>
</svg>
