<svg width="117" height="117" viewBox="0 0 117 117" fill="none" xmlns="http://www.w3.org/2000/svg">
<path d="M76.7813 111.516H36.5625C34.5424 111.516 32.9062 109.879 32.9062 107.859C32.9062 105.839 34.5424 104.203 36.5625 104.203H76.7813C78.8013 104.203 80.4375 105.839 80.4375 107.859C80.4375 109.879 78.8013 111.516 76.7813 111.516Z" fill="#ECF0F1"/>
<path d="M47.5313 111.516H36.5625C34.5424 111.516 32.9062 109.879 32.9062 107.859C32.9062 105.839 34.5424 104.203 36.5625 104.203H47.5313V111.516Z" fill="#ECF0F1"/>
<path d="M76.7813 111.516H65.8125V104.203H76.7813C78.8013 104.203 80.4375 105.839 80.4375 107.859C80.4375 109.879 78.8013 111.516 76.7813 111.516Z" fill="#ECF0F1"/>
<path d="M95.0625 56.6719H18.2813C16.2612 56.6719 14.625 55.0357 14.625 53.0156C14.625 50.9955 16.2612 49.3594 18.2813 49.3594H95.0625C97.0826 49.3594 98.7188 50.9955 98.7188 53.0156C98.7188 55.0357 97.0826 56.6719 95.0625 56.6719Z" fill="#DCD3C7"/>
<path d="M79.4101 5.48438H33.9337C32.2554 5.48438 30.7929 6.62695 30.3871 8.25398L20.1094 49.3594H93.2344L82.9585 8.25398C82.5508 6.62695 81.0883 5.48438 79.4101 5.48438V5.48438Z" fill="#DCD3C7"/>
<path d="M43.875 5.48438L38.3906 49.3594H20.1094L30.3834 8.24485C30.7856 6.61781 32.2481 5.48438 33.93 5.48438H43.875Z" fill="#DCD3C7"/>
<path d="M67.6406 5.48438L73.125 49.3594H85.9219L75.6478 8.24485C75.2456 6.61782 73.7831 5.48438 72.1013 5.48438L67.6406 5.48438Z" fill="#DCD3C7"/>
<path d="M83.5089 87.75C83.1799 92.4666 81.3335 97.0552 78.0246 100.766L74.9533 104.203H38.3908L35.3196 100.766C32.0107 97.0552 30.1642 92.4666 29.8352 87.75C29.4878 82.8323 30.7858 77.7867 33.8022 73.5272L41.8277 62.1563L45.7033 56.6719H67.6408L71.5164 62.1563L79.5419 73.5272C82.5583 77.7867 83.8563 82.8323 83.5089 87.75H83.5089Z" fill="#E67E22"/>
<path d="M76.5106 87.75C80.4246 87.75 83.2052 91.7865 81.5745 95.344C80.686 97.2818 79.4996 99.1118 78.0243 100.766L74.953 104.203H38.3905L35.3193 100.766C33.844 99.1118 32.6594 97.2818 31.7691 95.344C30.1384 91.7865 32.9208 87.75 36.833 87.75H76.5106ZM71.5161 62.1563H41.8274L45.703 56.6719H67.6405L71.5161 62.1563Z" fill="#E67E22"/>
<path d="M95.0625 47.5312H94.6621L84.7318 7.80975C84.1212 5.36555 81.9329 3.65625 79.4101 3.65625H33.9337C31.4127 3.65625 29.2244 5.36555 28.612 7.80975L18.6816 47.5312H18.2813C15.2575 47.5312 12.7969 49.9919 12.7969 53.0156C12.7969 56.0393 15.2575 58.5 18.2813 58.5H42.1749L32.3085 72.4778C25.9064 81.5472 26.5864 93.6749 33.9611 101.973L34.643 102.741C32.5662 103.521 31.0781 105.512 31.0781 107.859C31.0781 110.883 33.5388 113.344 36.5625 113.344H76.7813C79.805 113.344 82.2656 110.883 82.2656 107.859C82.2656 105.512 80.7775 103.521 78.7008 102.741L79.3827 101.973C86.7573 93.675 87.4374 81.5472 81.0353 72.4778L71.1689 58.5H95.0625C98.0862 58.5 100.547 56.0393 100.547 53.0156C100.547 49.9919 98.0862 47.5313 95.0625 47.5313L95.0625 47.5312ZM30.696 14.5482C30.824 14.5756 30.9428 14.625 31.0781 14.625H62.1562C63.1654 14.625 63.9844 13.806 63.9844 12.7969C63.9844 11.7877 63.1654 10.9687 62.1562 10.9687H31.5918L32.1604 8.69822C32.3633 7.88287 33.0927 7.3125 33.9337 7.3125H79.4119C80.2529 7.3125 80.9823 7.88287 81.1852 8.69822L90.8926 47.5312H22.4512L30.696 14.5482ZM76.7812 106.031C77.7885 106.031 78.6094 106.852 78.6094 107.859C78.6094 108.867 77.7885 109.687 76.7812 109.687H36.5625C35.5552 109.687 34.7344 108.867 34.7344 107.859C34.7344 106.852 35.5552 106.031 36.5625 106.031H37.5698H75.774H76.7812ZM78.0481 74.5857C83.4649 82.2601 82.889 92.5232 76.6478 99.5414L74.1323 102.375H39.2114L36.6941 99.5432C30.4529 92.5232 29.877 82.2601 35.2938 74.5875L46.6501 58.5H66.6937L78.0481 74.5857ZM95.0625 54.8437H68.5876H44.7562H18.2813C17.274 54.8437 16.4531 54.0229 16.4531 53.0156C16.4531 52.0083 17.274 51.1875 18.2813 51.1875H95.0625C96.0698 51.1875 96.8906 52.0083 96.8906 53.0156C96.8906 54.0229 96.0698 54.8437 95.0625 54.8437H95.0625Z" fill="#333333"/>
<path d="M76.7813 10.9688H69.4688C68.4596 10.9688 67.6406 11.7878 67.6406 12.7969C67.6406 13.806 68.4596 14.625 69.4688 14.625H76.7813C77.7904 14.625 78.6094 13.806 78.6094 12.7969C78.6094 11.7878 77.7904 10.9688 76.7813 10.9688ZM38.3906 84.0938C37.3815 84.0938 36.5625 84.9128 36.5625 85.9219V89.5781C36.5625 90.5873 37.3815 91.4063 38.3906 91.4063C39.3998 91.4063 40.2188 90.5873 40.2188 89.5781V85.9219C40.2188 84.9128 39.3998 84.0938 38.3906 84.0938ZM56.6719 91.4063C57.681 91.4063 58.5 90.5873 58.5 89.5781V85.9219C58.5 84.9128 57.681 84.0938 56.6719 84.0938C55.6628 84.0938 54.8438 84.9128 54.8438 85.9219V89.5781C54.8438 90.5873 55.6628 91.4063 56.6719 91.4063ZM45.7031 85.9219V89.5781C45.7031 90.5873 46.5221 91.4063 47.5313 91.4063C48.5404 91.4063 49.3594 90.5873 49.3594 89.5781V85.9219C49.3594 84.9128 48.5404 84.0938 47.5313 84.0938C46.5221 84.0938 45.7031 84.9128 45.7031 85.9219ZM65.8125 91.4063C66.8216 91.4063 67.6406 90.5873 67.6406 89.5781V85.9219C67.6406 84.9128 66.8216 84.0938 65.8125 84.0938C64.8034 84.0938 63.9844 84.9128 63.9844 85.9219V89.5781C63.9844 90.5873 64.8034 91.4063 65.8125 91.4063ZM74.9531 91.4063C75.9623 91.4063 76.7813 90.5873 76.7813 89.5781V85.9219C76.7813 84.9128 75.9623 84.0938 74.9531 84.0938C73.944 84.0938 73.125 84.9128 73.125 85.9219V89.5781C73.125 90.5873 73.944 91.4063 74.9531 91.4063Z" fill="#333333"/>
</svg>
