<svg width="117" height="117" viewBox="0 0 117 117" fill="none" xmlns="http://www.w3.org/2000/svg">
<g clip-path="url(#clip0)">
<path d="M98.5475 103.159L81.4509 78.6094H87.6373C89.1638 78.6094 90.0175 76.8489 89.0724 75.6496L71.239 53.0156H78.2627C79.8294 53.0156 80.6703 51.1747 79.6447 49.9901L58.4988 25.5938L37.3565 49.9901C36.331 51.1747 37.1719 53.0156 38.7386 53.0156H45.68L27.9143 75.6533C26.9728 76.8525 27.8284 78.6094 29.353 78.6094H35.4717L18.4446 103.161C17.6037 104.373 18.4702 106.031 19.9455 106.031H97.0467C98.5238 106.031 99.3903 104.371 98.5475 103.159H98.5475Z" fill="#2ECC71"/>
<path d="M20.2578 106.031H96.7448C98.2786 106.031 99.1305 104.258 98.1725 103.061L93.2348 96.8906H23.766L18.8301 103.061C17.8721 104.258 18.724 106.031 20.2578 106.031V106.031Z" fill="#2ECC71"/>
<path d="M69.4688 115.172H47.5313C46.5221 115.172 45.7031 114.353 45.7031 113.344V106.031H71.2969V113.344C71.2969 114.353 70.4779 115.172 69.4688 115.172Z" fill="#E0D3C6"/>
<path d="M71.2805 11.5537C71.2293 11.391 71.0904 11.274 70.9295 11.2576L62.1326 10.4166L58.895 2.09499C58.8054 1.87379 58.5623 1.77141 58.352 1.86465C58.2533 1.90853 58.1747 1.99079 58.1327 2.09499L54.895 10.4166L46.0762 11.2539C45.8495 11.2777 45.6831 11.4897 45.7051 11.7292C45.716 11.8389 45.7654 11.9394 45.8422 12.0126L52.4801 18.1149L49.4381 26.899C49.3924 27.1348 49.535 27.3633 49.758 27.4127C49.8586 27.4346 49.9646 27.4164 50.0542 27.3615L58.4891 22.5261L67.0155 27.3597C67.2111 27.4822 67.4652 27.4145 67.5822 27.208C67.6353 27.1147 67.6517 27.0032 67.6316 26.8972L64.4964 18.1149L71.1343 12.0126C71.2677 11.9029 71.3244 11.7219 71.2805 11.5537V11.5537Z" fill="#E87022"/>
<path d="M71.2805 11.5537C71.2293 11.391 71.0904 11.274 70.9295 11.2576L62.1326 10.4166L58.895 2.09499C58.8054 1.87379 58.5623 1.77141 58.352 1.86465C58.2533 1.90853 58.1747 1.99079 58.1327 2.09499L54.895 10.4166L46.0762 11.2539C45.8495 11.2777 45.6831 11.4897 45.7051 11.7292C45.716 11.8389 45.7654 11.9394 45.8422 12.0126L52.4801 18.1149L49.4381 26.899C49.3924 27.1348 49.535 27.3633 49.758 27.4127C49.8586 27.4346 49.9646 27.4164 50.0542 27.3615L58.4891 22.5261L67.0155 27.3597C67.2111 27.4822 67.4652 27.4145 67.5822 27.208C67.6353 27.1147 67.6517 27.0032 67.6316 26.8972L64.4964 18.1149L71.1343 12.0126C71.2677 11.9029 71.3244 11.7219 71.2805 11.5537V11.5537Z" fill="#E87022"/>
<path d="M52.1016 60.3281L54.2953 64.5328L58.5 66.7266L54.2953 68.9203L52.1016 73.125L49.9078 68.9203L45.7031 66.7266L49.9078 64.5328L52.1016 60.3281Z" fill="#FFF8F8"/>
<path d="M31.0781 93.2344C30.069 93.2344 29.25 94.0534 29.25 95.0625V98.7188C29.25 99.7279 30.069 100.547 31.0781 100.547C32.0873 100.547 32.9063 99.7279 32.9063 98.7188V95.0625C32.9063 94.0534 32.0873 93.2344 31.0781 93.2344ZM40.2188 93.2344C39.2096 93.2344 38.3906 94.0534 38.3906 95.0625V98.7188C38.3906 99.7279 39.2096 100.547 40.2188 100.547C41.2279 100.547 42.0469 99.7279 42.0469 98.7188V95.0625C42.0469 94.0534 41.2279 93.2344 40.2188 93.2344ZM49.3594 93.2344C48.3503 93.2344 47.5313 94.0534 47.5313 95.0625V98.7188C47.5313 99.7279 48.3503 100.547 49.3594 100.547C50.3685 100.547 51.1875 99.7279 51.1875 98.7188V95.0625C51.1875 94.0534 50.3685 93.2344 49.3594 93.2344ZM58.5 93.2344C57.4909 93.2344 56.6719 94.0534 56.6719 95.0625V98.7188C56.6719 99.7279 57.4909 100.547 58.5 100.547C59.5091 100.547 60.3281 99.7279 60.3281 98.7188V95.0625C60.3281 94.0534 59.5091 93.2344 58.5 93.2344ZM67.6406 93.2344C66.6315 93.2344 65.8125 94.0534 65.8125 95.0625V98.7188C65.8125 99.7279 66.6315 100.547 67.6406 100.547C68.6498 100.547 69.4688 99.7279 69.4688 98.7188V95.0625C69.4688 94.0534 68.6498 93.2344 67.6406 93.2344ZM76.7813 93.2344C75.7721 93.2344 74.9531 94.0534 74.9531 95.0625V98.7188C74.9531 99.7279 75.7721 100.547 76.7813 100.547C77.7904 100.547 78.6094 99.7279 78.6094 98.7188V95.0625C78.6094 94.0534 77.7904 93.2344 76.7813 93.2344ZM87.75 95.0625C87.75 94.0534 86.931 93.2344 85.9219 93.2344C84.9128 93.2344 84.0938 94.0534 84.0938 95.0625V98.7188C84.0938 99.7279 84.9128 100.547 85.9219 100.547C86.931 100.547 87.75 99.7279 87.75 98.7188V95.0625Z" fill="#333333"/>
<path d="M71.136 12.0181L64.4981 18.1113L67.6388 26.8899C67.6553 27.0014 67.6388 27.1129 67.5913 27.2098C67.4633 27.4182 67.2074 27.4822 67.0154 27.3543L58.5 22.5426V1.82997C58.659 1.81352 58.8199 1.92504 58.9004 2.10237L62.1307 10.4185L70.9276 11.2503C71.0866 11.2668 71.2311 11.3947 71.2786 11.5538C71.3279 11.7293 71.264 11.9066 71.136 12.0181V12.0181Z" fill="#E87022"/>
<path d="M71.4084 82.2656L72.5162 84.7025L74.9531 86.0334L72.5162 87.1412L71.4084 89.5781L70.0775 87.1412L67.6406 86.0334L70.0775 84.7025L71.4084 82.2656ZM61.2422 40.2188L62.957 43.2662L65.8125 44.7891L62.957 46.5038L61.2422 49.3594L59.7194 46.5038L56.6719 44.7891L59.7194 43.2662L61.2422 40.2188Z" fill="#FFF8F8"/>
<path d="M99.8912 102.115L84.8567 80.4369H87.7378C89.1565 80.4369 90.4234 79.6435 91.0413 78.3693C91.6555 77.0988 91.4928 75.6217 90.6153 74.5138L75.0196 54.8432H78.5771C80.0506 54.8432 81.3376 54.015 81.9408 52.6823C82.535 51.3643 82.3101 49.8689 81.354 48.7829L61.6669 26.425L66.0526 28.9094C66.5645 29.2293 67.1952 29.328 67.7802 29.1763C68.367 29.0264 68.8789 28.6352 69.1714 28.1123C69.4383 27.6462 69.5297 27.0959 69.4328 26.5621C69.4145 26.4652 69.3908 26.372 69.356 26.2787L66.6285 18.6372L72.2902 13.4288C72.9812 12.8676 73.2792 11.948 73.0507 11.0834C73.0434 11.0541 73.0342 11.0267 73.0251 10.9993C72.7545 10.1437 72.005 9.52944 71.1037 9.43621L63.4292 8.70313L60.5902 1.40708C60.3616 0.840367 59.9064 0.386992 59.3434 0.160304C58.7821 -0.0645535 58.1496 -0.0499285 57.6158 0.191384C57.0802 0.427214 56.6633 0.860481 56.4312 1.43086L53.6012 8.70131L45.8902 9.43256C44.6708 9.55687 43.7714 10.6629 43.8847 11.8877C43.9341 12.4471 44.1882 12.9645 44.6069 13.3539L50.3618 18.6463L47.711 26.297C47.6836 26.3756 47.6617 26.4579 47.6452 26.5402C47.4075 27.7431 48.179 28.9332 49.3636 29.1946C49.5282 29.2312 49.6945 29.2494 49.8554 29.2494C50.2594 29.2494 50.6488 29.1416 50.9632 28.9441L55.3014 26.4579L35.649 48.783C34.6911 49.8707 34.4662 51.3661 35.0622 52.6823C35.6655 54.0151 36.9543 54.8432 38.426 54.8432H41.8903L26.3841 74.5211C25.5103 75.6271 25.3494 77.1043 25.9655 78.373C26.5815 79.6454 27.8448 80.4369 29.2616 80.4369H32.0842L17.1045 102.122C16.3294 103.245 16.2417 104.696 16.876 105.905C17.5085 107.111 18.7462 107.859 20.1063 107.859H43.8756V113.343C43.8756 115.36 45.5154 116.999 47.5319 116.999H69.4694C71.4858 116.999 73.1256 115.36 73.1256 113.343V107.859H96.8949C98.255 107.859 99.4945 107.109 100.127 105.901C100.76 104.691 100.67 103.239 99.8912 102.115L99.8912 102.115ZM52.4112 23.9022L54.2082 18.7121C54.4458 18.0247 54.2539 17.2606 53.7183 16.7688L49.3783 12.7762L55.0692 12.2369C55.7566 12.1711 56.3508 11.7232 56.6012 11.0797L58.5153 6.16021L60.4293 11.0797C60.6798 11.725 61.2702 12.1711 61.9595 12.2369L67.6047 12.7762L63.2629 16.7688C62.7218 17.2661 62.5317 18.0375 62.7784 18.7304L64.6249 23.9003L59.3928 20.9351C58.8297 20.6189 58.1423 20.6189 57.5811 20.9388L52.4112 23.9022ZM47.5319 113.343V107.859H69.4694L69.473 113.343H47.5319ZM20.1137 104.199L36.5266 80.4369H51.1881C52.1973 80.4369 53.0163 79.6198 53.0163 78.6088C53.0163 77.5979 52.1973 76.7807 51.1881 76.7807L29.2543 76.7843L46.5447 54.8432H52.9285C53.9376 54.8432 54.7566 54.0242 54.7566 53.0151C54.7566 52.0059 53.9376 51.1869 52.9285 51.1869L38.3913 51.1979L58.4988 28.361L78.5771 51.1869H71.5004C71.2226 51.1869 70.9666 51.2582 70.7308 51.3698C70.5315 51.4356 70.3359 51.5215 70.1622 51.6604C69.3707 52.2875 69.2372 53.4374 69.8661 54.2289L87.736 76.7807H76.813C75.802 76.7807 74.9848 77.5979 74.9848 78.6088C74.9848 79.6198 75.802 80.437 76.813 80.437H80.4052L96.8931 104.203L20.1137 104.199Z" fill="#333333"/>
</g>
<defs>
<clipPath id="clip0">
<rect width="117" height="117" fill="white"/>
</clipPath>
</defs>
</svg>
