<svg width="140" height="140" viewBox="0 0 140 140" fill="none" xmlns="http://www.w3.org/2000/svg">
<g clip-path="url(#clip0)">
<path d="M66.7997 19.6874C54.8691 19.6874 42.1881 29.0062 42.1881 46.2809C42.1881 55.4574 45.2922 62.989 48.2912 70.2734C51.1787 77.2843 53.9066 83.9059 53.9066 91.9799C53.9066 96.3199 52.7778 99.7784 50.6341 101.977C48.9256 103.736 46.5434 104.702 43.9316 104.702C38.5766 104.702 32.8125 100.721 32.8125 91.9799V62.3437C32.8125 43.6756 18.7972 36.9009 9.37344 36.9009H2.31656C1.03687 36.9009 0 37.9465 0 39.2349V48.7353C0 50.0237 1.03687 51.0693 2.31656 51.0693H9.29031C12.1363 51.1481 18.7534 52.3993 18.7534 62.3459V91.9821C18.7534 109.451 31.7275 118.873 43.9359 118.873C50.3606 118.873 56.3084 116.397 60.6856 111.897C64.0106 108.478 67.9744 102.246 67.9744 91.9821C67.9744 81.0862 64.4197 72.4543 61.285 64.844C58.5856 58.2924 56.256 52.6356 56.256 46.2831C56.256 37.7453 61.7247 33.8581 66.8041 33.8581C69.4706 33.8581 71.9294 34.9365 73.7297 36.8943C76.0988 39.4712 77.35 43.5115 77.35 48.5734V76.0309C77.3719 87.5743 85.4416 99.9796 103.132 99.9796H114.284L104.895 109.441C103.766 110.578 103.766 112.426 104.895 113.564L110.744 119.459C111.307 120.026 112.048 120.312 112.79 120.312C113.531 120.312 114.271 120.026 114.835 119.457L139.153 94.9571C140.282 93.8196 140.282 91.9712 139.153 90.8337L114.835 66.3337C114.271 65.7649 113.529 65.4784 112.79 65.4784C112.048 65.4784 111.309 65.7627 110.744 66.3337L104.895 72.229C103.766 73.3665 103.766 75.2149 104.895 76.3524L114.284 85.8134H103.132C92.2557 85.8134 91.4135 78.2927 91.4135 75.9871V48.5777C91.4113 28.7284 78.6538 19.6874 66.7997 19.6874L66.7997 19.6874Z" fill="#2ECC71"/>
<path d="M66.7997 24.0624C76.8709 24.0624 87.0341 31.6421 87.0341 48.5734V75.9828C87.0341 82.5343 91.2494 90.184 103.127 90.184H114.279H124.786L117.386 82.7268L109.01 74.2874L112.787 70.4812L135.034 92.8943L112.787 115.307L109.01 111.501L117.386 103.062L124.786 95.6046H114.279H103.127C86.2575 95.6046 81.7337 83.2956 81.7206 76.0309V48.5734C81.7206 42.3915 80.0691 37.3296 76.9453 33.9325C74.3072 31.0625 70.7022 29.4809 66.7997 29.4809C59.3841 29.4809 51.8766 35.2515 51.8766 46.2809C51.8766 53.5062 54.4797 59.8215 57.2403 66.5175C60.3641 74.1081 63.5972 81.9546 63.5972 91.9821C63.5972 100.78 60.3072 106.008 57.5466 108.846C54.0006 112.49 49.1663 114.498 43.9338 114.498C38.7384 114.498 33.5781 112.424 29.7806 108.808C25.4275 104.665 23.1263 98.8465 23.1263 91.9821V62.3437C23.1263 51.0825 16.041 46.8759 9.40846 46.6943L9.3494 46.6922H9.28815H4.37502V41.2759H9.37564C15.9688 41.2759 28.4397 45.6793 28.4397 62.3437V91.98C28.4397 103.204 36.2338 109.077 43.9338 109.077C47.7422 109.077 51.2378 107.638 53.771 105.031C56.7241 102.001 58.2838 97.4881 58.2838 91.98C58.2838 83.044 55.2628 75.7093 52.3338 68.5956C49.3675 61.3921 46.5653 54.5868 46.5653 46.2787C46.5653 39.4931 48.8097 33.7443 53.0556 29.6559C56.7481 26.1012 61.7575 24.0625 66.7997 24.0625L66.7997 24.0624ZM66.7997 19.6874C54.8691 19.6874 42.1881 29.0062 42.1881 46.2809C42.1881 55.4574 45.2922 62.989 48.2912 70.2734C51.1787 77.2843 53.9066 83.9059 53.9066 91.9799C53.9066 96.3199 52.7778 99.7784 50.6341 101.977C48.9256 103.736 46.5434 104.702 43.9316 104.702C38.5766 104.702 32.8125 100.721 32.8125 91.9799V62.3437C32.8125 43.6756 18.7972 36.9009 9.37344 36.9009H2.31656C1.03687 36.9009 0 37.9465 0 39.2349V48.7353C0 50.0237 1.03687 51.0693 2.31656 51.0693H9.29031C12.1363 51.1481 18.7534 52.3993 18.7534 62.3459V91.9821C18.7534 109.449 31.7275 118.873 43.9359 118.873C50.3606 118.873 56.3084 116.397 60.6856 111.897C64.0106 108.478 67.9744 102.246 67.9744 91.9821C67.9744 81.0862 64.4197 72.4543 61.285 64.844C58.5856 58.2924 56.256 52.6356 56.256 46.2831C56.256 37.7453 61.7247 33.8581 66.8041 33.8581C69.4706 33.8581 71.9294 34.9365 73.7297 36.8943C76.0988 39.4712 77.35 43.5115 77.35 48.5734V76.0309C77.3719 87.5743 85.4416 99.9796 103.132 99.9796H114.284L104.895 109.441C103.766 110.578 103.766 112.426 104.895 113.564L110.744 119.459C111.307 120.026 112.048 120.312 112.79 120.312C113.531 120.312 114.271 120.026 114.835 119.457L139.153 94.9571C140.282 93.8196 140.282 91.9712 139.153 90.8337L114.835 66.3337C114.271 65.7649 113.529 65.4784 112.79 65.4784C112.048 65.4784 111.309 65.7627 110.744 66.3337L104.895 72.229C103.766 73.3665 103.766 75.2149 104.895 76.3524L114.284 85.8134H103.132C92.2557 85.8134 91.4135 78.2927 91.4135 75.9871V48.5777C91.4113 28.7284 78.6538 19.6874 66.7997 19.6874L66.7997 19.6874Z" fill="#333333"/>
<path d="M15.9752 118.615C15.3343 118.615 14.6999 118.337 14.269 117.797C13.5121 116.856 13.6631 115.478 14.6015 114.721L18.0118 111.98C18.9524 111.223 20.3327 111.372 21.0874 112.315C21.8443 113.256 21.6934 114.634 20.7549 115.391L17.3446 118.132C16.9399 118.458 16.4543 118.615 15.9752 118.615V118.615Z" fill="#333333"/>
<path d="M24.6201 126.363C24.2198 126.363 23.8173 126.254 23.4542 126.024C22.4326 125.379 22.1285 124.027 22.7717 123.008L25.1079 119.311C25.7532 118.289 27.1051 117.983 28.1267 118.63C29.1482 119.276 29.4523 120.628 28.8092 121.647L26.4729 125.344C26.0551 126.002 25.3464 126.363 24.6201 126.363V126.363Z" fill="#333333"/>
<path d="M35.2954 130.893C35.1204 130.893 34.9432 130.874 34.7638 130.828C33.5935 130.537 32.8804 129.349 33.1691 128.177L34.2257 123.933C34.5166 122.76 35.6913 122.039 36.8791 122.338C38.0494 122.629 38.7626 123.817 38.4738 124.989L37.4173 129.233C37.1679 130.228 36.2754 130.893 35.2954 130.893H35.2954Z" fill="#333333"/>
<path d="M46.8542 131.869C45.7255 131.869 44.7695 131.003 44.6755 129.861L44.3189 125.499C44.2205 124.296 45.1174 123.239 46.3227 123.141C47.517 123.045 48.5824 123.937 48.6808 125.143L49.0373 129.504C49.1358 130.708 48.2389 131.764 47.0336 131.863C46.9745 131.867 46.9133 131.869 46.8542 131.869Z" fill="#333333"/>
<path d="M58.1267 128.986C57.2889 128.986 56.4926 128.505 56.1295 127.693L54.3401 123.701C53.8435 122.598 54.3379 121.303 55.4404 120.809C56.5473 120.313 57.8401 120.809 58.3301 121.909L60.1195 125.902C60.616 127.004 60.1217 128.299 59.0192 128.793C58.7304 128.925 58.4264 128.986 58.1267 128.986H58.1267Z" fill="#333333"/>
<path d="M82.351 19.7006C81.9638 19.7006 81.5744 19.6 81.2179 19.3834C80.1854 18.7578 79.8551 17.4125 80.4807 16.3778L82.7469 12.6372C83.3747 11.6025 84.72 11.2744 85.7525 11.9C86.785 12.5256 87.1154 13.8709 86.4897 14.9056L84.2235 18.6463C83.81 19.3266 83.0882 19.7006 82.351 19.7006Z" fill="#333333"/>
<path d="M73.3424 16.0672C73.1849 16.0672 73.023 16.0497 72.8612 16.0147C71.6843 15.75 70.9427 14.5819 71.2074 13.4006L72.1655 9.13061C72.4302 7.95155 73.6071 7.20998 74.7774 7.47467C75.9565 7.73936 76.698 8.90748 76.4334 10.0865L75.4752 14.3565C75.2455 15.3759 74.3443 16.0672 73.3424 16.0672H73.3424Z" fill="#333333"/>
<path d="M63.6432 15.5006C62.5364 15.5006 61.5892 14.6672 61.471 13.5428L61.0117 9.19187C60.8826 7.99093 61.7554 6.9125 62.9564 6.78562C64.1661 6.66968 65.2358 7.52937 65.3626 8.7325L65.822 13.0834C65.9511 14.2844 65.0782 15.3628 63.8773 15.4897C63.7964 15.4962 63.7198 15.5006 63.6432 15.5006V15.5006Z" fill="#333333"/>
<path d="M54.2301 18.0163C53.3901 18.0163 52.5917 17.5328 52.2307 16.7169L50.4523 12.7203C49.9601 11.6178 50.4567 10.3228 51.5614 9.83281C52.666 9.345 53.9589 9.83718 54.4467 10.9419L56.2251 14.9384C56.7173 16.0409 56.2207 17.3359 55.116 17.8259C54.8273 17.955 54.5276 18.0162 54.2301 18.0162V18.0163Z" fill="#333333"/>
<path d="M46.0734 23.3428C45.4784 23.3428 44.8812 23.0999 44.4502 22.6209L41.5168 19.3746C40.7074 18.4778 40.7774 17.0953 41.6721 16.2837C42.5668 15.4743 43.9537 15.5421 44.763 16.4412L47.6987 19.6874C48.5081 20.5843 48.4381 21.9668 47.5434 22.7784C47.1234 23.1568 46.5984 23.3428 46.0734 23.3428Z" fill="#333333"/>
</g>
<defs>
<clipPath id="clip0">
<rect width="140" height="140" fill="white"/>
</clipPath>
</defs>
</svg>
