<svg width="42" height="48" viewBox="0 0 42 48" fill="none" xmlns="http://www.w3.org/2000/svg">
<path d="M6.24253 29.4639C6.24253 29.4639 5.97532 35.1637 6.20138 35.6226C6.20138 35.6226 6.4005 44.7683 20.178 45.5287C20.178 45.5287 28.9584 46.1188 33.0566 41.1285C33.0566 41.1285 35.5837 38.1826 35.4924 34.5759L35.6638 30.4298L21.2254 21.9888L6.24253 29.4639ZM24.8901 29.6219C25.1077 32.1659 22.7583 33.4454 22.7583 33.4454L23.8626 40.1599C23.9921 40.3371 24.2793 41.7782 20.6164 41.7853C17.0024 41.7843 17.2698 40.0535 17.2698 40.0535L18.8681 33.2913C16.725 31.8578 17.0835 29.7647 17.0835 29.7647C17.6776 25.7476 21.2984 26.0947 21.2984 26.0947C24.7885 26.5626 24.8901 29.6219 24.8901 29.6219Z" fill="#007CDA"/>
<path d="M41.038 25.1635L22.3225 14.5418C22.3225 14.5418 21.7155 14.035 20.8704 14.6289L1.80982 23.8806C1.80982 23.8806 0.720365 24.262 1.3145 25.327L2.9949 28.5388C2.9949 28.5388 3.48947 29.3168 4.1896 28.7973L21.2057 20.4885L38.2075 29.926C38.2075 29.926 38.817 30.1291 39.1602 29.6682L41.318 26.2296C41.3099 26.1804 41.6369 25.6211 41.038 25.1635Z" fill="#E77122"/>
<path d="M21.7374 2.19166C13.547 2.13145 6.82221 8.69469 6.76338 16.8045L6.75579 20.5205L13.3978 17.2211L13.3901 16.8612C13.4246 12.3669 17.1428 8.71783 21.6901 8.80335C26.229 8.83863 29.8645 12.5293 29.8807 17.0153L36.483 16.6117C36.3132 8.69385 29.7756 2.27663 21.7374 2.19166Z" fill="#007CDA"/>
</svg>
