<svg width="135" height="135" viewBox="0 0 135 135" fill="none" xmlns="http://www.w3.org/2000/svg">
<path d="M118.125 111.797H8.4375C4.94226 111.797 2.10938 108.964 2.10938 105.469V25.3125C2.10938 21.8173 4.94226 18.9844 8.4375 18.9844H118.125C121.62 18.9844 124.453 21.8173 124.453 25.3125V105.469C124.453 108.964 121.62 111.797 118.125 111.797Z" fill="#1387DE"/>
<path d="M118.125 65.3906H8.4375C4.94226 65.3906 2.10938 68.2235 2.10938 71.7188V105.469C2.10938 108.964 4.94226 111.797 8.4375 111.797H118.125C121.62 111.797 124.453 108.964 124.453 105.469V71.7188C124.453 68.2235 121.62 65.3906 118.125 65.3906Z" fill="#1387DE"/>
<path d="M18.9844 111.797H31.6406V120.234H18.9844V111.797ZM94.9219 111.797H107.578V120.234H94.9219V111.797Z" fill="#93B1C4"/>
<path d="M107.578 99.1406H18.9844C16.6535 99.1406 14.7656 97.2527 14.7656 94.9219V35.8594C14.7656 33.5285 16.6535 31.6406 18.9844 31.6406H107.578C109.909 31.6406 111.797 33.5285 111.797 35.8594V94.9219C111.797 97.2527 109.909 99.1406 107.578 99.1406Z" fill="#EAEAEA"/>
<path d="M77.3442 99.1406H46.406L99.8428 31.6406H107.578L111.797 33.75V55.62L77.3442 99.1406ZM33.0474 99.1406H18.2817L71.7185 31.6406H86.4842L33.0474 99.1406Z" fill="#D7E9F0"/>
<path d="M107.578 44.2969H116.016V56.9531H107.578V44.2969ZM107.578 73.8281H116.016V86.4844H107.578V73.8281Z" fill="#E87022"/>
<path d="M14.7656 81.3776L54.1413 31.6406H56.9531L14.7656 84.9298V81.3776Z" fill="#D7E9F0"/>
<path d="M63.2812 46.4062C52.7965 46.4062 44.2969 54.9058 44.2969 65.3906C44.2969 75.8754 52.7965 84.375 63.2812 84.375C73.766 84.375 82.2656 75.8754 82.2656 65.3906C82.2656 54.9058 73.766 46.4062 63.2812 46.4062Z" fill="#E75220"/>
<path d="M63.2812 54.8438C57.4564 54.8438 52.7344 59.5657 52.7344 65.3906C52.7344 71.2155 57.4564 75.9375 63.2812 75.9375C69.1061 75.9375 73.8281 71.2155 73.8281 65.3906C73.8281 59.5657 69.1061 54.8438 63.2812 54.8438Z" fill="#E87022"/>
<path d="M107.578 82.2656C93.5984 82.2656 82.2656 93.5984 82.2656 107.578C82.2656 121.558 93.5984 132.891 107.578 132.891C121.558 132.891 132.891 121.558 132.891 107.578C132.891 93.5984 121.558 82.2656 107.578 82.2656Z" fill="#2ECC71"/>
<path d="M111.797 61.1719C110.63 61.1719 109.688 62.1169 109.688 63.2812V67.5C109.688 68.6644 110.63 69.6094 111.797 69.6094C112.963 69.6094 113.906 68.6644 113.906 67.5V63.2812C113.906 62.1169 112.963 61.1719 111.797 61.1719ZM109.688 42.1875C107.361 42.1875 105.469 44.0796 105.469 46.4062V54.8438C105.469 57.1704 107.361 59.0625 109.688 59.0625H113.906C116.233 59.0625 118.125 57.1704 118.125 54.8438V46.4062C118.125 44.0796 116.233 42.1875 113.906 42.1875H109.688ZM113.906 54.8438H109.688V46.4062L113.906 46.4041V54.8438ZM63.2812 44.2969C51.6502 44.2969 42.1875 53.7595 42.1875 65.3906C42.1875 77.0217 51.6502 86.4844 63.2812 86.4844C74.9123 86.4844 84.375 77.0217 84.375 65.3906C84.375 53.7595 74.9123 44.2969 63.2812 44.2969ZM63.2812 82.2656C53.9768 82.2656 46.4062 74.6951 46.4062 65.3906C46.4062 56.0862 53.9768 48.5156 63.2812 48.5156C72.5857 48.5156 80.1562 56.0862 80.1562 65.3906C80.1562 74.6951 72.5857 82.2656 63.2812 82.2656Z" fill="#333333"/>
<path d="M63.2812 50.625C62.1148 50.625 61.1719 51.57 61.1719 52.7344V56.6009C61.1719 57.7652 62.1148 58.7102 63.2812 58.7102C64.4477 58.7102 65.3906 57.7652 65.3906 56.6009V52.7344C65.3906 51.57 64.4477 50.625 63.2812 50.625ZM23.2031 46.4062C22.0366 46.4062 21.0938 47.3512 21.0938 48.5156V82.2656C21.0938 83.43 22.0366 84.375 23.2031 84.375C24.3696 84.375 25.3125 83.43 25.3125 82.2656V48.5156C25.3125 47.3512 24.3696 46.4062 23.2031 46.4062ZM63.2812 71.7188C62.1148 71.7188 61.1719 72.6637 61.1719 73.8281V77.6946C61.1719 78.859 62.1148 79.804 63.2812 79.804C64.4477 79.804 65.3906 78.859 65.3906 77.6946V73.8281C65.3906 72.6637 64.4477 71.7188 63.2812 71.7188ZM56.6009 65.3906C56.6009 64.2262 55.658 63.2812 54.4915 63.2812H50.625C49.4585 63.2812 48.5156 64.2262 48.5156 65.3906C48.5156 66.555 49.4585 67.5 50.625 67.5H54.4915C55.658 67.5 56.6009 66.555 56.6009 65.3906ZM69.9616 65.3906C69.9616 66.555 70.9045 67.5 72.071 67.5H75.9375C77.104 67.5 78.0469 66.555 78.0469 65.3906C78.0469 64.2262 77.104 63.2812 75.9375 63.2812H72.071C70.9045 63.2812 69.9616 64.2262 69.9616 65.3906ZM55.947 54.8986C55.1222 54.0738 53.7891 54.0738 52.9643 54.8986C52.1395 55.7212 52.1395 57.0565 52.9643 57.8813L55.698 60.615C56.1094 61.0263 56.6494 61.2331 57.1894 61.2331C57.7294 61.2331 58.2694 61.0263 58.6807 60.615C59.5055 59.7923 59.5055 58.4571 58.6807 57.6323L55.947 54.8986ZM70.8645 69.814C70.0397 68.9892 68.7066 68.9892 67.8818 69.814C67.057 70.6366 67.057 71.9719 67.8818 72.7966L70.6155 75.5304C71.0269 75.9417 71.5669 76.1484 72.1069 76.1484C72.6469 76.1484 73.1869 75.9417 73.5982 75.5304C74.423 74.7077 74.423 73.3725 73.5982 72.5477L70.8645 69.814ZM55.698 70.0629L52.9643 72.7966C52.1395 73.6214 52.1395 74.9566 52.9643 75.7793C53.3756 76.1906 53.9156 76.3973 54.4556 76.3973C54.9956 76.3973 55.5356 76.1906 55.947 75.7793L58.6807 73.0455C59.5055 72.2208 59.5055 70.8855 58.6807 70.0629C57.858 69.2381 56.5228 69.2381 55.698 70.0629L55.698 70.0629ZM69.6199 61.2331C70.1599 61.2331 70.6999 61.0263 71.1112 60.615L73.8471 57.8813C74.6719 57.0586 74.6719 55.7234 73.8471 54.8986C73.0224 54.0738 71.6892 54.0738 70.8645 54.8986L68.1286 57.6323C67.3038 58.455 67.3038 59.7902 68.1286 60.615C68.5399 61.0284 69.0799 61.2331 69.6199 61.2331Z" fill="#333333"/>
<path d="M126.562 87.8133V23.2031C126.562 19.7227 123.715 16.875 120.234 16.875H6.32812C2.84766 16.875 0 19.7227 0 23.2031V107.578C0 111.059 2.84766 113.906 6.32812 113.906H16.875V118.125C16.875 120.452 18.7671 122.344 21.0938 122.344H29.5312C31.8579 122.344 33.75 120.452 33.75 118.125V113.906H80.8945C83.7633 125.993 94.6266 135 107.578 135C122.702 135 135 122.702 135 107.578C135 99.8156 131.752 92.7914 126.562 87.8133ZM29.5334 118.125H21.0938V113.906H29.5312L29.5334 118.125ZM29.5312 109.688H21.0938H6.32812C5.16797 109.688 4.21875 108.738 4.21875 107.578V23.2031C4.21875 22.043 5.16797 21.0938 6.32812 21.0938H120.234C121.395 21.0938 122.344 22.043 122.344 23.2031V84.4805C121.015 83.6156 119.602 82.8773 118.125 82.2656V75.9375C118.125 73.6172 116.227 71.7188 113.906 71.7188H109.688C107.367 71.7188 105.469 73.6172 105.469 75.9375V80.2617C94.9852 81.0422 86.1469 87.75 82.2656 97.0312H18.9844C17.8242 97.0312 16.875 96.082 16.875 94.9219V35.8594C16.875 34.6992 17.8242 33.75 18.9844 33.75H107.578C108.738 33.75 109.688 34.6992 109.688 35.8594V37.9688C109.688 39.1289 110.637 40.0781 111.797 40.0781C112.957 40.0781 113.906 39.1289 113.906 37.9688V35.8594C113.906 32.3789 111.059 29.5312 107.578 29.5312H18.9844C15.5039 29.5312 12.6562 32.3789 12.6562 35.8594V94.9219C12.6562 98.4024 15.5039 101.25 18.9844 101.25H80.8945C80.4094 103.275 80.1563 105.405 80.1563 107.578C80.1563 108.295 80.1773 108.991 80.2617 109.688H29.5312ZM109.688 80.2617V75.9375H113.906V80.8945C112.535 80.5781 111.122 80.3461 109.688 80.2617ZM107.578 130.781C96.968 130.781 88.0031 123.63 85.2609 113.906C84.8602 112.535 84.607 111.122 84.4805 109.688C84.4172 108.991 84.375 108.295 84.375 107.578C84.375 105.384 84.6703 103.254 85.2609 101.25C85.6617 99.7734 86.2312 98.3602 86.9062 97.0312C90.45 90.1125 97.3687 85.1977 105.469 84.4805C106.165 84.4172 106.861 84.375 107.578 84.375C111.122 84.375 114.476 85.1766 117.492 86.5898C119.243 87.4125 120.867 88.4461 122.344 89.6695C123.947 90.9984 125.36 92.5383 126.562 94.2469C129.22 98.0227 130.781 102.6 130.781 107.578C130.781 120.382 120.382 130.781 107.578 130.781Z" fill="#333333"/>
<path d="M118.743 97.6493L103.359 113.033L96.4128 106.087C95.588 105.262 94.2549 105.262 93.4301 106.087C92.6053 106.912 92.6053 108.245 93.4301 109.069L101.868 117.507C102.279 117.918 102.819 118.125 103.359 118.125C103.899 118.125 104.439 117.918 104.85 117.507L121.725 100.632C122.55 99.8072 122.55 98.474 121.725 97.6493C120.9 96.8245 119.567 96.8245 118.743 97.6493H118.743Z" fill="#FAEFDE"/>
</svg>
