<svg id="Capa_1" data-name="Capa 1" xmlns="http://www.w3.org/2000/svg" viewBox="0 0 1249.88 368.12"><defs><style>.cls-1{fill:#fff;stroke:#fff;stroke-miterlimit:10;}.cls-2{fill:none;}.cls-3,.cls-5,.cls-6{fill:#203b73;}.cls-4{fill:#e87222;}.cls-5{font-size:204.93px;font-family:HelveticaNeue-Bold, Helvetica Neue;font-weight:700;}.cls-6{font-size:77.57px;font-family:HelveticaNeue, Helvetica Neue;letter-spacing:0.5em;}</style></defs><title>logo-bodegom-horizontal</title><path class="cls-1" d="M128.46,21.18c-52,4.52-94.13,47.72-92.37,99.91L38,152.73l48.91-26.89-.16-4.49c1.43-24.23,10.37-34.79,29.35-44.68,34-17.73,66.68,14.93,67.17,45.81l50.89-5.17C232.22,66.29,194.57,15.44,128.46,21.18Z"/><path class="cls-1" d="M267.33,168.34,140.4,102.41s-4-3.16-9.15,1L7.91,171.82s-8.43,3.55-2.47,13l14,25s4.13,8.12,14.25-.48L136,152.26l110.92,57s7.1,3.6,11.14-4.73l12.12-23.33S275.36,173.41,267.33,168.34Z"/><path class="cls-1" d="M33.77,209.54s-.55,42.39,1.32,45.27c0,0,4.31,64.39,100.39,65.84,0,0,61.2,1.73,88.13-34.61,0,0,16.67-21.34,14.77-46.81l.33-31.61L135.65,151.34Z"/><path class="cls-2" d="M112.88,210.52s-1.62,13.87,12.85,22.91L117.3,279s-1.14,11.56,22.61,10.62c24.49-1,21.86-10.54,21.1-11.67l-9.28-44.5s15.17-9,13-26c0,0-1.39-20.49-25-22.58C139.73,184.84,115.61,183.51,112.88,210.52Z"/><path class="cls-3" d="M38.83,211.4s-.16,38.25,1.61,41c0,0,4.09,61.11,95.26,62.49,0,0,58.09,1.64,83.65-32.85,0,0,15.82-20.25,14-44.42l-.05-27.68L135.6,157.33Zm123.14-4c2.17,17-13,26-13,26l9.27,44.5c.77,1.13,3.4,10.7-21.09,11.67-23.75.94-22.62-10.62-22.62-10.62L123,233.43c-14.47-9-12.85-22.91-12.85-22.91,2.73-27,26.85-25.68,26.85-25.68C160.58,186.93,162,207.42,162,207.42Z"/><path class="cls-4" d="M262.58,172.38,140.66,106.92s-3.95-3.16-9.15,1L13.68,173.23s-6.64,2.89-2.61,9.41l11.71,20.69s3.46,5.09,7.57,1.44l105-58.49L246.13,204s3.79,1.25,5.94-2l12.45-23.15S266.57,175.14,262.58,172.38Z"/><path class="cls-3" d="M132.27,25.26a94.81,94.81,0,0,0-91.46,97.85l.8,23.81,41.46-23L83,121.68A52.49,52.49,0,0,1,187.91,118l42-4.17A94.8,94.8,0,0,0,132.27,25.26Z"/><text class="cls-5" transform="translate(288.22 189.1)">Bodegom</text><text class="cls-6" transform="translate(297.21 314.93)">MINIBODEGAS</text></svg>