<svg width="151" height="51" viewBox="0 0 151 51" fill="none" xmlns="http://www.w3.org/2000/svg">
<path d="M47.728 11.5193H53.092C54.268 11.5193 55.264 11.6993 56.08 12.0593C56.92 12.4193 57.604 12.8993 58.132 13.4993C58.66 14.0993 59.032 14.7953 59.248 15.5873C59.488 16.3553 59.608 17.1593 59.608 17.9993V18.9353C59.608 19.6313 59.548 20.2193 59.428 20.6993C59.332 21.1793 59.176 21.5993 58.96 21.9593C58.744 22.3193 58.48 22.6433 58.168 22.9313C57.856 23.1953 57.496 23.4473 57.088 23.6873C57.952 24.0953 58.588 24.7073 58.996 25.5233C59.404 26.3153 59.608 27.3833 59.608 28.7273V30.1673C59.608 32.4233 59.056 34.1513 57.952 35.3513C56.872 36.5513 55.132 37.1513 52.732 37.1513H47.728V11.5193ZM51.4 33.4793H52.984C53.728 33.4793 54.304 33.3713 54.712 33.1553C55.144 32.9393 55.468 32.6393 55.684 32.2553C55.9 31.8713 56.032 31.4153 56.08 30.8873C56.128 30.3593 56.152 29.7833 56.152 29.1593C56.152 28.5113 56.116 27.9473 56.044 27.4673C55.972 26.9873 55.816 26.5913 55.576 26.2793C55.36 25.9433 55.048 25.6913 54.64 25.5233C54.232 25.3553 53.692 25.2713 53.02 25.2713H51.4V33.4793ZM51.4 22.0313H53.056C54.28 22.0313 55.096 21.7313 55.504 21.1313C55.936 20.5073 56.152 19.6073 56.152 18.4313C56.152 17.2793 55.912 16.4153 55.432 15.8393C54.976 15.2633 54.136 14.9753 52.912 14.9753H51.4V22.0313ZM62.5161 25.0193C62.5161 24.2753 62.5641 23.5913 62.6601 22.9673C62.7561 22.3433 62.9361 21.7913 63.2001 21.3113C63.6321 20.5193 64.2561 19.8833 65.0721 19.4033C65.8881 18.9233 66.8601 18.6833 67.9881 18.6833C69.1161 18.6833 70.0881 18.9233 70.9041 19.4033C71.7201 19.8833 72.3441 20.5193 72.7761 21.3113C73.0401 21.7913 73.2201 22.3433 73.3161 22.9673C73.4121 23.5913 73.4601 24.2753 73.4601 25.0193V31.0313C73.4601 31.7753 73.4121 32.4593 73.3161 33.0833C73.2201 33.7073 73.0401 34.2593 72.7761 34.7393C72.3441 35.5313 71.7201 36.1673 70.9041 36.6473C70.0881 37.1273 69.1161 37.3673 67.9881 37.3673C66.8601 37.3673 65.8881 37.1273 65.0721 36.6473C64.2561 36.1673 63.6321 35.5313 63.2001 34.7393C62.9361 34.2593 62.7561 33.7073 62.6601 33.0833C62.5641 32.4593 62.5161 31.7753 62.5161 31.0313V25.0193ZM66.1881 31.6073C66.1881 32.3033 66.3441 32.8313 66.6561 33.1913C66.9921 33.5273 67.4361 33.6953 67.9881 33.6953C68.5401 33.6953 68.9721 33.5273 69.2841 33.1913C69.6201 32.8313 69.7881 32.3033 69.7881 31.6073V24.4433C69.7881 23.7473 69.6201 23.2313 69.2841 22.8953C68.9721 22.5353 68.5401 22.3553 67.9881 22.3553C67.4361 22.3553 66.9921 22.5353 66.6561 22.8953C66.3441 23.2313 66.1881 23.7473 66.1881 24.4433V31.6073ZM79.8363 31.2113C79.8363 31.9553 79.9803 32.5553 80.2683 33.0113C80.5563 33.4673 81.0123 33.6953 81.6363 33.6953C82.1883 33.6953 82.6323 33.4913 82.9683 33.0833C83.3043 32.6513 83.4723 32.0993 83.4723 31.4273V24.3353C83.4723 23.7593 83.2923 23.2913 82.9323 22.9313C82.5963 22.5473 82.1643 22.3553 81.6363 22.3553C80.9403 22.3553 80.4603 22.5713 80.1963 23.0033C79.9563 23.4353 79.8363 23.9393 79.8363 24.5153V31.2113ZM83.4723 35.4953C83.2323 35.7593 83.0043 36.0113 82.7883 36.2513C82.5723 36.4673 82.3323 36.6593 82.0683 36.8273C81.8043 36.9953 81.5043 37.1273 81.1683 37.2233C80.8323 37.3193 80.4363 37.3673 79.9803 37.3673C78.4683 37.3673 77.4003 36.7913 76.7763 35.6393C76.5603 35.2313 76.4043 34.7273 76.3083 34.1273C76.2123 33.5273 76.1643 32.7233 76.1643 31.7153V24.7673C76.1643 23.4473 76.2003 22.4753 76.2723 21.8513C76.3443 21.2273 76.5003 20.7233 76.7403 20.3393C77.0523 19.8593 77.4483 19.4633 77.9283 19.1513C78.4323 18.8393 79.1283 18.6833 80.0163 18.6833C80.7363 18.6833 81.3723 18.8513 81.9243 19.1873C82.5003 19.4993 82.9923 19.9553 83.4003 20.5553H83.4723V11.5193H87.1443V37.1513H83.4723V35.4953ZM93.5045 29.4113V31.8953C93.5045 32.4713 93.6605 32.9153 93.9725 33.2273C94.3085 33.5393 94.7525 33.6953 95.3045 33.6953C96.0005 33.6953 96.4565 33.4913 96.6725 33.0833C96.9125 32.6753 97.0565 32.2673 97.1045 31.8593H100.777C100.777 32.6273 100.645 33.3473 100.381 34.0193C100.141 34.6913 99.7805 35.2673 99.3005 35.7473C98.8205 36.2513 98.2445 36.6473 97.5725 36.9353C96.9005 37.2233 96.1445 37.3673 95.3045 37.3673C94.1765 37.3673 93.2045 37.1273 92.3885 36.6473C91.5725 36.1673 90.9485 35.5313 90.5165 34.7393C90.2525 34.2593 90.0725 33.7073 89.9765 33.0833C89.8805 32.4593 89.8325 31.7753 89.8325 31.0313V25.0193C89.8325 24.2753 89.8805 23.5913 89.9765 22.9673C90.0725 22.3433 90.2525 21.7913 90.5165 21.3113C90.9485 20.5193 91.5725 19.8833 92.3885 19.4033C93.2045 18.9233 94.1765 18.6833 95.3045 18.6833C96.1445 18.6833 96.9005 18.8273 97.5725 19.1153C98.2685 19.4033 98.8445 19.8113 99.3005 20.3393C99.7805 20.8433 100.141 21.4433 100.381 22.1393C100.645 22.8353 100.777 23.5793 100.777 24.3713V29.4113H93.5045ZM93.5045 26.5313H97.1045V24.4433C97.1045 23.7473 96.9365 23.2313 96.6005 22.8953C96.2885 22.5353 95.8565 22.3553 95.3045 22.3553C94.7525 22.3553 94.3085 22.5353 93.9725 22.8953C93.6605 23.2313 93.5045 23.7473 93.5045 24.4433V26.5313ZM107.153 39.2753C107.177 39.7073 107.345 40.1153 107.657 40.4993C107.993 40.8833 108.473 41.0753 109.097 41.0753C109.697 41.0753 110.129 40.8833 110.393 40.4993C110.657 40.1393 110.789 39.6713 110.789 39.0953V35.4953H110.717C110.309 36.0953 109.817 36.5633 109.241 36.8993C108.689 37.2113 108.041 37.3673 107.297 37.3673C105.785 37.3673 104.717 36.7913 104.093 35.6393C103.877 35.2313 103.721 34.7273 103.625 34.1273C103.529 33.5273 103.481 32.7233 103.481 31.7153V24.7673C103.481 23.4473 103.517 22.4753 103.589 21.8513C103.661 21.2273 103.817 20.7233 104.057 20.3393C104.369 19.8593 104.765 19.4633 105.245 19.1513C105.749 18.8393 106.445 18.6833 107.333 18.6833C107.789 18.6833 108.173 18.7313 108.485 18.8273C108.821 18.9233 109.121 19.0553 109.385 19.2233C109.649 19.3913 109.889 19.5953 110.105 19.8353C110.321 20.0513 110.549 20.2913 110.789 20.5553V18.8993H114.461V39.3833C114.461 40.0073 114.353 40.6313 114.137 41.2553C113.945 41.9033 113.621 42.4793 113.165 42.9833C112.709 43.5113 112.133 43.9313 111.437 44.2433C110.741 44.5793 109.913 44.7473 108.953 44.7473C108.401 44.7473 107.825 44.6513 107.225 44.4593C106.625 44.2913 106.061 43.9913 105.533 43.5593C105.029 43.1513 104.585 42.5993 104.201 41.9033C103.841 41.2073 103.601 40.3313 103.481 39.2753H107.153ZM107.153 31.5353C107.153 32.1113 107.273 32.6153 107.513 33.0473C107.777 33.4793 108.257 33.6953 108.953 33.6953C109.481 33.6953 109.913 33.5153 110.249 33.1553C110.609 32.7713 110.789 32.2913 110.789 31.7153V24.6233C110.789 23.9513 110.621 23.4113 110.285 23.0033C109.949 22.5713 109.505 22.3553 108.953 22.3553C108.329 22.3553 107.873 22.5833 107.585 23.0393C107.297 23.4953 107.153 24.0953 107.153 24.8393V31.5353ZM117.149 25.0193C117.149 24.2753 117.197 23.5913 117.293 22.9673C117.389 22.3433 117.569 21.7913 117.833 21.3113C118.265 20.5193 118.889 19.8833 119.705 19.4033C120.521 18.9233 121.493 18.6833 122.621 18.6833C123.749 18.6833 124.721 18.9233 125.537 19.4033C126.353 19.8833 126.977 20.5193 127.409 21.3113C127.673 21.7913 127.853 22.3433 127.949 22.9673C128.045 23.5913 128.093 24.2753 128.093 25.0193V31.0313C128.093 31.7753 128.045 32.4593 127.949 33.0833C127.853 33.7073 127.673 34.2593 127.409 34.7393C126.977 35.5313 126.353 36.1673 125.537 36.6473C124.721 37.1273 123.749 37.3673 122.621 37.3673C121.493 37.3673 120.521 37.1273 119.705 36.6473C118.889 36.1673 118.265 35.5313 117.833 34.7393C117.569 34.2593 117.389 33.7073 117.293 33.0833C117.197 32.4593 117.149 31.7753 117.149 31.0313V25.0193ZM120.821 31.6073C120.821 32.3033 120.977 32.8313 121.289 33.1913C121.625 33.5273 122.069 33.6953 122.621 33.6953C123.173 33.6953 123.605 33.5273 123.917 33.1913C124.253 32.8313 124.421 32.3033 124.421 31.6073V24.4433C124.421 23.7473 124.253 23.2313 123.917 22.8953C123.605 22.5353 123.173 22.3553 122.621 22.3553C122.069 22.3553 121.625 22.5353 121.289 22.8953C120.977 23.2313 120.821 23.7473 120.821 24.4433V31.6073ZM130.797 18.8993H134.469V20.6633H134.541C134.925 20.0873 135.381 19.6193 135.909 19.2593C136.461 18.8753 137.157 18.6833 137.997 18.6833C138.789 18.6833 139.449 18.8753 139.977 19.2593C140.505 19.6433 140.937 20.0633 141.273 20.5193C141.729 20.0153 142.233 19.5833 142.785 19.2233C143.337 18.8633 144.105 18.6833 145.089 18.6833C145.545 18.6833 146.013 18.7673 146.493 18.9353C146.973 19.0793 147.405 19.3313 147.789 19.6913C148.173 20.0513 148.485 20.5193 148.725 21.0953C148.965 21.6473 149.085 22.3313 149.085 23.1473V37.1513H145.413V24.5153C145.413 23.8433 145.257 23.3153 144.945 22.9313C144.633 22.5473 144.189 22.3553 143.613 22.3553C142.917 22.3553 142.437 22.5713 142.173 23.0033C141.909 23.4353 141.777 24.0593 141.777 24.8753V37.1513H138.105V24.5153C138.105 23.8433 137.949 23.3153 137.637 22.9313C137.325 22.5473 136.881 22.3553 136.305 22.3553C135.609 22.3553 135.129 22.5713 134.865 23.0033C134.601 23.4353 134.469 24.0593 134.469 24.8753V37.1513H130.797V18.8993Z" fill="#00357E"/>
<path d="M6.65058 31.3419C6.65058 31.3419 6.40075 37.2442 6.61211 37.7194C6.61211 37.7194 6.79827 47.19 19.6797 47.9775C19.6797 47.9775 27.8891 48.5885 31.7207 43.4209C31.7207 43.4209 34.0834 40.3703 33.9981 36.6355L34.1583 32.3421L20.659 23.6012L6.65058 31.3419ZM24.0853 31.5054C24.2888 34.1399 22.0922 35.4648 22.0922 35.4648L23.1246 42.4179C23.2457 42.6014 23.5143 44.0937 20.0896 44.101C16.7106 44.1 16.9607 42.3077 16.9607 42.3077L18.455 35.3053C16.4513 33.8208 16.7864 31.6533 16.7864 31.6533C17.3419 27.4935 20.7272 27.853 20.7272 27.853C23.9903 28.3375 24.0853 31.5054 24.0853 31.5054Z" fill="#00357E"/>
<path d="M39.1829 26.8887L21.6847 15.8895C21.6847 15.8895 21.1171 15.3647 20.327 15.9798L2.50608 25.5602C2.50608 25.5602 1.48748 25.9551 2.04297 27.058L3.61408 30.3839C3.61408 30.3839 4.07648 31.1896 4.73108 30.6515L20.6404 22.0475L36.5365 31.8204C36.5365 31.8204 37.1064 32.0307 37.4272 31.5535L39.4447 27.9927C39.4371 27.9417 39.7429 27.3625 39.1829 26.8887Z" fill="#E77122"/>
<path d="M21.283 3.27861C13.5785 3.37286 7.14569 10.1406 6.95912 18.3467L6.89184 22.1065L13.194 18.6425L13.1925 18.2786C13.2978 13.7309 16.8548 9.96848 21.1315 9.96885C25.4011 9.91856 28.7617 13.5837 28.7043 18.1221L34.9222 17.5886C34.8906 9.58104 28.8439 3.2123 21.283 3.27861Z" fill="#00357E"/>
</svg>
