<svg width="227" height="56" viewBox="0 0 227 56" fill="none" xmlns="http://www.w3.org/2000/svg">
<g clip-path="url(#clip0)">
<path d="M23.2529 0.167462C13.6336 1.00495 5.8456 9.04483 6.16008 18.7597L6.51156 24.6407L15.5575 19.6344L15.5205 18.7969C15.7794 14.2931 17.4443 12.3203 20.9406 10.4779C27.2302 7.18375 33.2793 13.2509 33.3718 19.0016L42.7876 18.0339C42.4362 8.57956 35.4806 -0.893356 23.2529 0.167462Z" fill="white" stroke="white" stroke-miterlimit="10"/>
<path d="M48.9292 27.5627L25.4543 15.2982C25.4543 15.2982 24.7143 14.7026 23.7709 15.4843L0.943432 28.2141C0.943432 28.2141 -0.610464 28.8841 0.480963 30.6335L3.07079 35.2862C3.07079 35.2862 3.82924 36.7937 5.69761 35.1931L24.6403 24.5664L45.1555 35.1745C45.1555 35.1745 46.4689 35.8445 47.2088 34.2998L49.4472 29.9635C49.4657 29.9635 50.4276 28.5119 48.9292 27.5627Z" fill="white" stroke="white" stroke-miterlimit="10"/>
<path d="M5.73464 35.2302C5.73464 35.2302 5.64214 43.1212 5.97512 43.6609C5.97512 43.6609 6.77057 55.6463 24.5479 55.9068C24.5479 55.9068 35.8691 56.2232 40.8453 49.4675C40.8453 49.4675 43.9346 45.5034 43.5831 40.7576L43.6386 34.8766L24.5664 24.3987L5.73464 35.2302Z" fill="white" stroke="white" stroke-miterlimit="10"/>
<path d="M6.65955 35.5838C6.65955 35.5838 6.62255 42.6932 6.95553 43.2143C6.95553 43.2143 7.71398 54.5855 24.5848 54.8461C24.5848 54.8461 35.3326 55.1438 40.0498 48.7231C40.0498 48.7231 42.9726 44.9637 42.6396 40.4599L42.6211 35.3047L24.5479 25.5154L6.65955 35.5838ZM29.45 34.8394C29.857 38.0033 27.0452 39.6782 27.0452 39.6782L28.7656 47.9601C28.9136 48.1648 29.3945 49.9514 24.8623 50.1375C20.4596 50.305 20.6816 48.1648 20.6816 48.1648L22.254 39.6968C19.5717 38.0219 19.8862 35.435 19.8862 35.435C20.3856 30.41 24.8623 30.652 24.8623 30.652C29.191 31.0242 29.45 34.8394 29.45 34.8394Z" fill="#203B73"/>
<path d="M48.0598 28.307L25.5098 16.1356C25.5098 16.1356 24.7883 15.54 23.8264 16.3217L2.01635 28.4745C2.01635 28.4745 0.795434 29.0143 1.53538 30.224L3.69974 34.0764C3.69974 34.0764 4.3472 35.0256 5.10565 34.337L24.5293 23.4496L45.026 34.1881C45.026 34.1881 45.7289 34.4114 46.1174 33.8159L48.4112 29.5167C48.4112 29.5167 48.7997 28.8281 48.0598 28.307Z" fill="#E87222"/>
<path d="M23.9559 0.93043C14.2811 1.26543 6.71506 9.41697 7.02954 19.1504L7.17753 23.5798L14.8545 19.2993L14.836 18.8899C14.7065 13.4927 18.9427 9.00753 24.3074 8.87726C29.598 8.74698 34.0007 12.8972 34.2412 18.2013L42.0107 17.4196C41.4002 7.9281 33.4088 0.632657 23.9559 0.93043Z" fill="#203B73"/>
<path d="M68.1494 4.1875C69.4444 4.1875 70.6098 4.29916 71.6827 4.52249C72.7371 4.74582 73.6621 5.11804 74.4205 5.63915C75.179 6.16025 75.7709 6.84885 76.1779 7.72356C76.6034 8.57966 76.8069 9.65909 76.8069 10.9246C76.8069 12.3018 76.4924 13.4371 75.8819 14.349C75.2715 15.2609 74.3465 16.0054 73.1256 16.6009C74.7905 17.0848 76.0299 17.9223 76.8624 19.132C77.6763 20.3417 78.1018 21.7934 78.1018 23.5055C78.1018 24.8828 77.8428 26.0738 77.3063 27.0788C76.7699 28.0838 76.0669 28.9027 75.1605 29.5355C74.254 30.1682 73.2366 30.6335 72.0897 30.9499C70.9428 31.2477 69.7588 31.4152 68.5379 31.4152H55.4223V4.1875H68.1494ZM67.391 15.2237C68.4454 15.2237 69.3334 14.9632 69.9993 14.4607C70.6838 13.9582 71.0168 13.1207 71.0168 11.9854C71.0168 11.3527 70.9058 10.8316 70.6838 10.4221C70.4618 10.0127 70.1473 9.69631 69.7773 9.47298C69.4074 9.24965 68.9634 9.08215 68.4639 8.9891C67.9645 8.89604 67.465 8.85882 66.9285 8.85882H61.3604V15.2237H67.391V15.2237ZM67.7425 26.7811C68.3159 26.7811 68.8709 26.7252 69.4074 26.6136C69.9438 26.5019 70.4063 26.3158 70.8133 26.0366C71.2202 25.7761 71.5347 25.4039 71.7752 24.9572C72.0157 24.4919 72.1267 23.915 72.1267 23.2078C72.1267 21.812 71.7382 20.807 70.9428 20.2114C70.1658 19.6159 69.1299 19.3181 67.835 19.3181H61.3604V26.7997H67.7425V26.7811Z" fill="#203B73"/>
<path d="M81.6535 17.2895C82.1345 16.0053 82.8189 14.9073 83.7069 14.014C84.5948 13.1206 85.6493 12.4134 86.8887 11.9109C88.1281 11.4084 89.5155 11.1665 91.0509 11.1665C92.5863 11.1665 93.9922 11.4084 95.2316 11.9109C96.4895 12.4134 97.544 13.102 98.4319 14.014C99.3199 14.9259 100.004 16.0053 100.485 17.2895C100.966 18.5736 101.207 20.0067 101.207 21.5886C101.207 23.1705 100.966 24.5849 100.485 25.8691C100.004 27.1346 99.3199 28.2326 98.4319 29.126C97.544 30.0379 96.471 30.7265 95.2316 31.2104C93.9737 31.6943 92.5863 31.9362 91.0509 31.9362C89.5155 31.9362 88.1281 31.6943 86.8887 31.2104C85.6493 30.7265 84.5948 30.0379 83.7069 29.126C82.8189 28.2326 82.1345 27.1346 81.6535 25.8691C81.1726 24.6035 80.9321 23.1705 80.9321 21.5886C80.9321 20.0067 81.1726 18.5736 81.6535 17.2895ZM86.5372 23.8963C86.6852 24.6408 86.9442 25.3294 87.3141 25.9249C87.6841 26.5204 88.1651 27.0043 88.7755 27.3579C89.386 27.7115 90.1445 27.8976 91.0509 27.8976C91.9573 27.8976 92.7158 27.7115 93.3448 27.3579C93.9552 27.0043 94.4547 26.5204 94.8246 25.9249C95.1946 25.3294 95.4536 24.6594 95.6016 23.8963C95.7496 23.1519 95.8236 22.3702 95.8236 21.5886C95.8236 20.8069 95.7496 20.0253 95.6016 19.2622C95.4536 18.4992 95.1946 17.8292 94.8246 17.2336C94.4547 16.6567 93.9737 16.1728 93.3448 15.8006C92.7343 15.4284 91.9573 15.2423 91.0509 15.2423C90.1445 15.2423 89.386 15.4284 88.7755 15.8006C88.1651 16.1728 87.6841 16.6381 87.3141 17.2336C86.9442 17.8106 86.6852 18.4992 86.5372 19.2622C86.3892 20.0253 86.3152 20.8069 86.3152 21.5886C86.3152 22.3702 86.3892 23.1519 86.5372 23.8963Z" fill="#203B73"/>
<path d="M118.614 28.9027C117.985 29.9635 117.153 30.7452 116.135 31.2104C115.118 31.6757 113.952 31.9177 112.657 31.9177C111.196 31.9177 109.901 31.6385 108.791 31.0616C107.681 30.4846 106.756 29.7216 106.035 28.7352C105.313 27.7488 104.777 26.6322 104.407 25.3666C104.037 24.1011 103.852 22.7797 103.852 21.4025C103.852 20.0812 104.037 18.797 104.407 17.5687C104.777 16.3404 105.313 15.2423 106.035 14.3118C106.756 13.3626 107.663 12.6182 108.754 12.0413C109.846 11.4643 111.104 11.1852 112.546 11.1852C113.712 11.1852 114.822 11.4271 115.858 11.9296C116.912 12.4321 117.726 13.1579 118.337 14.1257H118.411V4.1875H123.794V31.4152H118.67V28.9027H118.614ZM118.374 19.1692C118.226 18.4248 117.967 17.7548 117.597 17.1779C117.227 16.6009 116.764 16.1357 116.172 15.7821C115.599 15.4284 114.859 15.2423 113.971 15.2423C113.083 15.2423 112.343 15.4284 111.733 15.7821C111.122 16.1357 110.641 16.6009 110.271 17.1965C109.901 17.7734 109.642 18.4434 109.476 19.2064C109.309 19.9509 109.235 20.7325 109.235 21.5514C109.235 22.3145 109.328 23.0775 109.494 23.8406C109.679 24.6036 109.957 25.2922 110.345 25.8877C110.734 26.4833 111.233 26.9672 111.825 27.3394C112.417 27.7116 113.138 27.8977 113.971 27.8977C114.859 27.8977 115.599 27.7116 116.191 27.358C116.783 27.0044 117.264 26.5205 117.615 25.925C117.967 25.3294 118.226 24.6408 118.374 23.8778C118.522 23.1147 118.596 22.3331 118.596 21.5142C118.614 20.6953 118.54 19.9137 118.374 19.1692Z" fill="#203B73"/>
<path d="M133.617 26.7066C134.43 27.4883 135.596 27.8977 137.113 27.8977C138.204 27.8977 139.129 27.6186 139.925 27.0788C140.702 26.5391 141.183 25.9622 141.368 25.348H146.103C145.345 27.7116 144.179 29.4052 142.607 30.4288C141.035 31.4524 139.148 31.9549 136.928 31.9549C135.392 31.9549 134.005 31.7129 132.766 31.2104C131.526 30.708 130.472 30.0007 129.621 29.0888C128.77 28.1769 128.104 27.0788 127.623 25.8133C127.16 24.5478 126.92 23.152 126.92 21.6259C126.92 20.1556 127.16 18.7784 127.641 17.5129C128.122 16.2473 128.807 15.1493 129.695 14.2188C130.583 13.2882 131.637 12.5624 132.858 12.0227C134.079 11.483 135.448 11.2224 136.928 11.2224C138.593 11.2224 140.054 11.5388 141.294 12.1902C142.533 12.8416 143.55 13.7163 144.346 14.7957C145.141 15.8937 145.715 17.1407 146.066 18.5365C146.418 19.9323 146.547 21.4025 146.436 22.9286H132.303C132.377 24.6408 132.803 25.9064 133.617 26.7066ZM139.703 16.3218C139.055 15.6146 138.075 15.261 136.761 15.261C135.91 15.261 135.189 15.4099 134.615 15.7076C134.042 16.0054 133.598 16.359 133.247 16.7871C132.914 17.2151 132.673 17.6804 132.525 18.1643C132.377 18.6481 132.303 19.0762 132.285 19.467H141.035C140.794 18.0712 140.35 17.029 139.703 16.3218Z" fill="#203B73"/>
<path d="M168.135 32.8855C167.913 33.9091 167.451 34.8582 166.748 35.7329C166.045 36.6076 165.009 37.3521 163.677 37.9662C162.345 38.5804 160.551 38.8782 158.294 38.8782C157.332 38.8782 156.352 38.7665 155.353 38.5246C154.354 38.2826 153.447 37.9104 152.615 37.4079C151.801 36.9054 151.116 36.254 150.561 35.4352C150.025 34.6349 149.71 33.6671 149.636 32.5505H154.983C155.242 33.5741 155.723 34.2813 156.463 34.6721C157.202 35.0629 158.035 35.2677 158.997 35.2677C160.514 35.2677 161.624 34.8024 162.308 33.8905C163.011 32.9785 163.344 31.8247 163.307 30.4288V27.8419H163.233C162.66 28.8842 161.827 29.6472 160.754 30.1497C159.681 30.6522 158.553 30.8941 157.369 30.8941C155.908 30.8941 154.631 30.6336 153.577 30.1125C152.522 29.5914 151.634 28.8842 150.968 27.9722C150.284 27.0789 149.784 26.0181 149.47 24.8084C149.155 23.5987 148.989 22.3145 148.989 20.9745C148.989 19.709 149.174 18.4807 149.544 17.2896C149.914 16.0985 150.45 15.0563 151.153 14.163C151.856 13.2697 152.744 12.5438 153.78 12.0041C154.835 11.4644 156.037 11.2039 157.406 11.2039C158.701 11.2039 159.829 11.4458 160.791 11.9297C161.772 12.4136 162.586 13.2324 163.233 14.3677H163.307V11.7064H168.431V30.1683C168.45 30.95 168.357 31.8619 168.135 32.8855ZM160.754 26.3159C161.328 26.0181 161.809 25.6086 162.197 25.0875C162.567 24.585 162.863 24.0081 163.048 23.3567C163.233 22.7054 163.326 22.0354 163.326 21.3095C163.326 20.4907 163.252 19.7276 163.104 19.0018C162.956 18.276 162.697 17.6432 162.345 17.0849C161.994 16.5266 161.531 16.0799 160.939 15.7449C160.366 15.4099 159.626 15.2424 158.738 15.2424C157.979 15.2424 157.332 15.3913 156.777 15.7077C156.241 16.0055 155.778 16.4335 155.408 16.9546C155.038 17.4757 154.779 18.0713 154.613 18.7412C154.446 19.4112 154.372 20.1184 154.372 20.8629C154.372 21.5701 154.446 22.2773 154.576 22.9845C154.705 23.6917 154.946 24.3059 155.297 24.8642C155.63 25.4225 156.093 25.8878 156.647 26.2414C157.202 26.595 157.905 26.7811 158.738 26.7811C159.515 26.7811 160.181 26.6136 160.754 26.3159Z" fill="#203B73"/>
<path d="M172.889 17.2895C173.37 16.0053 174.055 14.9073 174.943 14.014C175.831 13.1206 176.885 12.4134 178.125 11.9109C179.364 11.4084 180.751 11.1665 182.287 11.1665C183.822 11.1665 185.228 11.4084 186.468 11.9109C187.725 12.4134 188.78 13.102 189.668 14.014C190.556 14.9259 191.24 16.0053 191.721 17.2895C192.202 18.5736 192.443 20.0067 192.443 21.5886C192.443 23.1705 192.202 24.5849 191.721 25.8691C191.24 27.1346 190.556 28.2326 189.668 29.126C188.78 30.0379 187.707 30.7265 186.468 31.2104C185.228 31.6943 183.822 31.9362 182.287 31.9362C180.751 31.9362 179.346 31.6943 178.125 31.2104C176.885 30.7265 175.831 30.0379 174.943 29.126C174.055 28.2326 173.37 27.1346 172.889 25.8691C172.408 24.6035 172.168 23.1705 172.168 21.5886C172.168 20.0067 172.408 18.5736 172.889 17.2895ZM177.792 23.8963C177.94 24.6408 178.199 25.3294 178.569 25.9249C178.939 26.5204 179.419 27.0043 180.03 27.3579C180.64 27.7115 181.399 27.8976 182.305 27.8976C183.212 27.8976 183.97 27.7115 184.599 27.3579C185.21 27.0043 185.709 26.5204 186.079 25.9249C186.449 25.3294 186.708 24.6594 186.856 23.8963C187.004 23.1519 187.078 22.3702 187.078 21.5886C187.078 20.8069 187.004 20.0253 186.856 19.2622C186.708 18.4992 186.449 17.8292 186.079 17.2336C185.709 16.6567 185.228 16.1728 184.599 15.8006C183.989 15.4284 183.212 15.2423 182.305 15.2423C181.399 15.2423 180.64 15.4284 180.03 15.8006C179.419 16.1728 178.939 16.6381 178.569 17.2336C178.199 17.8106 177.94 18.4992 177.792 19.2622C177.644 20.0253 177.57 20.8069 177.57 21.5886C177.551 22.3702 177.625 23.1519 177.792 23.8963Z" fill="#203B73"/>
<path d="M201.174 11.7062V14.3676H201.248C201.951 13.344 202.802 12.5623 203.801 12.004C204.8 11.4457 205.947 11.1665 207.223 11.1665C208.463 11.1665 209.591 11.4084 210.608 11.8923C211.626 12.3762 212.403 13.2323 212.939 14.442C213.513 13.5859 214.308 12.8229 215.307 12.1529C216.306 11.4829 217.49 11.1665 218.859 11.1665C219.895 11.1665 220.857 11.2968 221.745 11.5387C222.633 11.7993 223.391 12.2087 224.02 12.767C224.649 13.3254 225.148 14.0512 225.5 14.9631C225.851 15.875 226.036 16.9545 226.036 18.22V31.4151H220.653V20.2486C220.653 19.5786 220.635 18.9644 220.579 18.3875C220.524 17.8106 220.394 17.2895 220.154 16.8614C219.932 16.4334 219.599 16.0798 219.155 15.8378C218.711 15.5773 218.119 15.4656 217.36 15.4656C216.602 15.4656 215.992 15.6145 215.529 15.9123C215.067 16.21 214.697 16.5823 214.438 17.0475C214.179 17.5128 213.994 18.0525 213.901 18.6481C213.809 19.2436 213.772 19.8578 213.772 20.4533V31.4337H208.389V20.3789C208.389 19.8019 208.37 19.225 208.352 18.6481C208.333 18.0711 208.222 17.55 208.037 17.0661C207.852 16.5823 207.538 16.1914 207.094 15.9123C206.65 15.6145 206.002 15.4656 205.133 15.4656C204.874 15.4656 204.541 15.5214 204.134 15.6331C203.708 15.7448 203.32 15.9681 202.913 16.2845C202.524 16.6009 202.192 17.0661 201.914 17.6617C201.637 18.2572 201.489 19.0389 201.489 20.0066V31.4523H196.087V11.7062H201.174Z" fill="#203B73"/>
<path d="M57.4756 44.5356L60.7129 53.1897L63.9502 44.5356H65.8186V54.8461H64.5237V46.2665H64.4867L61.2864 54.8461H60.121L56.9207 46.2665H56.8837V54.8461H55.5888V44.5356H57.4756V44.5356Z" fill="#203B73"/>
<path d="M76.6774 44.5356V54.8461H75.3085V44.5356H76.6774V44.5356Z" fill="#203B73"/>
<path d="M87.5732 44.5356L92.9748 52.8919H93.0118V44.5356H94.3067V54.8461H92.8083L87.4622 46.5828H87.4252V54.8461H86.1302V44.5356H87.5732V44.5356Z" fill="#203B73"/>
<path d="M105.091 44.5356V54.8461H103.723V44.5356H105.091V44.5356Z" fill="#203B73"/>
<path d="M118.281 44.5356C118.503 44.5356 118.744 44.5356 118.984 44.5356C119.243 44.5356 119.483 44.5543 119.742 44.5729C119.983 44.5915 120.223 44.6287 120.445 44.6845C120.667 44.7404 120.852 44.7962 121 44.9079C121.333 45.1126 121.611 45.3917 121.851 45.7454C122.092 46.099 122.203 46.5456 122.203 47.0667C122.203 47.6064 122.073 48.0903 121.814 48.4811C121.555 48.872 121.167 49.1697 120.686 49.3745V49.4117C121.315 49.542 121.796 49.8397 122.129 50.2864C122.462 50.7331 122.628 51.2728 122.628 51.9055C122.628 52.2778 122.554 52.65 122.425 53.0036C122.295 53.3572 122.092 53.6736 121.833 53.9527C121.574 54.2319 121.241 54.4552 120.852 54.6227C120.464 54.7902 120.02 54.8833 119.502 54.8833H114.544V44.5729H118.281V44.5356ZM118.651 48.965C119.428 48.965 119.983 48.8348 120.316 48.5556C120.649 48.2764 120.834 47.867 120.834 47.3273C120.834 46.9551 120.778 46.6759 120.667 46.4526C120.556 46.2478 120.39 46.0803 120.186 45.9687C119.983 45.857 119.761 45.7826 119.483 45.7454C119.225 45.7081 118.947 45.6895 118.651 45.6895H115.932V48.965H118.651V48.965ZM119.354 53.6922C119.964 53.6922 120.427 53.5247 120.76 53.2083C121.093 52.8733 121.278 52.4267 121.278 51.8497C121.278 51.5147 121.222 51.2356 121.093 51.0122C120.963 50.7889 120.797 50.6214 120.593 50.4911C120.39 50.3608 120.149 50.2678 119.89 50.212C119.631 50.1561 119.354 50.1375 119.058 50.1375H115.95V53.7108H119.354V53.6922Z" fill="#203B73"/>
<path d="M131.304 47.6623C131.508 47.0109 131.822 46.4339 132.229 45.9315C132.636 45.429 133.154 45.0381 133.765 44.7404C134.375 44.4426 135.096 44.2937 135.91 44.2937C136.724 44.2937 137.427 44.4426 138.056 44.7404C138.667 45.0381 139.185 45.4476 139.592 45.9315C139.999 46.4339 140.313 47.0109 140.517 47.6623C140.72 48.3136 140.831 48.9836 140.831 49.6908C140.831 50.3981 140.72 51.068 140.517 51.7194C140.313 52.3708 139.999 52.9477 139.592 53.4502C139.185 53.9527 138.667 54.3436 138.056 54.6413C137.446 54.9391 136.724 55.088 135.91 55.088C135.096 55.088 134.393 54.9391 133.765 54.6413C133.154 54.3436 132.636 53.9527 132.229 53.4502C131.822 52.9477 131.508 52.3708 131.304 51.7194C131.101 51.068 130.99 50.3981 130.99 49.6908C131.008 48.9836 131.101 48.3136 131.304 47.6623ZM132.562 51.2355C132.692 51.738 132.914 52.2033 133.191 52.5941C133.487 53.0036 133.839 53.32 134.301 53.5619C134.745 53.8038 135.281 53.9341 135.91 53.9341C136.539 53.9341 137.076 53.8038 137.52 53.5619C137.964 53.32 138.334 52.985 138.63 52.5941C138.926 52.2033 139.129 51.738 139.259 51.2355C139.388 50.7331 139.462 50.2119 139.462 49.6908C139.462 49.1697 139.388 48.6673 139.259 48.1461C139.129 47.6437 138.907 47.1784 138.63 46.7876C138.352 46.3967 137.982 46.0617 137.52 45.8198C137.076 45.5778 136.539 45.4476 135.91 45.4476C135.281 45.4476 134.745 45.5778 134.301 45.8198C133.857 46.0617 133.487 46.3967 133.191 46.7876C132.895 47.197 132.692 47.6437 132.562 48.1461C132.433 48.6486 132.359 49.1697 132.359 49.6908C132.359 50.2119 132.433 50.7144 132.562 51.2355Z" fill="#203B73"/>
<path d="M153.17 44.5356C154.742 44.5356 155.963 44.9451 156.814 45.7453C157.665 46.5456 158.09 47.7925 158.09 49.4489C158.09 50.3236 157.998 51.0867 157.794 51.7567C157.609 52.4266 157.313 52.985 156.906 53.4502C156.499 53.9155 156 54.2505 155.371 54.4924C154.742 54.7344 154.021 54.8461 153.17 54.8461H149.655V44.5356H153.17V44.5356ZM153.281 53.6922C153.429 53.6922 153.632 53.6736 153.854 53.655C154.076 53.6363 154.335 53.5805 154.594 53.4875C154.853 53.3944 155.112 53.2641 155.371 53.0966C155.63 52.9291 155.852 52.6872 156.056 52.3894C156.259 52.0916 156.425 51.7194 156.555 51.2728C156.684 50.8261 156.74 50.2864 156.74 49.6536C156.74 49.0395 156.684 48.4811 156.555 47.9973C156.444 47.5134 156.24 47.1039 155.963 46.7503C155.686 46.4153 155.334 46.1548 154.909 45.9687C154.483 45.7826 153.947 45.7081 153.318 45.7081H151.024V53.7108H153.281V53.6922Z" fill="#203B73"/>
<path d="M173.999 44.5356V45.6895H168.283V48.965H173.611V50.1189H168.283V53.6922H174.036V54.8461H166.914V44.5356H173.999V44.5356Z" fill="#203B73"/>
<path d="M189.039 54.7158C188.447 54.9578 187.855 55.0694 187.244 55.0694C186.486 55.0694 185.802 54.9205 185.191 54.6414C184.581 54.3622 184.081 53.9714 183.656 53.4875C183.23 53.0036 182.916 52.4453 182.694 51.8311C182.472 51.1984 182.361 50.547 182.361 49.877C182.361 49.1326 182.472 48.4068 182.675 47.7368C182.879 47.0668 183.193 46.4712 183.6 45.9501C184.007 45.4476 184.507 45.0382 185.117 44.7218C185.728 44.424 186.431 44.2751 187.244 44.2751C187.799 44.2751 188.317 44.331 188.817 44.4613C189.316 44.5915 189.742 44.7963 190.13 45.0754C190.519 45.3546 190.852 45.7082 191.111 46.1362C191.37 46.5643 191.555 47.0854 191.647 47.6809H190.278C190.204 47.2901 190.093 46.9551 189.908 46.6573C189.723 46.3782 189.501 46.1362 189.242 45.9501C188.983 45.764 188.669 45.6337 188.336 45.5407C188.003 45.4476 187.633 45.4104 187.244 45.4104C186.615 45.4104 186.098 45.5407 185.654 45.7826C185.21 46.0246 184.84 46.3596 184.562 46.769C184.285 47.1784 184.063 47.6437 183.933 48.1648C183.804 48.6859 183.73 49.2256 183.73 49.7653C183.73 50.3051 183.804 50.8262 183.952 51.31C184.1 51.8125 184.322 52.2406 184.618 52.6314C184.914 53.0036 185.284 53.32 185.709 53.5433C186.153 53.7667 186.652 53.8783 187.226 53.8783C187.762 53.8783 188.243 53.7853 188.65 53.6178C189.057 53.4503 189.409 53.2083 189.686 52.9106C189.964 52.6128 190.186 52.2592 190.334 51.8498C190.482 51.4403 190.537 50.9937 190.519 50.5284H187.244V49.3745H191.74V54.8089H190.87L190.519 53.5247C190.13 54.1017 189.631 54.4925 189.039 54.7158Z" fill="#203B73"/>
<path d="M205.225 44.5356L209.221 54.8461H207.723L206.594 51.738H202.265L201.118 54.8461H199.731L203.727 44.5356H205.225V44.5356ZM206.169 50.5842L204.467 45.7826H204.43L202.691 50.5842H206.169Z" fill="#203B73"/>
<path d="M222.54 45.9501C222.078 45.6151 221.504 45.4476 220.801 45.4476C220.505 45.4476 220.228 45.4849 219.95 45.5407C219.673 45.5965 219.432 45.6896 219.21 45.8385C218.988 45.9687 218.822 46.1548 218.692 46.3782C218.563 46.6015 218.507 46.8807 218.507 47.2157C218.507 47.532 218.6 47.7926 218.785 47.9787C218.97 48.1834 219.229 48.3323 219.525 48.4626C219.839 48.5929 220.191 48.6859 220.579 48.779C220.968 48.8534 221.375 48.9465 221.782 49.0395C222.189 49.1326 222.596 49.2442 222.984 49.3745C223.373 49.5048 223.724 49.6723 224.038 49.8956C224.353 50.1189 224.593 50.3981 224.778 50.7331C224.963 51.0681 225.056 51.4961 225.056 51.9986C225.056 52.5384 224.926 53.0222 224.686 53.4131C224.445 53.8039 224.131 54.1203 223.743 54.3622C223.354 54.6042 222.929 54.7903 222.466 54.9019C221.985 55.0136 221.523 55.0694 221.06 55.0694C220.487 55.0694 219.95 54.995 219.432 54.8461C218.914 54.6972 218.47 54.4739 218.082 54.1947C217.693 53.8969 217.379 53.5247 217.157 53.0781C216.935 52.6128 216.824 52.0731 216.824 51.4589H218.119C218.119 51.887 218.211 52.2592 218.378 52.5756C218.544 52.892 218.766 53.1525 219.044 53.3386C219.321 53.5247 219.636 53.6922 220.006 53.7853C220.376 53.8783 220.746 53.9342 221.134 53.9342C221.449 53.9342 221.745 53.8969 222.059 53.8411C222.374 53.7853 222.651 53.6922 222.892 53.5433C223.132 53.4131 223.336 53.2083 223.502 52.9664C223.65 52.7245 223.724 52.4267 223.724 52.0359C223.724 51.6823 223.632 51.3845 223.447 51.1612C223.262 50.9378 223.003 50.7517 222.707 50.6214C222.392 50.4912 222.041 50.3609 221.652 50.2864C221.264 50.1934 220.857 50.1189 220.45 50.0259C220.043 49.9328 219.636 49.8212 219.247 49.7095C218.859 49.5978 218.507 49.4303 218.193 49.2256C217.878 49.0209 217.638 48.779 217.453 48.4626C217.268 48.1462 217.175 47.7554 217.175 47.2901C217.175 46.769 217.286 46.3223 217.49 45.9315C217.693 45.5593 217.971 45.2429 218.322 45.001C218.674 44.759 219.062 44.5729 219.506 44.4613C219.95 44.3496 220.413 44.2751 220.875 44.2751C221.393 44.2751 221.893 44.331 222.337 44.4613C222.781 44.5915 223.188 44.7776 223.521 45.0568C223.854 45.3174 224.131 45.671 224.316 46.0804C224.519 46.4898 224.612 46.9737 224.63 47.5507H223.336C223.262 46.8062 223.003 46.2851 222.54 45.9501Z" fill="#203B73"/>
</g>
<defs>
<clipPath id="clip0">
<rect width="226.036" height="56" fill="white"/>
</clipPath>
</defs>
</svg>
