<svg width="153" height="47" viewBox="0 0 153 47" fill="none" xmlns="http://www.w3.org/2000/svg">
<path d="M49.728 11.368H55.092C56.268 11.368 57.264 11.548 58.08 11.908C58.92 12.268 59.604 12.748 60.132 13.348C60.66 13.948 61.032 14.644 61.248 15.436C61.488 16.204 61.608 17.008 61.608 17.848V18.784C61.608 19.48 61.548 20.068 61.428 20.548C61.332 21.028 61.176 21.448 60.96 21.808C60.744 22.168 60.48 22.492 60.168 22.78C59.856 23.044 59.496 23.296 59.088 23.536C59.952 23.944 60.588 24.556 60.996 25.372C61.404 26.164 61.608 27.232 61.608 28.576V30.016C61.608 32.272 61.056 34 59.952 35.2C58.872 36.4 57.132 37 54.732 37H49.728V11.368ZM53.4 33.328H54.984C55.728 33.328 56.304 33.22 56.712 33.004C57.144 32.788 57.468 32.488 57.684 32.104C57.9 31.72 58.032 31.264 58.08 30.736C58.128 30.208 58.152 29.632 58.152 29.008C58.152 28.36 58.116 27.796 58.044 27.316C57.972 26.836 57.816 26.44 57.576 26.128C57.36 25.792 57.048 25.54 56.64 25.372C56.232 25.204 55.692 25.12 55.02 25.12H53.4V33.328ZM53.4 21.88H55.056C56.28 21.88 57.096 21.58 57.504 20.98C57.936 20.356 58.152 19.456 58.152 18.28C58.152 17.128 57.912 16.264 57.432 15.688C56.976 15.112 56.136 14.824 54.912 14.824H53.4V21.88ZM64.5161 24.868C64.5161 24.124 64.5641 23.44 64.6601 22.816C64.7561 22.192 64.9361 21.64 65.2001 21.16C65.6321 20.368 66.2561 19.732 67.0721 19.252C67.8881 18.772 68.8601 18.532 69.9881 18.532C71.1161 18.532 72.0881 18.772 72.9041 19.252C73.7201 19.732 74.3441 20.368 74.7761 21.16C75.0401 21.64 75.2201 22.192 75.3161 22.816C75.4121 23.44 75.4601 24.124 75.4601 24.868V30.88C75.4601 31.624 75.4121 32.308 75.3161 32.932C75.2201 33.556 75.0401 34.108 74.7761 34.588C74.3441 35.38 73.7201 36.016 72.9041 36.496C72.0881 36.976 71.1161 37.216 69.9881 37.216C68.8601 37.216 67.8881 36.976 67.0721 36.496C66.2561 36.016 65.6321 35.38 65.2001 34.588C64.9361 34.108 64.7561 33.556 64.6601 32.932C64.5641 32.308 64.5161 31.624 64.5161 30.88V24.868ZM68.1881 31.456C68.1881 32.152 68.3441 32.68 68.6561 33.04C68.9921 33.376 69.4361 33.544 69.9881 33.544C70.5401 33.544 70.9721 33.376 71.2841 33.04C71.6201 32.68 71.7881 32.152 71.7881 31.456V24.292C71.7881 23.596 71.6201 23.08 71.2841 22.744C70.9721 22.384 70.5401 22.204 69.9881 22.204C69.4361 22.204 68.9921 22.384 68.6561 22.744C68.3441 23.08 68.1881 23.596 68.1881 24.292V31.456ZM81.8363 31.06C81.8363 31.804 81.9803 32.404 82.2683 32.86C82.5563 33.316 83.0123 33.544 83.6363 33.544C84.1883 33.544 84.6323 33.34 84.9683 32.932C85.3043 32.5 85.4723 31.948 85.4723 31.276V24.184C85.4723 23.608 85.2923 23.14 84.9323 22.78C84.5963 22.396 84.1643 22.204 83.6363 22.204C82.9403 22.204 82.4603 22.42 82.1963 22.852C81.9563 23.284 81.8363 23.788 81.8363 24.364V31.06ZM85.4723 35.344C85.2323 35.608 85.0043 35.86 84.7883 36.1C84.5723 36.316 84.3323 36.508 84.0683 36.676C83.8043 36.844 83.5043 36.976 83.1683 37.072C82.8323 37.168 82.4363 37.216 81.9803 37.216C80.4683 37.216 79.4003 36.64 78.7763 35.488C78.5603 35.08 78.4043 34.576 78.3083 33.976C78.2123 33.376 78.1643 32.572 78.1643 31.564V24.616C78.1643 23.296 78.2003 22.324 78.2723 21.7C78.3443 21.076 78.5003 20.572 78.7403 20.188C79.0523 19.708 79.4483 19.312 79.9283 19C80.4323 18.688 81.1283 18.532 82.0163 18.532C82.7363 18.532 83.3723 18.7 83.9243 19.036C84.5003 19.348 84.9923 19.804 85.4003 20.404H85.4723V11.368H89.1443V37H85.4723V35.344ZM95.5045 29.26V31.744C95.5045 32.32 95.6605 32.764 95.9725 33.076C96.3085 33.388 96.7525 33.544 97.3045 33.544C98.0005 33.544 98.4565 33.34 98.6725 32.932C98.9125 32.524 99.0565 32.116 99.1045 31.708H102.777C102.777 32.476 102.645 33.196 102.381 33.868C102.141 34.54 101.781 35.116 101.301 35.596C100.821 36.1 100.245 36.496 99.5725 36.784C98.9005 37.072 98.1445 37.216 97.3045 37.216C96.1765 37.216 95.2045 36.976 94.3885 36.496C93.5725 36.016 92.9485 35.38 92.5165 34.588C92.2525 34.108 92.0725 33.556 91.9765 32.932C91.8805 32.308 91.8325 31.624 91.8325 30.88V24.868C91.8325 24.124 91.8805 23.44 91.9765 22.816C92.0725 22.192 92.2525 21.64 92.5165 21.16C92.9485 20.368 93.5725 19.732 94.3885 19.252C95.2045 18.772 96.1765 18.532 97.3045 18.532C98.1445 18.532 98.9005 18.676 99.5725 18.964C100.269 19.252 100.845 19.66 101.301 20.188C101.781 20.692 102.141 21.292 102.381 21.988C102.645 22.684 102.777 23.428 102.777 24.22V29.26H95.5045ZM95.5045 26.38H99.1045V24.292C99.1045 23.596 98.9365 23.08 98.6005 22.744C98.2885 22.384 97.8565 22.204 97.3045 22.204C96.7525 22.204 96.3085 22.384 95.9725 22.744C95.6605 23.08 95.5045 23.596 95.5045 24.292V26.38ZM109.153 39.124C109.177 39.556 109.345 39.964 109.657 40.348C109.993 40.732 110.473 40.924 111.097 40.924C111.697 40.924 112.129 40.732 112.393 40.348C112.657 39.988 112.789 39.52 112.789 38.944V35.344H112.717C112.309 35.944 111.817 36.412 111.241 36.748C110.689 37.06 110.041 37.216 109.297 37.216C107.785 37.216 106.717 36.64 106.093 35.488C105.877 35.08 105.721 34.576 105.625 33.976C105.529 33.376 105.481 32.572 105.481 31.564V24.616C105.481 23.296 105.517 22.324 105.589 21.7C105.661 21.076 105.817 20.572 106.057 20.188C106.369 19.708 106.765 19.312 107.245 19C107.749 18.688 108.445 18.532 109.333 18.532C109.789 18.532 110.173 18.58 110.485 18.676C110.821 18.772 111.121 18.904 111.385 19.072C111.649 19.24 111.889 19.444 112.105 19.684C112.321 19.9 112.549 20.14 112.789 20.404V18.748H116.461V39.232C116.461 39.856 116.353 40.48 116.137 41.104C115.945 41.752 115.621 42.328 115.165 42.832C114.709 43.36 114.133 43.78 113.437 44.092C112.741 44.428 111.913 44.596 110.953 44.596C110.401 44.596 109.825 44.5 109.225 44.308C108.625 44.14 108.061 43.84 107.533 43.408C107.029 43 106.585 42.448 106.201 41.752C105.841 41.056 105.601 40.18 105.481 39.124H109.153ZM109.153 31.384C109.153 31.96 109.273 32.464 109.513 32.896C109.777 33.328 110.257 33.544 110.953 33.544C111.481 33.544 111.913 33.364 112.249 33.004C112.609 32.62 112.789 32.14 112.789 31.564V24.472C112.789 23.8 112.621 23.26 112.285 22.852C111.949 22.42 111.505 22.204 110.953 22.204C110.329 22.204 109.873 22.432 109.585 22.888C109.297 23.344 109.153 23.944 109.153 24.688V31.384ZM119.149 24.868C119.149 24.124 119.197 23.44 119.293 22.816C119.389 22.192 119.569 21.64 119.833 21.16C120.265 20.368 120.889 19.732 121.705 19.252C122.521 18.772 123.493 18.532 124.621 18.532C125.749 18.532 126.721 18.772 127.537 19.252C128.353 19.732 128.977 20.368 129.409 21.16C129.673 21.64 129.853 22.192 129.949 22.816C130.045 23.44 130.093 24.124 130.093 24.868V30.88C130.093 31.624 130.045 32.308 129.949 32.932C129.853 33.556 129.673 34.108 129.409 34.588C128.977 35.38 128.353 36.016 127.537 36.496C126.721 36.976 125.749 37.216 124.621 37.216C123.493 37.216 122.521 36.976 121.705 36.496C120.889 36.016 120.265 35.38 119.833 34.588C119.569 34.108 119.389 33.556 119.293 32.932C119.197 32.308 119.149 31.624 119.149 30.88V24.868ZM122.821 31.456C122.821 32.152 122.977 32.68 123.289 33.04C123.625 33.376 124.069 33.544 124.621 33.544C125.173 33.544 125.605 33.376 125.917 33.04C126.253 32.68 126.421 32.152 126.421 31.456V24.292C126.421 23.596 126.253 23.08 125.917 22.744C125.605 22.384 125.173 22.204 124.621 22.204C124.069 22.204 123.625 22.384 123.289 22.744C122.977 23.08 122.821 23.596 122.821 24.292V31.456ZM132.797 18.748H136.469V20.512H136.541C136.925 19.936 137.381 19.468 137.909 19.108C138.461 18.724 139.157 18.532 139.997 18.532C140.789 18.532 141.449 18.724 141.977 19.108C142.505 19.492 142.937 19.912 143.273 20.368C143.729 19.864 144.233 19.432 144.785 19.072C145.337 18.712 146.105 18.532 147.089 18.532C147.545 18.532 148.013 18.616 148.493 18.784C148.973 18.928 149.405 19.18 149.789 19.54C150.173 19.9 150.485 20.368 150.725 20.944C150.965 21.496 151.085 22.18 151.085 22.996V37H147.413V24.364C147.413 23.692 147.257 23.164 146.945 22.78C146.633 22.396 146.189 22.204 145.613 22.204C144.917 22.204 144.437 22.42 144.173 22.852C143.909 23.284 143.777 23.908 143.777 24.724V37H140.105V24.364C140.105 23.692 139.949 23.164 139.637 22.78C139.325 22.396 138.881 22.204 138.305 22.204C137.609 22.204 137.129 22.42 136.865 22.852C136.601 23.284 136.469 23.908 136.469 24.724V37H132.797V18.748Z" fill="#00357E"/>
<path d="M8.65055 28.9383C8.65055 28.9383 8.40072 34.2674 8.61208 34.6965C8.61208 34.6965 8.79824 43.2472 21.6797 43.9583C21.6797 43.9583 29.889 44.5099 33.7207 39.8442C33.7207 39.8442 36.0834 37.0899 35.9981 33.7178L36.1583 29.8414L22.659 21.9494L8.65055 28.9383ZM26.0853 29.086C26.2887 31.4646 24.0921 32.6608 24.0921 32.6608L25.1246 38.9386C25.2457 39.1043 25.5142 40.4517 22.0896 40.4583C18.7106 40.4574 18.9606 38.8391 18.9606 38.8391L20.455 32.5168C18.4512 31.1764 18.7864 29.2195 18.7864 29.2195C19.3419 25.4636 22.7272 25.7882 22.7272 25.7882C25.9903 26.2256 26.0853 29.086 26.0853 29.086Z" fill="#00357E"/>
<path d="M41.1829 24.9176L23.6847 14.9867C23.6847 14.9867 23.1171 14.5128 22.327 15.0682L4.50608 23.7181C4.50608 23.7181 3.48748 24.0747 4.04297 25.0704L5.61408 28.0733C5.61408 28.0733 6.07648 28.8008 6.73108 28.315L22.6404 20.5466L38.5365 29.3704C38.5365 29.3704 39.1064 29.5602 39.4272 29.1293L41.4447 25.9144C41.4372 25.8684 41.7429 25.3454 41.1829 24.9176Z" fill="#E77122"/>
<path d="M23.1578 3.46144C15.4936 3.42394 9.18574 9.55718 9.11205 17.1169L9.09641 20.5808L15.3194 17.4901L15.313 17.1547C15.3556 12.9652 18.8433 9.55528 23.0983 9.62466C27.3457 9.64723 30.7392 13.0792 30.7441 17.2608L36.9232 16.8696C36.7825 9.48934 30.6795 3.52237 23.1578 3.46144Z" fill="#00357E"/>
</svg>
