<svg width="117" height="117" viewBox="0 0 117 117" fill="none" xmlns="http://www.w3.org/2000/svg">
<path d="M96.8906 60.3281C86.7942 60.3281 78.6094 68.5129 78.6094 78.6094C78.6094 88.7058 86.7942 96.8906 96.8906 96.8906C106.987 96.8906 115.172 88.7058 115.172 78.6094C115.172 68.5129 106.987 60.3281 96.8906 60.3281ZM20.1094 60.3281C10.0129 60.3281 1.82812 68.5129 1.82812 78.6094C1.82812 88.7058 10.0129 96.8906 20.1094 96.8906C30.2058 96.8906 38.3906 88.7058 38.3906 78.6094C38.3906 68.5129 30.2058 60.3281 20.1094 60.3281Z" fill="#EAEAEA"/>
<path d="M20.1094 67.6406C14.0515 67.6406 9.14062 72.5515 9.14062 78.6094C9.14062 84.6672 14.0515 89.5781 20.1094 89.5781C26.1672 89.5781 31.0781 84.6672 31.0781 78.6094C31.0781 72.5515 26.1672 67.6406 20.1094 67.6406ZM96.8906 67.6406C90.8328 67.6406 85.9219 72.5515 85.9219 78.6094C85.9219 84.6672 90.8328 89.5781 96.8906 89.5781C102.949 89.5781 107.859 84.6672 107.859 78.6094C107.859 72.5515 102.949 67.6406 96.8906 67.6406Z" fill="#CCCCCC"/>
<path d="M56.6719 47.5313C56.6719 47.5313 62.1563 54.8438 67.6406 54.8438C73.125 54.8438 82.2656 45.7031 82.2656 45.7031L76.7813 32.9062C76.7813 32.9062 73.125 32.9062 65.8125 34.7344C58.5 36.5625 56.6719 38.3906 56.6719 38.3906H12.7969L18.2813 47.5313L32.9063 54.8438L56.6719 47.5313Z" fill="#E87022"/>
<path d="M76.7812 32.9062C76.7812 32.9062 73.7593 32.9209 67.7759 34.2737C67.8892 35.025 68.0665 35.7764 68.3792 36.5077L73.8635 49.3045C74.2218 50.14 74.6953 50.8913 75.2492 51.555C79.0262 48.9334 82.2656 45.7031 82.2656 45.7031L76.7812 32.9062Z" fill="#E87022"/>
<path d="M45.7031 58.5L49.3594 71.2969C49.3594 71.2969 54.8438 74.9531 58.5 74.9531C62.1563 74.9531 67.6406 71.2969 67.6406 65.8125C67.6406 60.3281 67.6406 54.767 67.6406 54.767C67.6406 54.767 65.8125 54.8438 62.1563 53.0156C58.5 51.1875 56.6719 47.5312 56.6719 47.5312V63.9844L45.7031 58.5Z" fill="#CCCCCC"/>
<path d="M56.6719 47.5312V63.8875L66.935 69.0867C67.3737 68.0903 67.6406 66.9971 67.6406 65.8125C67.6406 60.3281 67.6406 54.767 67.6406 54.767C67.6406 54.767 65.8125 54.8438 62.1563 53.0156C58.5 51.1875 56.6719 47.5312 56.6719 47.5312Z" fill="#EAEAEA"/>
<path d="M20.1094 98.7188C9.0218 98.7188 0 89.697 0 78.6094C0 67.5218 9.0218 58.5 20.1094 58.5C31.197 58.5 40.2188 67.5218 40.2188 78.6094C40.2188 89.697 31.197 98.7188 20.1094 98.7188ZM20.1094 62.1563C11.0364 62.1563 3.65625 69.5364 3.65625 78.6094C3.65625 87.6824 11.0364 95.0625 20.1094 95.0625C29.1824 95.0625 36.5625 87.6824 36.5625 78.6094C36.5625 69.5364 29.1824 62.1563 20.1094 62.1563Z" fill="#333333"/>
<path d="M20.1094 91.4063C13.0546 91.4063 7.3125 85.6642 7.3125 78.6094C7.3125 76.2968 7.93772 74.0281 9.11869 72.0501C9.63604 71.1817 10.7603 70.902 11.625 71.4176C12.4934 71.9349 12.7749 73.0556 12.2576 73.9239C11.4148 75.3371 10.9687 76.9586 10.9687 78.6094C10.9687 83.6496 15.0692 87.75 20.1094 87.75C21.9412 87.75 23.7089 87.2107 25.219 86.1888C26.0581 85.6239 27.1915 85.8451 27.7582 86.6824C28.3231 87.5179 28.1019 88.655 27.2647 89.2217C25.1477 90.6513 22.6724 91.4063 20.1094 91.4063L20.1094 91.4063ZM98.4354 91.2984C97.5396 91.2984 96.7572 90.6403 96.6274 89.7281C96.4866 88.7281 97.1813 87.8031 98.1813 87.6605C99.8101 87.4283 101.349 86.7592 102.638 85.719C106.56 82.5527 107.17 76.785 104.004 72.8636C102.852 71.4414 101.322 70.403 99.5798 69.8692C98.6145 69.573 98.0716 68.5493 98.3677 67.5858C98.6639 66.6224 99.6858 66.0776 100.651 66.3738C103.093 67.1233 105.236 68.573 106.848 70.5657C111.283 76.0574 110.424 84.1304 104.936 88.5654C103.135 90.0169 100.978 90.9566 98.6968 91.2802C98.6054 91.293 98.5213 91.2984 98.4354 91.2984V91.2984ZM86.4045 77.2146C86.2272 77.2146 86.048 77.189 85.8689 77.1341C84.9036 76.838 84.3607 75.8142 84.6568 74.8508C85.4063 72.4084 86.856 70.2659 88.8487 68.6535C89.7957 67.8911 90.8322 67.2714 91.9346 66.8071C92.8633 66.4213 93.9364 66.8509 94.3294 67.7833C94.7206 68.7156 94.2837 69.7869 93.3532 70.1781C92.5635 70.5108 91.8212 70.9532 91.1448 71.4998C89.7244 72.6497 88.686 74.1799 88.1522 75.9221C87.9109 76.71 87.1851 77.2146 86.4045 77.2146V77.2146Z" fill="#333333"/>
<path d="M96.8906 98.7188C85.803 98.7188 76.7813 89.697 76.7813 78.6094C76.7813 67.5218 85.803 58.5 96.8906 58.5C107.978 58.5 117 67.5218 117 78.6094C117 89.697 107.978 98.7188 96.8906 98.7188ZM96.8906 62.1563C87.8176 62.1563 80.4375 69.5364 80.4375 78.6094C80.4375 87.6824 87.8176 95.0625 96.8906 95.0625C105.964 95.0625 113.344 87.6824 113.344 78.6094C113.344 69.5364 105.964 62.1563 96.8906 62.1563ZM107.858 54.8419C107.475 54.8419 107.09 54.7231 106.761 54.4763C103.898 52.3246 100.485 51.1875 96.8906 51.1875C95.8797 51.1875 95.0625 50.3703 95.0625 49.3594C95.0625 48.3484 95.8797 47.5312 96.8906 47.5312C101.282 47.5312 105.455 48.9225 108.958 51.5513C109.764 52.1582 109.927 53.3045 109.322 54.1107C108.964 54.5896 108.413 54.8419 107.858 54.8419V54.8419ZM20.1094 73.125C17.0804 73.125 14.625 75.5804 14.625 78.6094C14.625 81.6383 17.0804 84.0938 20.1094 84.0938C23.1383 84.0938 25.5938 81.6383 25.5938 78.6094C25.5938 75.5804 23.1383 73.125 20.1094 73.125Z" fill="#333333"/>
<path d="M96.8906 73.125C93.8617 73.125 91.4063 75.5804 91.4063 78.6094C91.4063 81.6383 93.8617 84.0938 96.8906 84.0938C99.9196 84.0938 102.375 81.6383 102.375 78.6094C102.375 75.5804 99.9196 73.125 96.8906 73.125ZM32.9063 56.6719C32.6247 56.6719 32.3432 56.6079 32.0891 56.4799L17.4641 49.1674C17.1734 49.0212 16.9266 48.8018 16.7475 48.5276L11.3472 40.2188H7.3125C6.30155 40.2188 5.48438 39.4016 5.48438 38.3906C5.48438 37.3797 6.30155 36.5625 7.3125 36.5625H12.3088C12.3307 36.5625 12.3453 36.5625 12.3654 36.5625H56.1015C58.0649 35.2718 65.3226 31.0781 76.7813 31.0781C77.5125 31.0781 78.1743 31.5132 78.4613 32.186L83.9457 44.9828C84.24 45.6684 84.0864 46.4673 83.5581 46.9956C82.5673 47.9865 73.7063 56.6719 67.6406 56.6719C62.5639 56.6719 57.9004 51.8566 56.0247 49.6427L33.4419 56.5914C33.2682 56.6445 33.0872 56.6719 32.9063 56.6719V56.6719ZM56.67 45.7031C57.2368 45.7031 57.7815 45.9664 58.1344 46.4325C59.5128 48.2625 63.9076 53.0156 67.6406 53.0156C70.8015 53.0156 76.5875 48.5696 80.0902 45.268L75.5838 34.7527C64.3537 35.0726 57.8309 39.8074 57.7651 39.8568C57.4507 40.0908 57.0631 40.2188 56.6719 40.2188H15.7091L19.5445 46.1199L33.069 52.8822L56.1344 45.7836C56.3117 45.7306 56.4909 45.7031 56.6701 45.7031L56.67 45.7031ZM97.0424 51.1875H84.2455C83.2345 51.1875 82.4174 50.3703 82.4174 49.3594C82.4174 48.3484 83.2345 47.5313 84.2455 47.5313H97.0424C98.0533 47.5313 98.8705 48.3484 98.8705 49.3594C98.8705 50.3703 98.0533 51.1875 97.0424 51.1875Z" fill="#333333"/>
<path d="M5.48624 54.8419C4.93049 54.8419 4.38205 54.5896 4.02191 54.1125C3.4168 53.3063 3.5795 52.1601 4.3857 51.5531C7.88839 48.9225 12.062 47.5312 16.4532 47.5312C17.4641 47.5312 18.2813 48.3484 18.2813 49.3594C18.2813 50.3703 17.4641 51.1875 16.4532 51.1875C12.8591 51.1875 9.44595 52.3246 6.58311 54.4763C6.25405 54.7231 5.86832 54.8419 5.48624 54.8419Z" fill="#333333"/>
<path d="M21.9375 51.1875H16.3014C15.2904 51.1875 14.4733 50.3703 14.4733 49.3594C14.4733 48.3484 15.2904 47.5313 16.3014 47.5313H21.9375C22.9485 47.5313 23.7656 48.3484 23.7656 49.3594C23.7656 50.3703 22.9485 51.1875 21.9375 51.1875ZM87.75 62.1563C87.0261 62.1563 86.3387 61.723 86.0517 61.0064L71.8874 25.5938H63.9844C62.9734 25.5938 62.1563 24.7766 62.1563 23.7656C62.1563 22.7547 62.9734 21.9375 63.9844 21.9375H73.125C73.8727 21.9375 74.5436 22.3927 74.8233 23.0874L89.4483 59.6499C89.8231 60.5877 89.3661 61.6517 88.4282 62.0265C88.207 62.116 87.9767 62.1563 87.75 62.1563V62.1563ZM20.1094 84.0938C19.8534 84.0938 19.5993 84.0407 19.3617 83.9329C18.8937 83.7245 18.5372 83.3278 18.3763 82.8433L16.5482 77.3589C16.3014 76.6204 16.55 75.805 17.1679 75.3315L44.5898 57.0503C45.1437 56.6262 45.8951 56.553 46.5221 56.8638L54.873 61.0393L54.9955 48.2753C55.0046 47.2717 55.8218 46.4655 56.8236 46.4655C56.8291 46.4655 56.8364 46.4655 56.8419 46.4655C57.851 46.4764 58.6609 47.3009 58.6517 48.3119L58.5 64.0027C58.4945 64.6334 58.1618 65.2147 57.6243 65.5456C57.0869 65.8747 56.4196 65.9003 55.8529 65.6206L45.9097 60.6481L20.4275 77.4376L21.2172 79.8032L48.6409 69.6187C49.3265 69.3243 50.1235 69.4779 50.6537 70.0062C50.6793 70.03 53.8822 73.125 58.5 73.125C62.7358 73.125 65.8125 70.0483 65.8125 65.8125V54.8438C65.8125 53.8328 66.6297 53.0156 67.6406 53.0156C68.6516 53.0156 69.4688 53.8328 69.4688 54.8438V65.8125C69.4688 72.0665 64.754 76.7813 58.5 76.7813C54.0065 76.7813 50.6153 74.6479 49.0376 73.423L20.8278 83.9457C20.6011 84.0444 20.3544 84.0938 20.1094 84.0938L20.1094 84.0938ZM53.0156 32.9063C52.0047 32.9063 51.1875 32.0891 51.1875 31.0781V27.4219C51.1875 26.4109 52.0047 25.5938 53.0156 25.5938C54.0266 25.5938 54.8438 26.4109 54.8438 27.4219V31.0781C54.8438 32.0891 54.0266 32.9063 53.0156 32.9063ZM43.875 32.9063C42.864 32.9063 42.0469 32.0891 42.0469 31.0781V27.4219C42.0469 26.4109 42.864 25.5938 43.875 25.5938C44.886 25.5938 45.7031 26.4109 45.7031 27.4219V31.0781C45.7031 32.0891 44.886 32.9063 43.875 32.9063ZM34.7344 32.9063C33.7234 32.9063 32.9063 32.0891 32.9063 31.0781V27.4219C32.9063 26.4109 33.7234 25.5938 34.7344 25.5938C35.7453 25.5938 36.5625 26.4109 36.5625 27.4219V31.0781C36.5625 32.0891 35.7453 32.9063 34.7344 32.9063ZM25.5938 32.9063C24.5828 32.9063 23.7656 32.0891 23.7656 31.0781V27.4219C23.7656 26.4109 24.5828 25.5938 25.5938 25.5938C26.6047 25.5938 27.4219 26.4109 27.4219 27.4219V31.0781C27.4219 32.0891 26.6047 32.9063 25.5938 32.9063ZM16.4531 32.9063C15.4422 32.9063 14.625 32.0891 14.625 31.0781V27.4219C14.625 26.4109 15.4422 25.5938 16.4531 25.5938C17.4641 25.5938 18.2813 26.4109 18.2813 27.4219V31.0781C18.2813 32.0891 17.4641 32.9063 16.4531 32.9063ZM7.3125 32.9063C6.30155 32.9063 5.48438 32.0891 5.48438 31.0781V27.4219C5.48438 26.4109 6.30155 25.5938 7.3125 25.5938C8.32345 25.5938 9.14063 26.4109 9.14063 27.4219V31.0781C9.14063 32.0891 8.32345 32.9063 7.3125 32.9063Z" fill="#333333"/>
<path d="M43.9448 59.0035L47.4622 57.9985L51.1183 70.7952L47.6009 71.8002L43.9448 59.0035Z" fill="#333333"/>
</svg>
