<svg width="117" height="117" viewBox="0 0 117 117" fill="none" xmlns="http://www.w3.org/2000/svg">
<path d="M16.4531 23.7656H100.547C104.585 23.7656 107.859 27.0395 107.859 31.0781V65.8125H9.14062V31.0781C9.14062 27.0395 12.4145 23.7656 16.4531 23.7656Z" fill="#CCCCCC"/>
<path d="M100.547 42.0469H107.859C111.898 42.0469 115.172 45.3208 115.172 49.3594V78.6094C115.172 80.6287 113.535 82.2656 111.516 82.2656H100.547C98.5276 82.2656 96.8906 80.6287 96.8906 78.6094V45.7031C96.8906 43.6838 98.5276 42.0469 100.547 42.0469ZM9.14063 42.0469H16.4531C18.4724 42.0469 20.1094 43.6838 20.1094 45.7031V78.6094C20.1094 80.6287 18.4724 82.2656 16.4531 82.2656H5.48438C3.46508 82.2656 1.82812 80.6287 1.82812 78.6094V49.3594C1.82812 45.3208 5.10204 42.0469 9.14063 42.0469Z" fill="#EAEAEA"/>
<path d="M23.7658 89.5781H14.6252L13.3821 97.0003C13.2354 97.8947 13.4936 98.8079 14.0869 99.493C14.6802 100.178 15.5472 100.564 16.4533 100.547C17.606 100.545 18.6596 99.8949 19.1772 98.865L23.7658 89.5781ZM102.375 89.5781H93.2346L97.878 98.865C98.3867 99.8775 99.4142 100.525 100.547 100.547C101.444 100.548 102.295 100.155 102.876 99.4719C103.457 98.7889 103.708 97.8851 103.563 97.0003L102.375 89.5781Z" fill="#E67E22"/>
<path d="M5.48438 63.9844H111.516C113.535 63.9844 115.172 65.6213 115.172 67.6406V82.2656C115.172 86.3042 111.898 89.5781 107.859 89.5781H9.14063C5.10204 89.5781 1.82812 86.3042 1.82812 82.2656V67.6406C1.82812 65.6213 3.46508 63.9844 5.48438 63.9844Z" fill="#EAEAEA"/>
<path d="M100.547 42.0469H111.516C113.535 42.0469 115.172 43.6838 115.172 45.7031C115.172 48.7321 112.716 51.1875 109.688 51.1875H102.375C99.3461 51.1875 96.8906 48.7321 96.8906 45.7031C96.8906 43.6838 98.5276 42.0469 100.547 42.0469ZM5.48438 42.0469H16.4531C18.4724 42.0469 20.1094 43.6838 20.1094 45.7031C20.1094 48.7321 17.6539 51.1875 14.625 51.1875H7.3125C4.28356 51.1875 1.82812 48.7321 1.82812 45.7031C1.82812 43.6838 3.46508 42.0469 5.48438 42.0469Z" fill="#ECF0F1"/>
<path d="M1.82812 82.2656H115.172V84.0938C115.172 87.1227 112.716 89.5781 109.688 89.5781H7.3125C4.28356 89.5781 1.82812 87.1227 1.82812 84.0938V82.2656Z" fill="#CCCCCC"/>
<path d="M12.7969 23.7656H104.203C106.222 23.7656 107.859 25.4026 107.859 27.4219C107.859 30.4508 105.404 32.9063 102.375 32.9063H14.625C11.5961 32.9063 9.14062 30.4508 9.14062 27.4219C9.14062 25.4026 10.7776 23.7656 12.7969 23.7656Z" fill="#ECF0F1"/>
<path d="M109.688 40.4016V31.0781C109.688 26.0299 105.595 21.9375 100.547 21.9375H16.4531C11.4049 21.9375 7.3125 26.0299 7.3125 31.0781V40.4016C3.05602 41.2704 -0.000884111 45.0151 1.91809e-07 49.3594V82.2656C1.91809e-07 87.3139 4.09239 91.4063 9.14063 91.4063H12.4678L11.5903 96.6895C11.258 99.0351 12.658 101.281 14.9103 102.015C17.1626 102.749 19.617 101.76 20.7309 99.6694L24.8991 91.4063H92.1009L96.2325 99.6694C97.3465 101.76 99.8008 102.749 102.053 102.015C104.305 101.281 105.705 99.0351 105.373 96.6895L104.532 91.4063H107.859C112.908 91.4063 117 87.3139 117 82.2656V49.3594C117.001 45.0151 113.944 41.2704 109.688 40.4016ZM113.344 49.3594V62.4853C112.76 62.2638 112.14 62.1523 111.516 62.1563H98.7188V45.7031C98.7188 44.6935 99.5372 43.875 100.547 43.875H107.859C108.484 43.871 109.104 43.9826 109.688 44.2041C111.873 44.9769 113.337 47.0408 113.344 49.3594ZM16.4531 25.5938H100.547C103.576 25.5938 106.031 28.0492 106.031 31.0781V40.2188H100.547C97.5179 40.2188 95.0625 42.6742 95.0625 45.7031V62.1563H21.9375V45.7031C21.9375 42.6742 19.4821 40.2188 16.4531 40.2188H10.9688V31.0781C10.9688 28.0492 13.4242 25.5938 16.4531 25.5938ZM3.65625 49.3594C3.66277 47.0408 5.12656 44.9769 7.3125 44.2041C7.89637 43.9826 8.51617 43.871 9.14063 43.875H16.4531C17.4628 43.875 18.2813 44.6935 18.2813 45.7031V62.1563H5.48438C4.85992 62.1523 4.24012 62.2638 3.65625 62.4853V49.3594ZM17.4952 98.0424C17.2239 98.5842 16.5972 98.8462 16.0209 98.6587C15.4447 98.4712 15.0922 97.8906 15.1917 97.2928L16.1789 91.4063H20.8041L17.4952 98.0424ZM101.808 97.2928C101.908 97.8905 101.555 98.4712 100.979 98.6587C100.403 98.8462 99.7761 98.5842 99.5048 98.0423L96.1959 91.4062H100.821L101.808 97.2928ZM107.859 87.75H9.14063C6.82209 87.7435 4.75815 86.2797 3.98531 84.0938H93.2344C94.244 84.0938 95.0625 83.2753 95.0625 82.2656C95.0625 81.256 94.244 80.4375 93.2344 80.4375H3.65625V67.6406C3.65625 66.631 4.47473 65.8125 5.48438 65.8125H111.516C112.525 65.8125 113.344 66.631 113.344 67.6406V82.2656C113.339 82.8043 113.259 83.3396 113.106 83.8561C112.406 86.1679 110.275 87.7491 107.859 87.75Z" fill="#333333"/>
<path d="M107.859 80.4375H100.547C99.5372 80.4375 98.7188 81.256 98.7188 82.2656C98.7188 83.2753 99.5372 84.0938 100.547 84.0938H107.859C108.869 84.0938 109.688 83.2753 109.688 82.2656C109.688 81.256 108.869 80.4375 107.859 80.4375ZM31.0781 58.5C32.0878 58.5 32.9063 57.6815 32.9063 56.6719V53.0156C32.9063 52.006 32.0878 51.1875 31.0781 51.1875C30.0685 51.1875 29.25 52.006 29.25 53.0156V56.6719C29.25 57.6815 30.0685 58.5 31.0781 58.5ZM40.2188 58.5C41.2284 58.5 42.0469 57.6815 42.0469 56.6719V53.0156C42.0469 52.006 41.2284 51.1875 40.2188 51.1875C39.2091 51.1875 38.3906 52.006 38.3906 53.0156V56.6719C38.3906 57.6815 39.2091 58.5 40.2188 58.5ZM49.3594 58.5C50.369 58.5 51.1875 57.6815 51.1875 56.6719V53.0156C51.1875 52.006 50.369 51.1875 49.3594 51.1875C48.3497 51.1875 47.5313 52.006 47.5313 53.0156V56.6719C47.5313 57.6815 48.3497 58.5 49.3594 58.5ZM58.5 58.5C59.5096 58.5 60.3281 57.6815 60.3281 56.6719V53.0156C60.3281 52.006 59.5096 51.1875 58.5 51.1875C57.4904 51.1875 56.6719 52.006 56.6719 53.0156V56.6719C56.6719 57.6815 57.4904 58.5 58.5 58.5ZM67.6406 58.5C68.6503 58.5 69.4688 57.6815 69.4688 56.6719V53.0156C69.4688 52.006 68.6503 51.1875 67.6406 51.1875C66.631 51.1875 65.8125 52.006 65.8125 53.0156V56.6719C65.8125 57.6815 66.631 58.5 67.6406 58.5ZM76.7813 58.5C77.7909 58.5 78.6094 57.6815 78.6094 56.6719V53.0156C78.6094 52.006 77.7909 51.1875 76.7813 51.1875C75.7716 51.1875 74.9531 52.006 74.9531 53.0156V56.6719C74.9531 57.6815 75.7716 58.5 76.7813 58.5ZM85.9219 58.5C86.9315 58.5 87.75 57.6815 87.75 56.6719V53.0156C87.75 52.006 86.9315 51.1875 85.9219 51.1875C84.9122 51.1875 84.0938 52.006 84.0938 53.0156V56.6719C84.0938 57.6815 84.9122 58.5 85.9219 58.5Z" fill="#333333"/>
</svg>
