<svg width="134" height="106" viewBox="0 0 134 106" fill="none" xmlns="http://www.w3.org/2000/svg">
<path d="M71.0659 8.42999C71.0659 8.42999 57.7772 -10.2783 42.0711 8.13832L16.8711 8.17999C16.8711 8.17999 2.08333 9.06888 0.0170898 24.8189V89.6105C0.0170898 89.6105 0.624807 103.861 16.9926 105.999L117.36 105.874C117.36 105.874 132.634 104.986 133.728 88.2217V25.1939C133.728 25.1939 133.607 10.1939 116.753 8.17999L72.0653 8.44388" fill="white"/>
<path d="M71.0389 8.44444C70.6068 7.86111 70.1341 7.30556 69.6479 6.77778C69.1617 6.25 68.6486 5.73611 68.1219 5.25C67.055 4.27778 65.9206 3.38889 64.7051 2.625C63.4897 1.86111 62.1933 1.23611 60.8293 0.791667C59.4788 0.347222 58.0608 0.0972222 56.6293 0.0694444C55.9135 0.0555556 55.2113 0.0972222 54.4955 0.208333C53.7933 0.319444 53.091 0.472222 52.4158 0.680556C51.727 0.875 51.0653 1.15278 50.4171 1.44444C49.7688 1.73611 49.1341 2.09722 48.5264 2.45833C47.9187 2.84722 47.3245 3.23611 46.7573 3.68056C46.1765 4.11111 45.6364 4.58333 45.0962 5.05555C44.8261 5.29167 44.5695 5.54167 44.2994 5.79167L43.5296 6.55555L42.7868 7.34722L42.0711 8.16667H42.0576L29.4171 8.19444L23.0968 8.20833H19.9367C18.8833 8.20833 17.8299 8.20833 16.7766 8.22222C16.2499 8.26389 15.7367 8.34722 15.21 8.44444C14.6968 8.54167 14.1836 8.66667 13.6705 8.80555C12.6576 9.08333 11.6582 9.44444 10.6859 9.875C8.75471 10.7361 6.95857 11.9167 5.41902 13.4028C4.64925 14.1389 3.9605 14.9722 3.33928 15.8333L2.88012 16.5L2.47497 17.1944C2.32642 17.4167 2.21838 17.6667 2.09684 17.9028L1.90777 18.2639C1.85375 18.3889 1.78623 18.5 1.73221 18.625C1.51613 19.125 1.30005 19.6111 1.12449 20.125C1.02996 20.375 0.935424 20.625 0.854395 20.8889L0.678833 21.6389L0.570794 22.0278L0.476261 22.4167L0.300698 23.2083C0.260184 23.3472 0.246679 23.4861 0.219669 23.625L0.152145 24.0278L0.0306017 24.8333V70.2361V81.5833V87.2639V88.6806V89.3889C0.0170969 89.625 0.0441065 89.8611 0.0711162 90.0972C0.179155 91.0417 0.381727 91.9583 0.638318 92.875C1.1515 94.6944 1.94829 96.4167 2.98816 97.9861C3.1232 98.1805 3.24475 98.375 3.3933 98.5694L3.81195 99.125C3.9605 99.3055 4.10905 99.4861 4.25761 99.6667C4.33864 99.75 4.40616 99.8472 4.48719 99.9305L4.73028 100.181L4.97336 100.431C5.05439 100.514 5.13542 100.597 5.21645 100.681L5.72963 101.167C5.89169 101.333 6.08076 101.472 6.25632 101.625C6.43188 101.778 6.60745 101.931 6.79651 102.056C8.26854 103.181 9.91612 104.069 11.6447 104.708C13.3734 105.347 15.183 105.764 17.0062 106L70.4042 105.931L97.1032 105.903L110.459 105.889L117.131 105.875C117.414 105.889 117.685 105.847 117.955 105.819C118.225 105.778 118.508 105.736 118.778 105.694C119.332 105.597 119.872 105.472 120.412 105.319C121.493 105.028 122.533 104.639 123.559 104.181C125.585 103.25 127.462 101.931 129.002 100.278L129.285 99.9583C129.38 99.8472 129.474 99.75 129.569 99.6389L130.095 98.9722C130.42 98.5139 130.757 98.0555 131.041 97.5555L131.257 97.1944C131.338 97.0694 131.392 96.9444 131.459 96.8194C131.594 96.5694 131.716 96.3194 131.851 96.0555C132.067 95.5278 132.324 95.0139 132.499 94.4722C132.904 93.4028 133.161 92.2917 133.391 91.1667C133.566 90.0417 133.742 88.9028 133.755 87.7639V80.9028V53.4444V25.9861C133.796 24.8472 133.647 23.6944 133.418 22.5833C133.188 21.4583 132.864 20.3611 132.432 19.3056C131.594 17.1944 130.352 15.2361 128.772 13.625C127.989 12.8056 127.111 12.1111 126.179 11.4722L125.828 11.2361C125.706 11.1528 125.598 11.0833 125.477 11.0139L124.748 10.5972C124.626 10.5278 124.504 10.4583 124.369 10.4028L123.991 10.2222C123.735 10.0972 123.492 9.97222 123.235 9.875C121.182 9 118.994 8.47222 116.78 8.20833L72.0923 8.45833L116.78 8.19444C118.994 8.45833 121.169 9 123.235 9.86111C123.492 9.95833 123.748 10.0833 123.991 10.2083L124.369 10.3889C124.491 10.4444 124.626 10.5139 124.748 10.5833L125.477 11C125.598 11.0694 125.72 11.1389 125.828 11.2222L126.179 11.4583C127.111 12.0833 127.989 12.7917 128.772 13.6111C130.352 15.2222 131.594 17.1806 132.432 19.2917C132.85 20.3472 133.188 21.4444 133.418 22.5694C133.647 23.6944 133.796 24.8333 133.755 25.9722V53.4306V80.8889V87.75C133.742 88.8889 133.58 90.0278 133.391 91.1528C133.161 92.2778 132.904 93.3889 132.499 94.4583C132.324 95 132.081 95.5139 131.851 96.0417C131.73 96.2917 131.594 96.5417 131.459 96.8055C131.392 96.9305 131.338 97.0555 131.257 97.1805L131.041 97.5417C130.757 98.0417 130.42 98.5 130.095 98.9583L129.569 99.625C129.488 99.7361 129.38 99.8472 129.285 99.9444L129.002 100.264C127.462 101.917 125.598 103.236 123.559 104.167C122.546 104.639 121.493 105.014 120.412 105.319C119.872 105.458 119.332 105.597 118.778 105.694C118.508 105.736 118.225 105.792 117.955 105.819C117.685 105.847 117.401 105.889 117.117 105.875L110.446 105.889L97.0897 105.903L70.3907 105.931L16.9926 106C15.1695 105.75 13.3599 105.347 11.6312 104.708C9.90262 104.069 8.25503 103.181 6.7695 102.056C6.58044 101.917 6.40487 101.764 6.22931 101.625C6.05375 101.472 5.86468 101.333 5.70262 101.167L5.18944 100.681C5.10841 100.597 5.02738 100.514 4.94635 100.431L4.70327 100.181L4.46018 99.9305C4.37915 99.8472 4.31163 99.75 4.2306 99.6667C4.08205 99.4861 3.93349 99.3055 3.78494 99.125L3.36629 98.5694C3.21774 98.3889 3.09619 98.1805 2.96115 97.9861C1.92128 96.4028 1.12449 94.6667 0.611309 92.8611C0.354717 91.9583 0.152145 91.0278 0.0441065 90.0833C0.0170969 89.8472 -0.00991272 89.6111 0.0035921 89.375V88.6667V87.25V81.5694V70.2222V24.8194L0.13864 24.0139L0.206164 23.6111C0.233174 23.4722 0.246679 23.3472 0.273688 23.2083L0.449251 22.4167L0.543785 22.0139L0.651823 21.625L0.881405 20.8472C0.962434 20.5833 1.05697 20.3333 1.1515 20.0833C1.31356 19.5694 1.54314 19.0833 1.75922 18.5833C1.81324 18.4583 1.86726 18.3333 1.93478 18.2222L2.12385 17.8611C2.24539 17.625 2.36693 17.375 2.50198 17.1528L2.90713 16.4583L3.36629 15.7917C3.98751 14.9167 4.67626 14.0972 5.44603 13.3472C6.98558 11.875 8.78172 10.6806 10.7129 9.81944C11.6853 9.38889 12.6846 9.02778 13.6975 8.75C14.2107 8.61111 14.7238 8.48611 15.237 8.38889C15.7502 8.29167 16.2769 8.20833 16.8036 8.15278C17.857 8.13889 18.9103 8.13889 19.9637 8.13889H23.1238L29.4441 8.125L42.0846 8.09722H42.0711L42.7868 7.27778L43.5296 6.48611L44.2994 5.72222C44.5695 5.47222 44.8261 5.22222 45.0962 4.98611C45.6364 4.5 46.1901 4.04167 46.7573 3.61111C47.3245 3.16667 47.9322 2.77778 48.5399 2.38889C49.1611 2.02778 49.7823 1.66667 50.4441 1.375C51.0923 1.08333 51.7675 0.805556 52.4563 0.611111C53.145 0.402778 53.8338 0.25 54.5495 0.138889C55.2518 0.0416667 55.9675 0 56.6833 0C58.1148 0.0138889 59.5328 0.277778 60.8968 0.722222C62.2608 1.16667 63.5572 1.80556 64.7727 2.56944C65.9881 3.33333 67.136 4.22222 68.2029 5.19444C68.7296 5.68055 69.2428 6.19444 69.7289 6.73611C70.2151 7.27778 70.6878 7.81944 71.1199 8.40278L71.0389 8.44444Z" fill="#F3F2F2"/>
<path d="M62.4767 51.7642C62.4767 51.7642 65.3397 51.7086 68.2298 52.6392C68.2298 52.6392 70.0529 53.2225 71.579 54.5419C71.579 54.5419 72.8079 55.5142 73.7127 57.2919C73.7127 57.2919 74.2259 58.0419 74.8066 60.3197C74.8066 60.3197 75.2388 62.0836 75.3333 63.9447C75.3333 63.9447 75.5224 65.6392 75.3603 68.1392C75.3603 68.1392 75.3063 71.3614 74.4825 73.6392C74.4825 73.6392 73.9558 75.6808 72.5783 77.3058C72.5783 77.3058 71.2819 79.1392 68.4188 80.1808C68.4188 80.1808 66.6227 81.0281 62.7333 81.1392C62.7333 81.1392 59.5057 81.3336 56.7912 80.6531C56.7912 80.6531 54.3738 80.1669 52.3346 78.5975C52.3346 78.5975 50.8221 77.4725 49.7687 75.4864C49.7687 75.4864 48.8504 73.7503 48.4317 71.5836C48.4317 71.5836 47.932 69.1114 47.9726 66.3197C47.9726 66.3197 47.959 64.2225 48.2561 62.2642C48.2561 62.2642 48.6208 57.8753 51.5513 54.9031C51.5648 54.9308 54.6034 51.4586 62.4767 51.7642Z" fill="#003675"/>
<path d="M2.15088 26.2638V88.2499C2.15088 88.2499 2.73159 101.875 18.5592 103.93L115.645 103.805C115.645 103.805 130.42 102.958 131.473 86.9305V26.6249C131.473 26.6249 131.351 12.2777 115.065 10.3472H71.0929C71.0929 10.3472 72.3894 13.1249 72.2678 14.0833H114.835C114.835 14.0833 125.855 13.7222 128.083 26.9861V69.7916C128.083 69.7916 128.556 82.3333 115.186 84.2638L18.4512 84.1388C18.4512 84.1388 6.95859 83.4166 5.67563 70.9999V26.8749C5.67563 26.8749 6.72901 14.2083 20.4499 14.0972H63.5978C63.5978 14.0972 63.2466 12.1666 60.7888 10.3611H18.4377C18.4377 10.3472 4.13609 11.1944 2.15088 26.2638Z" fill="#E77122"/>
<path d="M14.5754 22.2916V48.3333C14.5754 48.3333 14.697 49.236 15.7504 49.361L26.4192 49.3055C26.4192 49.3055 34.6841 49.1805 35.7375 41.2916C35.7375 41.2916 36.2101 35.3888 31.2269 33.9305C31.2269 33.9305 34.6301 32.1805 34.279 27.5416C34.279 27.5416 33.6307 21.2777 25.7169 21.2083H15.6963C15.6828 21.2083 14.697 21.2638 14.5754 22.2916Z" fill="#003675"/>
<path d="M54.9411 25.3054L38.6003 30.3749C38.6003 30.3749 37.3038 36.2776 37.4794 36.7638C37.4794 36.7638 36.0749 46.3471 49.7282 49.6665C49.7282 49.6665 58.3983 51.9026 63.3816 47.4304C63.3816 47.4304 66.4337 44.8332 66.9604 41.0415L67.8652 36.7638L54.9411 25.3054Z" fill="#003675"/>
<path d="M50.5251 36.6388L47.7566 43.3888C47.7566 43.3888 47.2029 45.1388 50.8087 45.8055C54.5226 46.4861 54.4415 44.9166 54.3605 44.7222L54.4415 37.5277C54.4415 37.5277 57.0209 36.6388 57.2505 33.9444C57.2505 33.9444 57.7232 30.7222 54.239 29.5972C54.239 29.5972 50.6602 28.5694 49.3502 32.6527C49.3637 32.6666 48.648 34.7499 50.5251 36.6388Z" fill="white"/>
<path d="M55.3731 23.4305L69.7962 36.2082C69.7962 36.2082 70.3229 36.5277 70.7551 36.111L73.3885 32.9582C73.3885 32.9582 73.8207 32.4582 73.3075 31.8888L57.1557 17.6249C57.1557 17.6249 56.6695 16.9999 55.7512 17.4582L35.8721 23.5416C35.8721 23.5416 34.7782 23.7638 35.1699 24.9027L36.2503 28.4999C36.2503 28.4999 36.6014 29.4027 37.6548 28.8749L55.3731 23.4305Z" fill="#E77122"/>
<path d="M47.7026 15.625L42.1656 15.6389L41.2068 20.3194L47.1354 18.5139L47.7026 15.625Z" fill="#003675"/>
<path d="M44.5559 8.93056L52.0241 8.94445C52.0241 8.94445 56.8858 5.54167 62.1797 9.52778C62.1797 9.52778 64.9482 11.5972 65.5829 15.2917C65.5829 15.2917 66.1366 16.8194 65.0022 21.1944L70.2826 22.3194C70.2826 22.3194 74.2665 11.1806 64.2999 4.43056C64.2999 4.43056 57.4935 -0.388886 49.6472 4.02778C49.6337 4.04167 46.8652 5.44445 44.5559 8.93056Z" fill="#003675"/>
<path d="M76.1978 22.4722V48.1666C76.1978 48.1666 76.2653 49.3472 77.5212 49.3749L87.2717 49.3611C87.2717 49.3611 90.945 49.4166 93.8755 47.8749C93.8755 47.8749 95.4016 47.2361 96.9411 45.611C96.9411 45.611 98.0215 44.5972 99.0074 42.6249C99.0074 42.6249 100.236 40.2083 100.425 37.0694C100.425 37.0694 100.655 34.1944 100.223 32.0694C100.223 32.0694 100.061 29.5138 98.2241 26.4861C98.2241 26.4861 96.4955 23.5694 93.0383 22.2638C93.0383 22.2638 90.7289 21.2638 87.8119 21.2222L77.4537 21.1944C77.4537 21.1805 76.3463 21.0833 76.1978 22.4722Z" fill="#003675"/>
<path d="M82.6936 26.4444V44.6528L87.2042 44.6666C87.2042 44.6666 90.0132 44.8889 92.12 41.8333C92.12 41.8333 93.4839 39.9861 93.8351 37.0694C93.8351 37.0694 94.3888 34.4028 93.4299 31.4861C93.4299 31.4861 92.8492 29.4028 91.3367 28.0139C91.3367 28.0139 89.7971 26.4305 87.2717 26.4444H82.6936Z" fill="white"/>
<path d="M103.977 22.4305V48.1527C103.977 48.1527 104.058 49.236 105.125 49.361H121.344C121.344 49.361 122.141 49.3471 122.29 48.4443V45.111C122.29 45.111 122.236 44.1805 121.25 44.1527L110.298 44.1805V37.3055H119.359C119.359 37.3055 120.683 37.3471 120.858 35.7777V33.611C120.858 33.611 120.845 32.1666 119.305 32.0971H110.298V26.4027H121.385C121.385 26.4027 122.182 26.3749 122.29 25.4166V22.1249C122.29 22.1249 122.182 21.2221 121.304 21.1943H105.193C105.193 21.1805 104.085 21.1943 103.977 22.4305Z" fill="#003675"/>
<path d="M45.4338 66.4999L45.4609 75.861C45.4609 75.861 45.4338 77.486 45.0017 78.111C45.0017 78.111 44.7991 78.6665 44.0699 79.1249C44.0699 79.1249 42.8949 80.1387 40.383 80.6526C40.383 80.6526 38.722 80.9999 37.1014 81.0832C37.1014 81.0832 34.2924 81.2776 32.2802 81.0415C32.2802 81.0415 28.4448 80.736 25.6223 78.4721C25.6223 78.4721 23.7856 77.0415 22.7188 74.8887C22.7188 74.8887 21.3548 72.3471 21.0982 68.9999C21.0982 68.9999 20.747 65.7637 21.3143 62.6943C21.3143 62.6943 21.6519 60.9443 22.1651 59.7915C22.1651 59.7915 22.5702 58.4443 24.0287 56.5276C24.0287 56.5276 25.8519 54.0971 28.985 52.8749C28.985 52.8749 31.5239 51.7221 35.1027 51.736L36.9258 51.7499C36.9258 51.7499 39.2621 51.8054 39.6133 51.9165C39.6133 51.9165 41.2609 52.0554 42.1657 52.3749C42.1657 52.3749 43.5702 52.6804 44.8937 53.736C44.8937 53.736 45.7039 54.5554 45.7985 56.2776C45.7985 56.2776 45.893 58.2776 45.4203 58.9999C45.4203 58.9999 45.2313 59.6526 44.34 59.6665C44.34 59.6665 43.7187 59.5693 42.9895 59.1665C42.9895 59.1665 42.3683 58.7637 42.1792 58.611C42.1792 58.611 41.1528 57.8887 39.7753 57.5554C39.7753 57.5554 38.0062 57.1249 36.4667 57.0415L34.3464 56.9999C34.3464 56.9999 32.5232 57.0693 31.1458 58.0693C31.1458 58.0693 30.1464 58.5832 28.958 60.611C28.958 60.611 28.6474 61.2082 28.2017 62.6943C28.2017 62.6943 27.8101 64.5971 27.7966 65.5693C27.7966 65.5693 27.7831 67.3054 27.8101 67.4026C27.8101 67.4026 27.9181 70.1249 28.6069 71.7082C28.6069 71.7082 29.3901 73.9721 31.3483 74.8749C31.3483 74.8749 32.1046 75.4165 34.2249 75.6249C34.2249 75.6249 34.522 75.6387 34.684 75.6387L37.9927 75.611C37.9927 75.611 39.0056 75.6526 39.0866 74.3193L39.0731 70.1943C39.0731 70.1943 39.1271 69.3193 38.1548 69.2915L34.1303 69.3054C34.1303 69.3054 33.0904 69.4443 32.8474 68.2776C32.8474 68.2776 32.4422 65.2499 33.1175 64.3471C33.1175 64.3471 33.2525 64.0832 33.7252 64.0832L43.6512 64.0971C43.6107 64.111 45.3933 63.9721 45.4338 66.4999Z" fill="#003675"/>
<path d="M61.6666 57.0137C61.6666 57.0137 65.3399 56.7082 67.0685 59.2776C67.0685 59.2776 68.1084 60.4443 68.4866 63.7498C68.4866 63.7498 68.7837 67.0276 68.5271 68.7221C68.5271 68.7221 68.365 70.7221 68.0004 71.6109C68.0004 71.6109 67.2036 75.6387 62.6525 75.8887C62.6525 75.8887 60.3432 76.1804 58.3714 75.2498C58.3714 75.2498 56.6968 74.5137 55.8866 72.6665C55.8866 72.6665 55.1303 71.2776 54.8872 68.8193C54.8872 68.8193 54.6576 65.3471 54.9142 63.7221C54.9142 63.7221 55.1843 61.0832 56.2647 59.4443C56.2647 59.4721 57.8042 56.8471 61.6666 57.0137Z" fill="white"/>
<path d="M94.7398 71.7085L101.209 54.014C101.209 54.014 101.627 51.9168 103.626 51.764H110.108C110.108 51.764 111.499 51.7224 111.715 53.2779L111.729 79.9724C111.729 79.9724 111.702 80.9862 110.621 81.1668H106.3C106.3 81.1668 105.355 81.1251 105.179 80.0279L105.166 61.1529L98.3726 79.7501C98.3726 79.7501 97.9675 80.9585 97.0896 81.1529L92.444 81.1668C92.444 81.1668 91.6067 81.0418 91.161 79.7918L84.3411 61.139V79.9307C84.3411 79.9307 84.3681 80.9585 83.2337 81.1529H78.8716C78.8716 81.1529 77.8858 81.0557 77.7913 79.9724V53.3057C77.7913 53.3057 77.8858 51.8751 79.3713 51.764H85.8536C85.8536 51.764 87.5147 51.8057 88.1359 53.5835L94.7398 71.7085Z" fill="#003675"/>
<path d="M21.0168 26.2917V32.6251H24.5821L24.7712 32.639L24.9467 32.6251C24.9467 32.6251 27.0535 32.5417 27.5262 30.0556C27.5262 30.0556 28.1204 26.6529 24.7172 26.2917H21.0168Z" fill="white"/>
<path d="M21.0168 37.5554V44.6526H25.3249L25.5545 44.6665L25.7705 44.6526C25.7705 44.6526 28.3229 44.5554 28.8901 41.7776C28.8901 41.7776 29.6194 37.9582 25.4869 37.5554H21.0168Z" fill="white"/>
<path d="M28.5255 86.0691V101.736H25.0683V91.1524L23.6908 101.736H21.2329L19.7744 91.4024V101.736H16.3171V86.0691H21.449C21.5975 87.0135 21.7596 88.1246 21.9216 89.4024L22.4888 93.3885L23.3937 86.0691H28.5255Z" fill="white"/>
<path d="M34.0761 86.0691V101.736H30.1191V86.0691H34.0761Z" fill="white"/>
<path d="M44.5153 86.0691V101.736H41.0446L38.9784 94.6108V101.736H35.6697V86.0691H38.9784L41.1931 93.1247V86.0691H44.5153Z" fill="white"/>
<path d="M50.0792 86.0691V101.736H46.1223V86.0691H50.0792Z" fill="white"/>
<path d="M51.6592 86.0691H55.6161C56.8585 86.0691 57.8174 86.1663 58.4521 86.3746C59.1003 86.5691 59.6135 86.9858 60.0052 87.583C60.3968 88.1941 60.5994 89.1802 60.5994 90.5274C60.5994 91.4441 60.4643 92.083 60.1807 92.4441C59.8971 92.8052 59.3569 93.083 58.5331 93.2774C59.4515 93.4858 60.0727 93.8469 60.3968 94.333C60.7209 94.833 60.883 95.583 60.883 96.6108V98.0691C60.883 99.1247 60.7614 99.9163 60.5318 100.416C60.3023 100.93 59.9241 101.277 59.4109 101.458C58.8978 101.639 57.8444 101.736 56.2508 101.736H51.6727V86.0691H51.6592ZM55.6296 88.7497V92.2358C55.8052 92.2358 55.9267 92.2219 56.0212 92.2219C56.4129 92.2219 56.656 92.1246 56.764 91.9302C56.872 91.7358 56.9261 91.1663 56.9261 90.2358C56.9261 89.7496 56.8855 89.4024 56.791 89.208C56.6965 89.0135 56.5884 88.8885 56.4534 88.833C56.3048 88.7913 56.0347 88.7635 55.6296 88.7497ZM55.6296 94.6802V99.0691C56.1833 99.0552 56.5479 98.958 56.6965 98.7913C56.845 98.6247 56.9261 98.2358 56.9261 97.5969V96.1385C56.9261 95.4719 56.8585 95.0552 56.7235 94.9163C56.5749 94.7774 56.2238 94.6941 55.6296 94.6802Z" fill="white"/>
<path d="M71.3628 95.2497C71.3628 96.8192 71.3223 97.9442 71.2548 98.5969C71.1872 99.2497 70.9577 99.847 70.5795 100.389C70.2014 100.93 69.6882 101.347 69.04 101.639C68.3917 101.93 67.6355 102.069 66.7847 102.069C65.9744 102.069 65.2316 101.93 64.5834 101.653C63.9352 101.375 63.4085 100.972 63.0168 100.416C62.6252 99.8608 62.3821 99.2775 62.3146 98.6247C62.2336 97.9858 62.2065 96.8469 62.2065 95.2358V92.5553C62.2065 90.9858 62.2471 89.8608 62.3146 89.2081C62.3821 88.5553 62.6117 87.9581 62.9898 87.4164C63.368 86.8747 63.8811 86.4581 64.5294 86.1664C65.1776 85.8747 65.9339 85.7358 66.7847 85.7358C67.595 85.7358 68.3377 85.8747 68.986 86.1525C69.6342 86.4303 70.1609 86.8331 70.5525 87.3886C70.9442 87.9303 71.1872 88.5275 71.2548 89.1803C71.3358 89.8192 71.3628 90.9581 71.3628 92.5692V95.2497ZM67.4059 90.0969C67.4059 89.3608 67.3654 88.9025 67.2844 88.6942C67.2033 88.4858 67.0413 88.3886 66.7982 88.3886C66.5956 88.3886 66.4335 88.4719 66.3255 88.6386C66.2175 88.8053 66.1635 89.2914 66.1635 90.0969V97.4164C66.1635 98.3331 66.204 98.8886 66.2715 99.097C66.339 99.3053 66.5146 99.4164 66.7712 99.4164C67.0413 99.4164 67.2168 99.2914 67.2844 99.0553C67.3654 98.8053 67.3924 98.2219 67.3924 97.3053V90.0969H67.4059Z" fill="white"/>
<path d="M72.8484 86.0691H75.8194C77.7371 86.0691 79.0336 86.1663 79.7088 86.3469C80.3841 86.5274 80.8973 86.8191 81.2484 87.2358C81.5995 87.6524 81.8156 88.1108 81.9101 88.6108C82.0046 89.1108 82.0452 90.1108 82.0452 91.5969V97.0969C82.0452 98.4997 81.9776 99.4441 81.8561 99.9163C81.7345 100.389 81.505 100.764 81.1809 101.027C80.8567 101.291 80.4651 101.486 79.9924 101.583C79.5198 101.694 78.8175 101.75 77.8587 101.75H72.8619V86.0691H72.8484ZM76.8053 88.7497V99.0552C77.3725 99.0552 77.7236 98.9441 77.8587 98.708C77.9937 98.4719 78.0612 97.833 78.0612 96.7913V90.708C78.0612 89.9997 78.0342 89.5413 77.9937 89.3469C77.9532 89.1524 77.8452 88.9997 77.6966 88.9024C77.5346 88.8052 77.2375 88.7497 76.8053 88.7497Z" fill="white"/>
<path d="M83.5037 86.0691H90.1076V89.208H87.4606V92.1802H89.932V95.1663H87.4606V98.6108H90.3642V101.75H83.4902V86.0691H83.5037Z" fill="white"/>
<path d="M100.601 91.8468H96.6441V90.4301C96.6441 89.5273 96.6036 88.9718 96.536 88.7495C96.455 88.5273 96.2795 88.4162 95.9959 88.4162C95.7528 88.4162 95.5907 88.5134 95.4962 88.7079C95.4016 88.9023 95.3611 89.4023 95.3611 90.194V97.7218C95.3611 98.4301 95.4016 98.8884 95.4962 99.1106C95.5907 99.3329 95.7663 99.444 96.0229 99.444C96.3065 99.444 96.509 99.319 96.6171 99.069C96.7251 98.819 96.7656 98.3329 96.7656 97.5968V95.7356H95.9688V93.3606H100.614V101.777H98.1296L97.765 100.652C97.4949 101.138 97.1573 101.5 96.7386 101.736C96.3335 101.972 95.8473 102.097 95.2801 102.097C94.6184 102.097 93.9971 101.93 93.4164 101.597C92.8357 101.263 92.3901 100.847 92.093 100.361C91.7959 99.8745 91.6068 99.3607 91.5258 98.819C91.4447 98.2773 91.4177 97.4718 91.4177 96.3884V91.7357C91.4177 90.2357 91.4987 89.1523 91.6473 88.4718C91.8094 87.7912 92.255 87.1801 92.9978 86.6106C93.7405 86.0412 94.6994 85.7634 95.8878 85.7634C97.0492 85.7634 98.0081 86.0134 98.7778 86.4995C99.5476 86.9856 100.047 87.569 100.277 88.2495C100.506 88.9301 100.628 89.9023 100.628 91.194V91.8468H100.601Z" fill="white"/>
<path d="M108.987 86.0691L111.256 101.736H107.204L106.988 98.9163H105.57L105.327 101.736H101.235L103.261 86.0691H108.987ZM106.88 96.1524C106.678 94.3747 106.475 92.1802 106.273 89.5691C105.868 92.5691 105.611 94.7635 105.516 96.1524H106.88Z" fill="white"/>
<path d="M120.318 90.8192H116.631V89.6525C116.631 89.1108 116.59 88.7636 116.496 88.6108C116.401 88.4581 116.239 88.3886 116.023 88.3886C115.78 88.3886 115.605 88.4858 115.483 88.6942C115.361 88.8886 115.294 89.1942 115.294 89.6108C115.294 90.1386 115.361 90.5275 115.496 90.7914C115.632 91.0553 115.996 91.3747 116.617 91.7497C118.387 92.8331 119.494 93.7081 119.953 94.4025C120.412 95.0969 120.642 96.2081 120.642 97.7358C120.642 98.8469 120.52 99.6803 120.264 100.208C120.007 100.736 119.521 101.18 118.792 101.541C118.062 101.903 117.212 102.083 116.253 102.083C115.186 102.083 114.281 101.875 113.538 101.458C112.782 101.041 112.296 100.514 112.066 99.8747C111.837 99.2358 111.715 98.3331 111.715 97.1525V96.1247H115.402V98.0275C115.402 98.6108 115.456 98.9858 115.564 99.1664C115.672 99.3331 115.848 99.4164 116.118 99.4164C116.388 99.4164 116.577 99.3053 116.712 99.097C116.847 98.8886 116.901 98.5692 116.901 98.1525C116.901 97.2358 116.779 96.6247 116.536 96.3469C116.28 96.0692 115.672 95.5831 114.686 94.9303C113.7 94.2636 113.052 93.7775 112.728 93.472C112.404 93.1664 112.147 92.7497 111.931 92.2081C111.715 91.6664 111.621 90.9858 111.621 90.1525C111.621 88.9581 111.769 88.0692 112.066 87.5136C112.363 86.9581 112.85 86.5275 113.511 86.2081C114.173 85.8886 114.983 85.7358 115.915 85.7358C116.941 85.7358 117.819 85.9025 118.549 86.2497C119.278 86.597 119.751 87.0275 119.994 87.5414C120.223 88.0553 120.345 88.9442 120.345 90.1942V90.8192H120.318Z" fill="white"/>
</svg>
