<svg width="140" height="140" viewBox="0 0 140 140" fill="none" xmlns="http://www.w3.org/2000/svg">
<path d="M124.688 84.7656L71.4439 132.147C70.6181 132.872 69.3822 132.872 68.5564 132.147L15.3127 84.7656C14.639 84.1723 14.3961 83.2277 14.7002 82.383C15.0043 81.5384 15.7935 80.9652 16.6908 80.9375H37.1877V10.9375C37.1877 8.52125 39.1464 6.5625 41.5627 6.5625H98.4377C100.854 6.5625 102.813 8.52125 102.813 10.9375V80.9375H123.31C124.207 80.9652 124.996 81.5384 125.3 82.383C125.604 83.2277 125.361 84.1723 124.688 84.7656H124.688Z" fill="#EAEAEA"/>
<path d="M120.75 83.125C117.057 83.1214 113.491 84.4761 110.731 86.9313L69.8688 123.331C68.6156 124.423 67.9375 126.033 68.0316 127.693C68.1257 129.352 68.9815 130.875 70.3501 131.819C70.8532 132.147 71.2469 132.3 71.4438 132.125L125.65 83.825C127.159 82.4906 122.763 83.125 120.75 83.125Z" fill="#CCCCCC"/>
<path d="M102.812 10.9375V28.4375H37.1875V10.9375C37.1875 8.52125 39.1463 6.5625 41.5625 6.5625H98.4375C100.854 6.5625 102.812 8.52125 102.812 10.9375Z" fill="#E87022"/>
<path d="M127.4 81.5719C126.755 79.873 125.127 78.7498 123.31 78.75H105V10.9375C105 7.31313 102.062 4.375 98.4377 4.375H41.5627C37.9384 4.375 35.0002 7.31313 35.0002 10.9375V78.75H16.6909C14.879 78.7537 13.2569 79.8739 12.6117 81.567C11.9665 83.2601 12.4316 85.1757 13.7815 86.3844L67.0909 133.787C68.7494 135.264 71.2511 135.264 72.9096 133.787L126.219 86.4062C127.58 85.1975 128.051 83.2722 127.4 81.5719ZM39.3752 10.9375C39.3752 9.72937 40.3546 8.75 41.5627 8.75H98.4377C99.6459 8.75 100.625 9.72937 100.625 10.9375V26.25H39.3752V10.9375ZM70.0002 130.506L16.6909 83.125H37.1877C38.3959 83.125 39.3752 82.1456 39.3752 80.9375V30.625H100.625V80.9375C100.625 82.1456 101.605 83.125 102.813 83.125H123.31L70.0002 130.506Z" fill="#333333"/>
<path d="M91.875 13.125C90.6669 13.125 89.6875 14.1044 89.6875 15.3125V19.6875C89.6875 20.8956 90.6669 21.875 91.875 21.875C93.0831 21.875 94.0625 20.8956 94.0625 19.6875V15.3125C94.0625 14.1044 93.0831 13.125 91.875 13.125ZM80.9375 13.125C79.7294 13.125 78.75 14.1044 78.75 15.3125V19.6875C78.75 20.8956 79.7294 21.875 80.9375 21.875C82.1456 21.875 83.125 20.8956 83.125 19.6875V15.3125C83.125 14.1044 82.1456 13.125 80.9375 13.125ZM70 13.125C68.7919 13.125 67.8125 14.1044 67.8125 15.3125V19.6875C67.8125 20.8956 68.7919 21.875 70 21.875C71.2081 21.875 72.1875 20.8956 72.1875 19.6875V15.3125C72.1875 14.1044 71.2081 13.125 70 13.125ZM59.0625 13.125C57.8544 13.125 56.875 14.1044 56.875 15.3125V19.6875C56.875 20.8956 57.8544 21.875 59.0625 21.875C60.2706 21.875 61.25 20.8956 61.25 19.6875V15.3125C61.25 14.1044 60.2706 13.125 59.0625 13.125ZM48.125 13.125C46.9169 13.125 45.9375 14.1044 45.9375 15.3125V19.6875C45.9375 20.8956 46.9169 21.875 48.125 21.875C49.3331 21.875 50.3125 20.8956 50.3125 19.6875V15.3125C50.3125 14.1044 49.3331 13.125 48.125 13.125ZM65.625 50.3125H74.375C77.9994 50.3125 80.9375 53.2506 80.9375 56.875C80.9375 58.0831 81.9169 59.0625 83.125 59.0625C84.3331 59.0625 85.3125 58.0831 85.3125 56.875C85.3125 50.8344 80.4156 45.9375 74.375 45.9375H72.1875V39.375C72.1875 38.1669 71.2081 37.1875 70 37.1875C68.7919 37.1875 67.8125 38.1669 67.8125 39.375V45.9375H65.625C59.5844 45.9375 54.6875 50.8344 54.6875 56.875V61.25C54.6875 67.2906 59.5844 72.1875 65.625 72.1875H74.375C77.9994 72.1875 80.9375 75.1256 80.9375 78.75V83.125C80.9375 86.7494 77.9994 89.6875 74.375 89.6875H72.1875V76.5625C72.1875 75.3544 71.2081 74.375 70 74.375C68.7919 74.375 67.8125 75.3544 67.8125 76.5625V89.6875H65.625C62.0006 89.6875 59.0625 86.7494 59.0625 83.125C59.0625 81.9169 58.0831 80.9375 56.875 80.9375C55.6669 80.9375 54.6875 81.9169 54.6875 83.125C54.6875 89.1656 59.5844 94.0625 65.625 94.0625H67.8125V100.625C67.8125 101.833 68.7919 102.812 70 102.812C71.2081 102.812 72.1875 101.833 72.1875 100.625V94.0625H74.375C80.4156 94.0625 85.3125 89.1656 85.3125 83.125V78.75C85.3125 72.7094 80.4156 67.8125 74.375 67.8125H72.1875V54.6875C72.1875 53.4794 71.2081 52.5 70 52.5C68.7919 52.5 67.8125 53.4794 67.8125 54.6875V67.8125H65.625C62.0006 67.8125 59.0625 64.8744 59.0625 61.25V56.875C59.0625 53.2506 62.0006 50.3125 65.625 50.3125Z" fill="#333333"/>
</svg>
