<?xml version="1.0" standalone="no"?>
<!DOCTYPE svg PUBLIC "-//W3C//DTD SVG 20010904//EN"
 "http://www.w3.org/TR/2001/REC-SVG-20010904/DTD/svg10.dtd">
<svg version="1.0" xmlns="http://www.w3.org/2000/svg"
 width="768.000000pt" height="768.000000pt" viewBox="0 0 768.000000 768.000000"
 preserveAspectRatio="xMidYMid meet">
<metadata>
Created by potrace 1.14, written by Peter Selinger 2001-2017
</metadata>
<g transform="translate(0.000000,768.000000) scale(0.100000,-0.100000)"
fill="#000000" stroke="none">
<path d="M3715 7319 c-119 -13 -169 -20 -176 -25 -4 -2 -27 -6 -50 -9 -85 -11
-318 -76 -396 -111 -17 -8 -34 -14 -37 -14 -3 0 -35 -13 -70 -30 -36 -16 -80
-36 -98 -44 -79 -36 -289 -162 -296 -178 -2 -5 -10 -8 -18 -8 -8 0 -14 -4 -14
-10 0 -5 -4 -10 -10 -10 -5 0 -18 -7 -27 -15 -10 -8 -48 -38 -84 -68 -149
-120 -304 -280 -401 -412 -125 -169 -215 -325 -295 -510 -21 -48 -81 -214 -88
-245 -36 -139 -44 -177 -51 -215 -2 -16 -6 -39 -8 -50 -2 -11 -7 -45 -11 -75
-3 -30 -9 -62 -12 -70 -3 -8 -7 -196 -9 -417 l-3 -402 25 9 c13 5 102 49 197
96 95 47 201 100 237 118 36 17 67 34 68 39 2 4 9 7 15 7 7 0 126 58 266 128
l254 127 2 90 c1 79 6 122 21 200 2 11 7 33 10 50 7 39 33 122 50 162 8 17 14
34 14 38 0 26 137 265 151 265 5 0 9 4 9 10 0 36 299 320 338 320 6 0 12 4 14
8 3 9 131 77 198 106 54 23 149 53 210 65 30 6 66 14 80 18 32 8 372 13 384 6
5 -3 23 -7 40 -9 41 -4 153 -29 211 -48 6 -2 13 -4 17 -5 24 -5 153 -65 207
-95 34 -20 67 -36 72 -36 5 0 9 -3 9 -7 0 -5 20 -21 45 -36 25 -16 45 -33 45
-37 0 -5 8 -11 18 -14 38 -13 262 -255 262 -285 0 -5 4 -11 9 -13 9 -3 111
-185 111 -198 0 -4 7 -21 15 -38 9 -17 18 -40 20 -52 2 -11 7 -25 10 -30 25
-40 62 -248 64 -358 l1 -42 113 5 c61 3 141 8 177 10 78 5 211 13 335 21 50 2
124 7 165 9 41 3 115 7 163 10 49 3 93 7 97 10 13 8 0 178 -25 340 -16 105
-87 361 -124 450 -24 57 -33 78 -77 170 -26 55 -65 127 -86 161 -21 34 -38 66
-38 73 0 6 -3 11 -8 11 -4 0 -16 16 -26 35 -11 19 -23 35 -28 35 -4 0 -8 5 -8
11 0 6 -6 16 -12 23 -7 8 -20 24 -28 36 -8 12 -19 28 -25 34 -5 6 -28 34 -49
61 -70 90 -289 298 -398 380 -111 82 -237 162 -323 205 -27 14 -51 28 -53 33
-2 4 -7 7 -12 7 -5 0 -30 10 -57 22 -26 12 -50 22 -53 23 -3 1 -21 8 -40 17
-20 8 -65 25 -100 37 -36 12 -72 25 -80 28 -8 3 -19 7 -25 9 -5 1 -44 11 -85
23 -41 11 -91 23 -110 26 -19 3 -42 8 -50 10 -33 9 -70 15 -205 31 -72 9 -400
11 -470 3z"/>
<path d="M3884 5371 c-48 -20 -433 -208 -454 -221 -8 -6 -22 -13 -30 -16 -16
-7 -179 -86 -470 -227 -102 -49 -259 -125 -350 -169 -91 -44 -233 -113 -316
-154 -83 -41 -156 -74 -161 -74 -6 0 -16 -7 -23 -15 -6 -8 -15 -14 -18 -13 -4
1 -74 -31 -157 -71 -334 -164 -582 -284 -617 -298 -21 -8 -38 -19 -38 -24 0
-5 -7 -9 -15 -9 -8 0 -54 -20 -102 -44 -48 -24 -158 -78 -243 -119 -174 -85
-206 -108 -220 -157 -10 -34 -4 -95 10 -115 4 -5 40 -73 80 -150 77 -148 155
-297 173 -330 6 -11 11 -23 12 -28 0 -4 17 -25 38 -47 34 -37 49 -43 99 -43 9
0 70 26 134 58 65 31 127 61 138 66 12 5 28 13 36 19 33 20 225 110 237 110 7
0 13 3 13 8 0 8 49 32 67 32 7 0 13 5 13 10 0 6 9 10 20 10 11 0 20 5 20 10 0
6 5 10 11 10 6 0 97 42 202 94 106 52 300 147 432 211 132 64 294 144 360 176
67 32 126 59 133 59 7 0 12 3 12 8 0 4 15 13 33 21 17 8 165 80 327 159 162
80 297 146 300 146 3 1 52 25 110 53 58 28 109 51 114 51 5 0 12 4 15 9 12 16
61 32 78 26 10 -4 55 -29 101 -55 46 -26 87 -48 92 -48 4 0 13 -7 20 -15 7 -8
16 -12 21 -9 5 3 9 0 9 -5 0 -6 4 -11 9 -11 5 0 40 -18 78 -39 38 -21 93 -52
123 -69 30 -16 73 -40 95 -52 22 -12 63 -35 90 -50 83 -45 146 -81 226 -126
42 -24 81 -44 87 -44 7 0 12 -4 12 -9 0 -5 8 -11 18 -14 16 -5 81 -41 205
-110 26 -15 68 -39 95 -53 26 -15 103 -58 172 -97 69 -38 159 -88 200 -110 41
-22 80 -43 85 -47 6 -4 37 -22 70 -40 71 -39 122 -67 315 -175 41 -23 82 -45
90 -49 8 -4 24 -12 35 -19 11 -7 56 -32 100 -56 44 -24 100 -55 125 -69 25
-14 59 -33 75 -42 17 -9 61 -34 99 -55 96 -54 167 -51 209 7 26 35 176 271
184 288 3 8 25 44 48 80 96 150 123 198 125 221 5 53 -1 79 -23 103 -23 24
-190 126 -208 126 -5 0 -9 5 -9 10 0 6 -4 10 -9 10 -9 0 -429 234 -481 268
-14 9 -27 17 -30 17 -3 0 -39 20 -80 44 -41 24 -88 51 -105 60 -16 9 -31 19
-33 24 -2 4 -8 7 -14 7 -5 0 -55 27 -111 59 -106 61 -640 365 -737 418 -30 17
-84 48 -120 68 -259 148 -343 195 -351 195 -5 0 -9 4 -9 9 0 5 -8 11 -17 14
-10 3 -47 23 -83 43 -36 21 -80 45 -98 55 -18 9 -38 22 -45 27 -7 5 -41 25
-77 44 -79 44 -329 185 -350 198 -96 62 -162 77 -226 51z"/>
<path d="M3850 4153 c-8 -3 -17 -9 -20 -12 -5 -6 -280 -145 -290 -146 -3 -1
-48 -23 -100 -50 -170 -86 -375 -189 -380 -190 -13 -3 -194 -96 -206 -105 -7
-7 -19 -13 -26 -14 -7 -1 -56 -24 -108 -52 -52 -27 -102 -51 -110 -53 -8 -2
-27 -12 -42 -22 -14 -11 -29 -19 -34 -19 -6 0 -166 -79 -221 -109 -10 -5 -70
-35 -133 -66 -63 -31 -121 -62 -129 -68 -8 -7 -15 -10 -15 -8 -2 5 -121 -53
-124 -61 -2 -5 -8 -8 -14 -8 -15 0 -418 -202 -419 -209 -2 -27 -9 -205 -14
-391 -14 -454 -8 -587 37 -775 7 -27 13 -52 13 -55 1 -3 9 -30 18 -60 31 -99
77 -200 158 -340 93 -163 317 -388 507 -512 31 -20 63 -42 70 -48 6 -6 12 -8
12 -4 0 4 8 0 18 -8 24 -21 133 -78 149 -78 7 0 13 -4 13 -10 0 -5 8 -10 18
-10 10 0 22 -4 28 -8 14 -13 162 -72 179 -72 8 0 15 -4 15 -8 0 -5 6 -9 13 -9
6 0 48 -11 92 -26 124 -39 334 -88 445 -102 25 -3 52 -8 60 -10 18 -5 133 -18
275 -32 141 -13 588 -5 675 12 14 3 50 7 80 10 46 5 112 16 245 41 61 12 155
34 175 41 8 3 24 8 35 10 39 7 182 56 289 100 222 89 406 205 556 347 65 62
162 166 154 166 -3 0 11 20 30 44 20 23 36 48 36 55 0 6 4 11 9 11 5 0 13 9
16 20 3 11 13 26 20 34 28 27 154 304 184 401 17 55 32 111 35 125 3 14 10 50
16 80 11 54 14 111 25 390 6 156 14 343 18 448 l4 73 -96 57 c-53 31 -107 62
-120 69 -13 8 -50 29 -81 48 -32 19 -62 35 -68 35 -6 0 -12 4 -14 8 -1 5 -23
20 -48 34 -60 34 -119 67 -152 87 -24 14 -357 210 -418 245 -14 8 -71 42 -128
76 -56 33 -107 60 -112 60 -6 0 -10 3 -10 8 0 4 -10 12 -23 18 -36 18 -119 65
-175 101 -29 18 -54 33 -56 33 -3 0 -51 28 -108 61 -57 34 -116 69 -133 79
-16 9 -75 43 -130 75 -55 32 -101 62 -103 66 -2 5 -11 9 -21 9 -9 0 -21 4 -27
10 -14 14 -263 158 -282 164 -10 2 -24 2 -32 -1z m90 -658 c25 -5 47 -9 50
-10 3 -1 19 -5 35 -10 47 -12 134 -53 179 -85 53 -36 138 -122 157 -157 8 -16
16 -30 20 -33 17 -15 63 -139 74 -200 17 -91 2 -259 -28 -315 -6 -11 -10 -24
-9 -28 1 -5 -7 -20 -18 -34 -11 -14 -20 -30 -20 -35 0 -14 -92 -126 -138 -170
-22 -20 -58 -48 -80 -63 -30 -20 -39 -32 -37 -48 7 -41 27 -162 29 -182 2 -11
6 -33 9 -50 4 -16 9 -48 12 -70 4 -22 7 -49 9 -60 2 -11 7 -40 10 -65 4 -25 9
-52 11 -60 2 -8 7 -33 10 -55 3 -23 8 -52 11 -65 3 -14 6 -38 8 -55 2 -16 7
-46 10 -65 13 -73 16 -96 21 -130 3 -19 8 -44 10 -56 3 -12 7 -39 10 -60 4
-21 10 -52 14 -69 6 -26 7 -66 2 -100 -1 -5 -16 -26 -34 -46 -35 -39 -122 -84
-183 -95 -22 -3 -48 -8 -59 -11 -111 -22 -396 -21 -492 2 -13 3 -25 5 -28 5
-3 0 -31 10 -62 22 -161 59 -221 151 -187 283 7 27 15 61 18 75 2 14 14 63 26
110 12 47 24 94 25 105 3 17 38 167 51 218 2 9 6 25 8 35 2 11 16 68 31 128
15 60 29 120 31 134 3 14 7 33 10 42 3 9 6 25 8 35 2 10 11 45 20 78 l16 60
-33 29 c-74 66 -99 90 -130 129 -40 50 -79 123 -103 192 -19 58 -27 229 -13
278 6 18 12 43 15 56 8 37 51 139 81 190 118 202 385 320 623 276z"/>
</g>
</svg>
